<?xml version="1.0" encoding="utf-8"?>
<!-- Generator: Adobe Illustrator 21.0.0, SVG Export Plug-In . SVG Version: 6.00 Build 0)  -->
<svg version="1.1" id="Ebene_1" xmlns="http://www.w3.org/2000/svg" xmlns:xlink="http://www.w3.org/1999/xlink" x="0px" y="0px"
	 viewBox="0 0 189.5 75.8" style="enable-background:new 0 0 189.5 75.8;" xml:space="preserve">
<g>
	<path d="M11,59.2c-6.1,0-11-4.9-11-10.9V5h5.4v10.9h8.2v5.3H5.4v27.2c0,3,2.6,5.4,5.6,5.4V59.2z"/>
	<path d="M37.9,58.7V26.5c0-3.1-2.1-5.8-5.1-5.8c-3,0-5.9,2.5-5.9,5.6v32.5h-5.5V0h5.5v18.6c0.9-1.5,3.3-3.2,6.5-3.2
		c5.4,0,10,4.5,10,10.8v32.5H37.9z"/>
	<path d="M74,26.2v21.9c0,6-5,11-10.6,11c-2.4,0-4.2-0.6-5.8-2v18.6h-5.5V15.9h4.5l0.4,2.7c0.9-1.5,3.7-3.2,6.9-3.2
		C69.1,15.4,74,20.1,74,26.2z M57.6,26.2v21.9c0,3,2.4,5.5,5.4,5.5c3.1,0,5.6-2.5,5.6-5.5V26.2c0-3.1-2.4-5.5-5.1-5.5
		C60.4,20.7,57.6,23.1,57.6,26.2z"/>
</g>
<g>
	<path d="M83.8,15.8h0.9v9.7h-0.9V15.8z"/>
	<path d="M86.7,20.6c0-0.7,0-1.5-0.1-2.2h0.7c0,0.3,0,0.5,0.1,1h0c0.2-0.3,0.6-1.1,1.8-1.1c2,0,2,2,2,2.4v4.7h-0.8v-4.8
		c0-0.5,0-1.6-1.3-1.6c-1,0-1.6,0.9-1.6,2v4.4h-0.8V20.6z"/>
	<path d="M96,19.4c-0.4-0.2-0.7-0.3-1.2-0.3c-0.8,0-1.2,0.6-1.2,1.1c0,0.7,0.2,0.8,1.2,1.3c1,0.5,1.7,0.9,1.7,2c0,1.3-0.9,2-2.1,2
		c-0.9,0-1.4-0.2-1.8-0.3l0.1-0.9c0.2,0.2,1,0.5,1.6,0.5c0.8,0,1.3-0.6,1.3-1.2c0-0.7-0.4-1-1.3-1.4c-1.2-0.6-1.7-1-1.7-2
		c0-1.3,1.1-2,2.1-2c0.5,0,1,0.1,1.3,0.2L96,19.4z"/>
	<path d="M99.1,16.8v1.7h1.4v0.7h-1.4v4.6c0,0.6,0.1,1.1,0.8,1.1c0.4,0,0.5-0.1,0.7-0.2v0.8c-0.2,0.1-0.6,0.1-0.9,0.1
		c-1,0-1.3-0.8-1.3-1.6v-4.8h-1.1v-0.7h1.1V17L99.1,16.8z"/>
	<path d="M101.8,15.6h1v1.2h-1V15.6z M101.9,18.4h0.8v7.1h-0.8V18.4z"/>
	<path d="M105.8,16.8v1.7h1.4v0.7h-1.4v4.6c0,0.6,0.1,1.1,0.8,1.1c0.4,0,0.5-0.1,0.7-0.2v0.8c-0.2,0.1-0.6,0.1-0.9,0.1
		c-1,0-1.3-0.8-1.3-1.6v-4.8H104v-0.7h1.1V17L105.8,16.8z"/>
	<path d="M113,23.3c0,0.7,0,1.5,0.1,2.2h-0.7c0-0.3,0-0.5-0.1-1h0c-0.1,0.3-0.6,1.1-1.8,1.1c-1.5,0-2-1.1-2-2.2v-4.9h0.8v4.8
		c0,0.5,0,1.6,1.3,1.6c1,0,1.6-0.9,1.6-2v-4.4h0.8V23.3z"/>
	<path d="M116.1,16.8v1.7h1.4v0.7h-1.4v4.6c0,0.6,0.1,1.1,0.8,1.1c0.4,0,0.5-0.1,0.7-0.2v0.8c-0.2,0.1-0.6,0.1-0.9,0.1
		c-1,0-1.3-0.8-1.3-1.6v-4.8h-1.1v-0.7h1.1V17L116.1,16.8z"/>
	<path d="M119.2,22.2c0,2.6,1.7,2.6,2,2.6c0.5,0,1.1-0.2,1.5-0.6l0,0.9c-0.3,0.2-0.8,0.4-1.6,0.4c-2.8,0-2.8-2.9-2.8-3.6
		c0-2.7,1.3-3.6,2.5-3.6c2,0,2.3,2.2,2.3,3.9H119.2z M122.3,21.5c0-1.9-0.8-2.4-1.4-2.4c-1.1,0-1.6,1.5-1.6,2.4H122.3z"/>
	<path d="M128.3,19.2h-1.1v-0.7h1.1v-1.5c0-1.1,0.3-2,1.7-2c0.3,0,0.5,0,0.6,0.1v0.8c-0.1-0.1-0.4-0.1-0.6-0.1
		c-0.7,0-0.9,0.5-0.9,1.1v1.7h1.2v0.7h-1.2v6.3h-0.8V19.2z"/>
	<path d="M131.2,22c0-1.8,0.6-3.6,2.6-3.6c2.1,0,2.6,1.9,2.6,3.6s-0.6,3.6-2.6,3.6C131.7,25.6,131.2,23.7,131.2,22z M135.6,22
		c0-0.6,0-2.9-1.8-2.9c-1.8,0-1.8,2.3-1.8,2.9c0,0.6,0,2.9,1.8,2.9C135.6,24.8,135.6,22.5,135.6,22z"/>
	<path d="M138,20.6c0-0.7,0-1.5-0.1-2.2h0.7c0,0.4,0,0.8,0.1,1.1h0c0.5-1,1.1-1.2,1.9-1.2v0.9c-1.3,0-1.9,0.6-1.9,1.9v4.4H138V20.6z
		"/>
	<path d="M83,32.4h5.3v0.8h-2.2v8.9h-0.9v-8.9H83V32.4z"/>
	<path d="M89,31.7h0.8v4.4h0c0.1-0.3,0.6-1.1,1.7-1.1c2,0,2,2,2,2.4v4.7h-0.8v-4.8c0-0.5,0-1.6-1.3-1.6c-1,0-1.6,0.9-1.6,2v4.4H89
		V31.7z"/>
	<path d="M95.9,38.8c0,2.6,1.7,2.6,2,2.6c0.5,0,1.1-0.2,1.5-0.6l0,0.9c-0.3,0.2-0.8,0.4-1.6,0.4c-2.8,0-2.8-2.9-2.8-3.6
		c0-2.7,1.3-3.6,2.5-3.6c2,0,2.3,2.2,2.3,3.9H95.9z M98.9,38.1c0-1.9-0.8-2.4-1.4-2.4c-1.1,0-1.6,1.5-1.6,2.4H98.9z"/>
	<path d="M100.9,38.6c0-1.8,0.6-3.6,2.6-3.6c2.1,0,2.6,1.9,2.6,3.6c0,1.8-0.6,3.6-2.6,3.6C101.5,42.2,100.9,40.3,100.9,38.6z
		 M105.4,38.6c0-0.6,0-2.9-1.8-2.9c-1.8,0-1.8,2.3-1.8,2.9c0,0.6,0,2.9,1.8,2.9C105.4,41.4,105.4,39.1,105.4,38.6z"/>
	<path d="M107.7,37.2c0-0.7,0-1.5-0.1-2.2h0.7c0,0.4,0,0.8,0.1,1.1h0c0.5-1,1.1-1.2,1.9-1.2v0.9c-1.3,0-1.9,0.6-1.9,1.9v4.4h-0.8
		V37.2z"/>
	<path d="M112.1,38.8c0,2.6,1.7,2.6,2,2.6c0.5,0,1.1-0.2,1.5-0.6l0,0.9c-0.3,0.2-0.8,0.4-1.6,0.4c-2.8,0-2.8-2.9-2.8-3.6
		c0-2.7,1.3-3.6,2.5-3.6c2,0,2.3,2.2,2.3,3.9H112.1z M115.1,38.1c0-1.9-0.8-2.4-1.4-2.4c-1.1,0-1.6,1.5-1.6,2.4H115.1z"/>
	<path d="M118.6,33.4V35h1.4v0.7h-1.4v4.6c0,0.6,0.1,1.1,0.8,1.1c0.4,0,0.5-0.1,0.7-0.2v0.8c-0.2,0.1-0.6,0.1-0.9,0.1
		c-1,0-1.3-0.8-1.3-1.6v-4.8h-1.1V35h1.1v-1.4L118.6,33.4z"/>
	<path d="M121.3,32.2h1v1.2h-1V32.2z M121.4,35h0.8v7.1h-0.8V35z"/>
	<path d="M128,36.1c-0.3-0.3-0.9-0.4-1.3-0.4c-1.1,0-2.1,0.7-2.1,2.6c0,2.6,1.4,3,2.2,3c0.3,0,1-0.1,1.2-0.4l0.1,0.9
		c-0.3,0.2-0.9,0.3-1.4,0.3c-1.5,0-2.9-1.2-2.9-3.6c0-2.2,1-3.7,2.9-3.7c0.6,0,1,0.1,1.3,0.3L128,36.1z"/>
	<path d="M133.5,40.5c0,0.5,0,1.1,0.1,1.6h-0.7l-0.1-1h0c-0.5,0.8-1.1,1.1-2,1.1c-1.1,0-2-0.9-2-2c0-2.3,2.4-2.3,3.4-2.3h0.5
		c0-0.9,0-2.2-1.5-2.2c-0.9,0-1.7,0.7-1.8,0.7l-0.1-0.9c0.7-0.4,1.2-0.6,1.9-0.6c2.2,0,2.2,1.8,2.2,2.3V40.5z M132.8,38.5
		c-1.7,0-3.1,0-3.1,1.6c0,0.6,0.4,1.3,1.3,1.3c0.4,0,1.8-0.2,1.8-2.1V38.5z"/>
	<path d="M135.5,31.7h0.8v10.4h-0.8V31.7z"/>
	<path d="M141.7,32.4h1.8c1.8,0,2.9,0.8,2.9,2.7c0,2.1-1.5,2.7-2.7,2.7h-1.2v4.2h-0.9V32.4z M142.6,37.1h0.9c1.3,0,2.1-0.4,2.1-1.9
		c0-1.9-1.4-1.9-2.2-1.9h-0.7V37.1z"/>
	<path d="M147.9,31.7h0.8v4.4h0c0.1-0.3,0.6-1.1,1.7-1.1c2,0,2,2,2,2.4v4.7h-0.8v-4.8c0-0.5,0-1.6-1.3-1.6c-1,0-1.6,0.9-1.6,2v4.4
		h-0.8V31.7z"/>
	<path d="M156,40.9L156,40.9l1.6-5.9h0.8l-2.3,8.4c-0.3,1-0.5,1.8-1.6,1.8c-0.2,0-0.3,0-0.5-0.1l0-0.8c0.1,0.1,0.4,0.2,0.6,0.2
		c0.4,0,0.6-0.4,0.7-0.8l0.4-1.3l-2.1-7.2h0.9L156,40.9z"/>
	<path d="M162.4,36c-0.4-0.2-0.7-0.3-1.2-0.3c-0.8,0-1.2,0.6-1.2,1.1c0,0.7,0.2,0.8,1.2,1.3c1,0.5,1.7,0.9,1.7,2c0,1.3-0.9,2-2.1,2
		c-0.9,0-1.4-0.2-1.8-0.3l0.1-0.9c0.2,0.2,1,0.5,1.6,0.5c0.8,0,1.3-0.6,1.3-1.2c0-0.7-0.4-1-1.3-1.4c-1.2-0.6-1.7-1-1.7-2
		c0-1.3,1.1-2,2.1-2c0.5,0,1,0.1,1.3,0.2L162.4,36z"/>
	<path d="M164.3,32.2h1v1.2h-1V32.2z M164.4,35h0.8v7.1h-0.8V35z"/>
	<path d="M171,36.1c-0.3-0.3-0.9-0.4-1.3-0.4c-1.1,0-2.1,0.7-2.1,2.6c0,2.6,1.4,3,2.2,3c0.3,0,1-0.1,1.2-0.4l0.1,0.9
		c-0.3,0.2-0.9,0.3-1.4,0.3c-1.5,0-2.9-1.2-2.9-3.6c0-2.2,1-3.7,2.9-3.7c0.6,0,1,0.1,1.3,0.3L171,36.1z"/>
	<path d="M175.2,36c-0.4-0.2-0.7-0.3-1.2-0.3c-0.8,0-1.2,0.6-1.2,1.1c0,0.7,0.2,0.8,1.2,1.3c1,0.5,1.7,0.9,1.7,2c0,1.3-0.9,2-2.1,2
		c-0.9,0-1.4-0.2-1.8-0.3l0.1-0.9c0.2,0.2,1,0.5,1.6,0.5c0.8,0,1.3-0.6,1.3-1.2c0-0.7-0.4-1-1.3-1.4c-1.2-0.6-1.7-1-1.7-2
		c0-1.3,1.1-2,2.1-2c0.5,0,1,0.1,1.3,0.2L175.2,36z"/>
	<path d="M83.8,49h0.9v6.1c0,1.5,0.3,2.9,2,2.9c1.8,0,2-1.6,2-2.9V49h0.9v6.1c0,1.9-0.6,3.7-2.9,3.7c-2.2,0-2.9-1.6-2.9-3.7V49z"/>
	<path d="M91.6,53.8c0-0.7,0-1.5-0.1-2.2h0.7c0,0.3,0,0.5,0.1,1h0c0.2-0.3,0.6-1.1,1.8-1.1c2,0,2,2,2,2.4v4.7h-0.8v-4.8
		c0-0.5,0-1.6-1.3-1.6c-1,0-1.6,0.9-1.6,2v4.4h-0.8V53.8z"/>
	<path d="M98,48.8h1v1.2h-1V48.8z M98,51.6h0.8v7.1H98V51.6z"/>
	<path d="M100,51.6h0.9l1.7,6.1h0l1.7-6.1h0.8l-2.1,7.1h-1L100,51.6z"/>
	<path d="M106.7,55.4c0,2.6,1.7,2.6,2,2.6c0.5,0,1.1-0.2,1.5-0.6l0,0.9c-0.3,0.2-0.8,0.4-1.6,0.4c-2.8,0-2.8-2.9-2.8-3.6
		c0-2.7,1.3-3.6,2.5-3.6c2,0,2.3,2.2,2.3,3.9H106.7z M109.7,54.7c0-1.9-0.8-2.4-1.4-2.4c-1.1,0-1.6,1.5-1.6,2.4H109.7z"/>
	<path d="M112.1,53.8c0-0.7,0-1.5-0.1-2.2h0.7c0,0.4,0,0.8,0.1,1.1h0c0.5-1,1.1-1.2,1.9-1.2v0.9c-1.3,0-1.9,0.6-1.9,1.9v4.4h-0.8
		V53.8z"/>
	<path d="M118.9,52.6c-0.4-0.2-0.7-0.3-1.2-0.3c-0.8,0-1.2,0.6-1.2,1.1c0,0.6,0.2,0.8,1.2,1.3c1,0.5,1.7,0.9,1.7,2
		c0,1.3-0.9,2-2.1,2c-0.9,0-1.4-0.2-1.8-0.3l0.1-0.9c0.2,0.2,1,0.5,1.6,0.5c0.8,0,1.3-0.6,1.3-1.2c0-0.7-0.4-1-1.3-1.4
		c-1.2-0.6-1.7-1-1.7-2c0-1.3,1.1-2,2.1-2c0.5,0,1,0.1,1.3,0.2L118.9,52.6z"/>
	<path d="M120.8,48.8h1v1.2h-1V48.8z M120.9,51.6h0.8v7.1h-0.8V51.6z"/>
	<path d="M124.8,50v1.7h1.4v0.7h-1.4V57c0,0.6,0.1,1.1,0.8,1.1c0.4,0,0.5-0.1,0.7-0.2v0.8c-0.2,0.1-0.6,0.1-0.9,0.1
		c-1,0-1.3-0.8-1.3-1.6v-4.8h-1.1v-0.7h1.1v-1.4L124.8,50z"/>
	<path d="M129.1,57.5L129.1,57.5l1.6-5.9h0.8l-2.3,8.4c-0.3,1-0.5,1.8-1.6,1.8c-0.2,0-0.3,0-0.5-0.1l0-0.8c0.1,0.1,0.4,0.2,0.6,0.2
		c0.4,0,0.6-0.4,0.7-0.8l0.4-1.3l-2.1-7.2h0.9L129.1,57.5z"/>
	<path d="M135.5,55.2c0-1.8,0.6-3.6,2.6-3.6c2.1,0,2.6,1.9,2.6,3.6c0,1.8-0.6,3.6-2.6,3.6C136.1,58.8,135.5,56.9,135.5,55.2z
		 M140,55.2c0-0.6,0-2.9-1.8-2.9c-1.8,0-1.8,2.3-1.8,2.9c0,0.6,0,2.9,1.8,2.9C140,58,140,55.7,140,55.2z"/>
	<path d="M142.7,52.4h-1.1v-0.7h1.1v-1.5c0-1.1,0.3-2,1.7-2c0.3,0,0.5,0,0.6,0.1V49c-0.1-0.1-0.4-0.1-0.6-0.1
		c-0.7,0-0.9,0.5-0.9,1.1v1.7h1.2v0.7h-1.2v6.3h-0.8V52.4z"/>
	<path d="M154.8,58.5c-0.3,0.1-0.8,0.3-1.6,0.3c-2.9,0-4.1-2.4-4.1-5c0-2.5,1.2-4.9,4.2-4.9c0.5,0,1.2,0.1,1.6,0.3l0,1
		c-0.3-0.2-1-0.5-1.6-0.5c-0.7,0-3.2,0.3-3.2,4.1c0,3.4,2,4.2,3.2,4.2c0.7,0,1.1-0.2,1.6-0.4L154.8,58.5z"/>
	<path d="M156.3,55.2c0-1.8,0.6-3.6,2.6-3.6c2.1,0,2.6,1.9,2.6,3.6c0,1.8-0.6,3.6-2.6,3.6C156.9,58.8,156.3,56.9,156.3,55.2z
		 M160.7,55.2c0-0.6,0-2.9-1.8-2.9c-1.8,0-1.8,2.3-1.8,2.9c0,0.6,0,2.9,1.8,2.9C160.7,58,160.7,55.7,160.7,55.2z"/>
	<path d="M163.1,48.3h0.8v10.4h-0.8V48.3z"/>
	<path d="M165.5,55.2c0-1.8,0.6-3.6,2.6-3.6c2.1,0,2.6,1.9,2.6,3.6c0,1.8-0.6,3.6-2.6,3.6C166.1,58.8,165.5,56.9,165.5,55.2z
		 M170,55.2c0-0.6,0-2.9-1.8-2.9c-1.8,0-1.8,2.3-1.8,2.9c0,0.6,0,2.9,1.8,2.9C170,58,170,55.7,170,55.2z"/>
	<path d="M174.3,51.5c0.9,0,1.4,0.4,1.9,1.1h0v-1h0.7c0,0.6-0.1,1.2-0.1,2.3v4.6c0,2-0.8,3.2-2.6,3.2c-0.8,0-1.1-0.1-2-0.4l0.1-0.9
		c0.7,0.4,1.5,0.5,1.9,0.5c1.7,0,1.9-1.6,1.9-2.3v-1h0c-0.4,0.7-0.9,1.1-1.8,1.1c-1.8,0-2.3-2-2.3-3.4
		C171.9,54.5,172,51.5,174.3,51.5z M174.4,58c1.3,0,1.7-1.2,1.7-3c0-1.4-0.4-2.8-1.7-2.8c-1.6,0-1.6,2.3-1.6,2.9
		C172.8,56.8,173.2,58,174.4,58z"/>
	<path d="M178.7,53.8c0-0.7,0-1.5-0.1-2.2h0.7c0,0.3,0,0.5,0.1,1h0c0.2-0.3,0.6-1.1,1.8-1.1c2,0,2,2,2,2.4v4.7h-0.8v-4.8
		c0-0.5,0-1.6-1.3-1.6c-1,0-1.6,0.9-1.6,2v4.4h-0.8V53.8z"/>
	<path d="M185.6,55.4c0,2.6,1.7,2.6,2,2.6c0.5,0,1.1-0.2,1.5-0.6l0,0.9c-0.3,0.2-0.8,0.4-1.6,0.4c-2.8,0-2.8-2.9-2.8-3.6
		c0-2.7,1.3-3.6,2.5-3.6c2,0,2.3,2.2,2.3,3.9H185.6z M188.7,54.7c0-1.9-0.8-2.4-1.4-2.4c-1.1,0-1.6,1.5-1.6,2.4H188.7z"/>
</g>
</svg>
