<?xml version="1.0" encoding="utf-8"?>
<!-- Generator: Adobe Illustrator 21.0.0, SVG Export Plug-In . SVG Version: 6.00 Build 0)  -->
<svg version="1.1" id="Layer_1" xmlns="http://www.w3.org/2000/svg" xmlns:xlink="http://www.w3.org/1999/xlink" x="0px" y="0px"
	 viewBox="0 0 147.4 79.4" style="enable-background:new 0 0 147.4 79.4;" xml:space="preserve">
<style type="text/css">
	.st0{clip-path:url(#SVGID_2_);fill:#FFFFFF;}
</style>
<g>
	<defs>
		<rect id="SVGID_1_" y="0" width="147.4" height="79.4"/>
	</defs>
	<clipPath id="SVGID_2_">
		<use xlink:href="#SVGID_1_"  style="overflow:visible;"/>
	</clipPath>
	<path class="st0" d="M97.9,59.4c0,0.5,0.4,1.6,1.9,1.9C99.8,59.9,98.6,59.5,97.9,59.4 M97.8,58.9c0.6,0,1.7-0.4,2.1-1.4
		C98.6,57.3,98,58.2,97.8,58.9 M93.6,57.6c0.8,0.9,2.6,2.3,3.6,1.4C96.4,57.5,94.5,57.4,93.6,57.6 M92.8,57.4
		c0.7-0.4,3.6-0.7,4.7,1.1c0.3-1.1,1.5-1.8,3-1.3c-0.1,1.1-1.1,1.8-1.8,2c1.1,0.2,1.7,1.4,1.6,2.7c-1.4,0-2.7-1-2.8-2.4
		C96,60.5,93.8,58.8,92.8,57.4 M91.6,56.8c2.5,2.5,5.5,4.5,8.9,5.7v-5.7H91.6z M93.3,31.2c0,0,0.1,0,0.2-0.1V31
		c-0.1,0-0.3-0.1-0.3-0.1s-0.1,0-0.1,0C93,31.1,93.3,31.2,93.3,31.2 M93.1,31.6c0,0-0.1,0-0.1,0.1c0.1,0.1,0.1,0.1,0.2,0.1
		c0,0,0.1,0,0.1-0.1v-0.1C93.2,31.6,93.1,31.6,93.1,31.6 M92.9,31.2C92.9,31.2,92.9,31.2,92.9,31.2c-0.1,0.1,0,0.3,0.1,0.3
		c0.1,0,0.3,0,0.3,0c0,0,0.2-0.1,0.2-0.1C93.3,31.3,93.1,31.4,92.9,31.2 M92.7,30c0,0-0.1,0-0.1,0v0.1c0.1,0,0.1,0,0.2,0
		c-0.1,0.1,0.1,0.2,0.2,0.2c0,0,0.1,0,0.2-0.1c0,0,0-0.1,0.1-0.1c0,0,0,0,0.1,0.1l0,0C93.4,30.2,92.9,30,92.7,30 M90.5,38.6
		c0,0,0.2-0.1,0.2-0.2c0-0.1-0.1-0.2-0.2-0.2c-0.1,0-0.2,0.1-0.2,0.2C90.3,38.5,90.4,38.6,90.5,38.6 M95.4,33.8c0.1,0,0.1,0,0.1-0.1
		c0-0.1-0.1-0.2-0.2-0.2c-0.1,0-0.2,0.1-0.2,0.2C95.3,33.7,95.4,33.8,95.4,33.8 M96.2,38.2c0,0,0.1-0.1,0.1-0.1c0,0,0,0,0-0.1h-0.1
		c0,0,0,0-0.1,0l-0.9,0c-0.2,0-0.3-0.1-0.5-0.1v0.1c0.1,0.1,0.3,0.2,0.4,0.2h1C96.1,38.3,96.2,38.2,96.2,38.2 M106.9,35.9
		c-0.1,0-0.2,0.1-0.2,0.2c0,0,0,0.2,0.2,0.2c0,0,0.2,0,0.2-0.2C107.1,36,106.9,35.9,106.9,35.9 M105.3,40.6c0,0-0.1,0.1-0.1,0.1
		s0.1,0.3,0.1,0.4c0,0.1,0.1,0.3,0.1,0.4c0,0.2,0,0.4,0.1,0.5c0,0.1,0,0.2,0.1,0.3c0,0.1,0,0.3,0,0.4l0.1,2.1v2c0,0-0.1,0.5-0.1,0.5
		c0,0,0,0.6,0,0.8c0,0.1,0,0.3,0,0.3c0,0,0,0.5,0,0.7c0,0.4,0,0.8,0.4,1.2c0,0,0.1,0.1,0.1,0.1c0,0,0.2-0.1,0.2-0.1
		c0-0.1-0.2-0.2-0.2-0.2c-0.1-0.2-0.1-0.6-0.1-0.6V49l-0.1-0.8c0,0,0.1-0.2,0.1-0.2v-2.1l0-2.6C105.8,42.6,105.8,41.5,105.3,40.6
		C105.4,40.6,105.3,40.6,105.3,40.6 M102.4,30.5L102.4,30.5l-0.1,0.2c0,0,0,0.4,0.1,0.5c0,0.1,0.1,0.2,0.1,0.2
		c0.1,0.1,0.2,0.2,0.3,0.3c0.1,0.1,0.1,0.2,0.2,0.3c0,0,0.3,0.1,0.3,0.1c0.1,0,0.4-0.1,0.4-0.2c-0.1,0-0.3,0.1-0.3,0.1
		c0,0-0.2-0.1-0.2-0.2c0-0.1,0-0.2-0.1-0.2c-0.1-0.1-0.3-0.2-0.4-0.3C102.5,31.1,102.5,30.8,102.4,30.5 M103,31.5c0,0,0.1,0,0.2-0.1
		c0.1,0,0.3,0,0.4-0.1l0,0h-0.3c0,0-0.1,0-0.2,0c-0.1,0-0.1,0.1-0.1,0.1C102.9,31.5,103,31.5,103,31.5 M103.3,31.5
		c0,0-0.2,0-0.2,0.1c0,0,0,0.1,0.1,0.1c0.1,0,0.1,0,0.2-0.1C103.3,31.7,103.3,31.6,103.3,31.5C103.4,31.6,103.3,31.5,103.3,31.5
		 M102.7,30.1c0,0,0.1,0,0.1,0c0-0.1-0.1-0.1-0.1-0.1c0,0-0.3,0-0.4,0.1c0,0-0.1,0.1-0.1,0.1c0.1,0,0.1,0,0.2,0c0,0,0,0.2,0.1,0.2
		c0.1,0,0.2-0.1,0.2-0.1C102.7,30.1,102.7,30.1,102.7,30.1C102.7,30.1,102.7,30.1,102.7,30.1 M103.2,30.8c-0.1,0.1-0.3,0-0.3,0.1
		c0,0,0,0,0,0.1c0.1,0,0.1,0,0.2,0c0,0,0.3-0.1,0.3-0.2c0,0-0.1-0.2-0.1-0.2l0,0C103.2,30.7,103.2,30.8,103.2,30.8 M103.6,30
		c0.1,0,0.2,0,0.2-0.1c-0.1,0-0.2,0-0.2,0c-0.1,0-0.5,0.1-0.5,0.2c0,0,0,0,0,0.1c0.1,0,0.2-0.1,0.2-0.1c0,0,0,0,0,0
		c0,0.2,0,0.2,0.1,0.2C103.6,30.2,103.7,30.2,103.6,30C103.7,30,103.6,30,103.6,30 M105,31.6c0.1,0,0.2-0.1,0.2-0.2
		c-0.2-0.2-0.4-0.4-0.5-0.6c-0.1-0.2-0.2-0.7-0.3-0.9V30c0,0.2,0.1,0.5,0.1,0.6c0,0.1,0,0.1-0.1,0.1c-0.1,0,0,0-0.2-0.1v-0.2
		c0-0.2-0.2-0.9-0.3-1c0,0,0,0.1,0,0.1c0,0,0.1,0.4,0.1,0.6c0,0.1,0,0.2,0,0.2v0.3c0,0.3,0.3,0.2,0.5,0.2
		C104.6,30.9,104.8,31.6,105,31.6 M108.4,23.5C108.4,23.5,108.4,23.5,108.4,23.5c0-0.1,0-0.1,0-0.1h0.8l1-1.4l-2.1,1.3
		c0,0,0,0-0.1,0v-0.1l0.5-1.1l-0.6-1.3v2.5h0c-0.1,0-0.2-0.1-0.3-0.1c-0.7-0.4-1.4-0.7-2-1.1l1,1.4h1.3l-2,1.4
		c0.5-0.1,1-0.1,1.4-0.3c0.3-0.2,0.4-0.7,0.6-1h0.1v2.6c0.2-0.5,0.5-1,0.7-1.5c0,0,0,0,0,0c0,0,0,0,0,0c0-0.1,0.1-0.1,0.1-0.2
		c0,0,0,0,0,0l1.6,0.2C109.8,24.3,109.1,23.9,108.4,23.5 M112.3,36.9c0,0,0-0.2-0.1-0.2c-0.1,0-0.2,0.2-0.2,0.3
		c0,0.1,0.1,0.1,0.2,0.1C112.2,37.1,112.3,37.1,112.3,36.9 M112.8,35.4c-0.1-0.1-0.2-0.3-0.2-0.4c0,0,0.1-0.1,0.2-0.2
		c0.1-0.1,0.1-0.3,0.1-0.4c0,0,0-0.4-0.2-0.4c0,0-0.1,0-0.1,0.1c0,0,0,0.1,0,0.3c0,0.1,0,0.2-0.1,0.3c-0.2,0.3-0.4,0.2-0.4,0.5
		c0,0.3,0.3,0.6,0.3,0.8c0,0,0,0.1,0,0.1c0,0.1,0,0.2,0.1,0.2c0.1,0,0.3-0.3,0.3-0.4C112.9,35.7,112.9,35.5,112.8,35.4 M113.5,34.8
		c0,0,0.1-0.1,0.1-0.2c0,0-0.1-0.1-0.1-0.1c0,0-0.6,0.3-0.6,0.4c0,0,0,0,0,0.1h0.1c0.1,0,0.2-0.1,0.2-0.1c0,0,0,0.2,0.2,0.2
		c0,0,0.1-0.1,0.1-0.1C113.6,34.9,113.6,34.8,113.5,34.8 M114.5,36.1c0.1-0.1,0.2-0.1,0.3-0.1v-0.1c-0.1,0-0.1,0-0.2,0
		c0,0-0.1,0-0.1,0c0,0-0.1,0-0.2,0.1c0,0-0.2,0.3-0.2,0.3c0,0,0,0.1,0.1,0.1c0,0,0.1,0,0.2-0.1C114.5,36.2,114.5,36.1,114.5,36.1
		 M114.7,36.3c0,0,0.1-0.1,0.1-0.2c0,0-0.1-0.1-0.1-0.1c-0.1,0.1-0.2,0.2-0.3,0.2l0,0H114.7z M115.9,40C115.9,40,116,39.9,115.9,40
		l0.1-0.1c0,0-0.1,0-0.1,0c0,0-0.1,0-0.1,0.1C115.8,39.9,115.9,40,115.9,40 M123,30.4C123,30.3,123,30.4,123,30.4
		c-0.1,0-0.4,0.2-0.4,0.2c0,0-0.1,0-0.2,0c0,0.1,0.2,0.2,0.3,0.2C122.7,30.7,123,30.5,123,30.4 M122.7,32c-0.1,0.1-0.2,0.1-0.3,0.1
		c0,0.1,0.1,0.1,0.2,0.1C122.6,32.1,122.7,32.1,122.7,32C122.7,31.9,122.7,32,122.7,32 M122.3,31.8c0,0-0.1,0.1-0.1,0.1
		c0,0,0.1,0,0.1,0c0,0,0.2,0,0.3,0c0,0,0.1,0,0.1,0c0.1,0,0.2,0,0.3-0.1c-0.1,0-0.3,0-0.3,0S122.4,31.7,122.3,31.8 M122.2,30.6
		l-0.1,0.9c0,0,0,0.1,0.1,0.1c0,0,0.1,0,0.1,0c0.1,0,0.1,0,0.2,0c0,0,0,0,0-0.1c0,0,0-0.1-0.1-0.1l0,0l0,0c-0.1,0-0.2,0-0.2,0
		c0,0,0,0,0-0.1c0,0,0.1-0.5,0.1-0.6C122.2,30.8,122.2,30.7,122.2,30.6 M121.8,30.6C121.7,30.6,121.7,30.7,121.8,30.6
		c-0.1,0.1,0.1,0.2,0.1,0.2c0.1,0,0.2-0.1,0.2-0.2c-0.1,0-0.2,0.1-0.2,0.1C121.8,30.7,121.8,30.6,121.8,30.6 M119,34.4
		c0,0-0.1,0-0.1,0.1l0,0C118.9,34.5,119,34.5,119,34.4C119,34.4,119,34.4,119,34.4 M118.7,34.2C118.7,34.2,118.7,34.3,118.7,34.2
		c0,0.1,0.1,0.1,0.1,0.1c0.1,0,0.1-0.1,0.2-0.1c0,0-0.1,0-0.1,0C118.9,34.2,118.8,34.2,118.7,34.2 M118.7,34c0.1,0,0.1-0.1,0.1-0.1
		c0-0.1-0.1-0.5-0.4-0.5c0,0-0.2,0-0.2,0.1c0,0,0.1,0.2,0.1,0.2c0,0,0.1,0,0.1-0.1C118.6,33.7,118.5,33.9,118.7,34
		C118.6,34,118.7,34,118.7,34 M119.2,33.1c0,0-0.4,0.1-0.4,0.2c0,0,0.1,0.2,0.2,0.2c0,0,0.2,0,0.2-0.1c0,0,0-0.1,0-0.1
		c0,0,0.1,0,0.1-0.1L119.2,33.1C119.2,33.1,119.2,33.1,119.2,33.1 M119.9,33.5c0,0,0.2-0.1,0.2-0.2c0-0.1-0.1-0.1-0.2-0.1
		c0,0,0,0,0,0v-0.3c0-0.1-0.2-0.4-0.2-0.5c0,0-0.1,0-0.2,0c-0.1,0-0.1,0-0.3,0.2v0.1c0.1,0,0.1,0,0.2,0c0.1,0,0.2,0.2,0.2,0.2v0.3
		C119.6,33.3,119.8,33.5,119.9,33.5 M122.7,27.2c0.1,0,0.1-0.1,0.1-0.1c0,0-0.1-0.3-0.2-0.3c0,0,0,0-0.1,0v0.1
		C122.6,27,122.6,27.1,122.7,27.2 M123.3,28c0,0.1,0,0.2-0.2,0.2c-0.1,0-0.2-0.1-0.2-0.2c0-0.1,0.2-0.2,0.3-0.3
		C123.3,27.9,123.3,27.9,123.3,28 M124.1,27.4C124.1,27.3,124.1,27.3,124.1,27.4c-0.1-0.1-0.2-0.1-0.2-0.1c0,0-0.3-0.1-0.3-0.1
		s-0.1,0-0.2,0c-0.1,0-0.1,0.1-0.2,0.1H123c-0.1-0.1-0.1-0.1-0.2-0.1c0,0-0.1,0-0.1,0.1c0.1,0.2,0.2,0,0.3,0.2
		c-0.2,0.1-0.3,0.3-0.3,0.5s0.1,0.4,0.4,0.4c0.4,0,0.5-0.4,0.5-0.6c0,0-0.1-0.2-0.1-0.3l0,0c0,0,0.1,0,0.2,0c0.1,0,0.2,0.1,0.2,0.1
		C124,27.6,124.1,27.5,124.1,27.4 M118.7,59.4c-0.7,0.1-1.9,0.5-1.9,1.9C118.4,61,118.7,59.9,118.7,59.4 M118.8,58.9
		c-0.2-0.7-0.8-1.6-2.1-1.4C117.1,58.5,118.2,58.9,118.8,58.9 M123,57.6c-0.9-0.2-2.8-0.1-3.6,1.4C120.4,59.9,122.2,58.5,123,57.6
		 M123.8,57.4c-1,1.4-3.3,3.1-4.7,2c-0.1,1.4-1.4,2.4-2.8,2.4c-0.1-1.3,0.5-2.4,1.6-2.7c-0.7-0.1-1.7-0.9-1.8-2
		c1.4-0.4,2.7,0.3,3,1.3C120.2,56.7,123.1,57,123.8,57.4 M125,56.8h-8.9v5.7C119.5,61.3,122.5,59.3,125,56.8 M117.9,51.6
		C117.9,51.5,117.9,51.5,117.9,51.6c0-0.1,0-0.2,0-0.2c-0.1,0-0.1,0.1-0.1,0.1C117.8,51.5,117.8,51.6,117.9,51.6L117.9,51.6z
		 M116.8,52.7c0,0-0.1,0.1-0.1,0.1c0,0,0,0.2,0.1,0.3c0,0,0.1,0.1,0.1,0.1c0.1,0,0.2,0.1,0.3,0.1c0.2,0,0.5-0.2,0.5-0.5
		c0.2-0.1,0.5-0.2,0.7-0.2l-0.2,0c0,0-0.1,0-0.1,0s-0.2,0-0.4,0c-0.1,0-0.1,0.1-0.2,0.1c0,0,0,0.3-0.1,0.3c-0.1,0-0.1-0.1-0.1-0.2
		c0-0.3,0.3-0.3,0.5-0.3c0,0,0.1,0,0.2,0c0.1,0,0.1-0.1,0.1-0.2c0-0.1,0-0.6-0.3-0.6c0,0-0.1,0-0.1,0v0.1c0,0,0.2,0.3,0.2,0.4
		c0,0,0,0,0,0h-0.1C117.3,52.2,117,52.2,116.8,52.7 M111.2,60.7c0,0.3,0.8,0.4,0.9,0.4c0.3,0,0.4,0,0.7,0c0,0,0.9-0.1,0.9-0.4
		c0-0.3-1-0.4-1.2-0.4C112.3,60.3,111.2,60.4,111.2,60.7 M111.6,58.6c-0.3-0.1-0.5-0.6-0.9-0.8c0.2,0.3,0.6,1.1,0.6,1.4v1.1
		c0.1-0.1,0.7-0.3,0.8-0.3h0.6c0.2,0,0.6,0.1,0.9,0.3v-1c0-0.4,0.4-1.2,0.6-1.5c-0.2,0.1-0.3,0.1-0.4,0.3c-0.1,0.2-0.4,0.5-0.6,0.5
		c0,0.1,0,0.4,0,0.4c0,0,0,0.3,0,0.5c0,0.1,0.1,0.3,0.1,0.3c0,0,0,0,0,0c-0.2-0.1-0.5-0.1-0.7-0.1c0.3-0.3,0.2-0.7,0.4-1.1
		c-0.6-0.4-0.3-1.1-0.5-1.6c0,0,0,0,0,0c0,0.1,0,0.1,0,0.2c0,0,0,0,0,0.1c0,0.1,0,0.1,0,0.1c0,0.4,0,0.9-0.4,1.2
		c0.2,0.3,0.2,0.8,0.4,1c-0.1,0-0.3,0-0.5,0.1c-0.1,0-0.2,0.1-0.2,0.1s0,0,0,0c0-0.1,0.2-0.5,0.2-0.7c0,0,0-0.2,0-0.4
		C111.7,58.6,111.6,58.6,111.6,58.6 M107.1,60.7c0,0.3,0.7,0.4,0.9,0.4c0.3,0,0.4,0,0.7,0c0,0,0.9-0.1,0.9-0.4
		c0-0.3-1.1-0.4-1.2-0.4C108.2,60.3,107.1,60.3,107.1,60.7 M107.6,58.6c-0.4,0-0.6-0.7-1-0.8c0.1,0.1,0.2,0.2,0.3,0.4
		c0,0,0.3,0.8,0.3,0.8c0,0,0.1,0.3,0.1,0.4v0.9c0.2-0.1,0.6-0.3,0.8-0.3h0.6c0.2,0,0.7,0.1,0.8,0.2v-0.9c0-0.5,0.3-1.1,0.6-1.6
		c-0.4,0.1-0.6,0.8-1,0.8c0,0.3,0,0.4,0,0.5c0,0.2,0,0.2,0.1,0.6c0,0.1,0.1,0.2,0.1,0.2s-0.2,0-0.4-0.1c-0.1,0-0.3,0-0.4,0
		c0.3-0.3,0.2-0.7,0.4-1v0c-0.5-0.5-0.3-1-0.5-1.6h-0.1c-0.1,0.5,0.1,1.1-0.5,1.6c0.1,0.3,0.1,0.7,0.4,1.1c-0.2,0-0.5,0-0.7,0.1
		c0,0,0,0,0,0c0.1-0.2,0.1-0.5,0.1-0.7V58.6z M102.9,60.7c0,0.3,0.8,0.4,0.9,0.4c0.3,0,0.4,0,0.7,0c0.2,0,0.5-0.1,0.7-0.2
		c0,0,0.2-0.1,0.2-0.2c0-0.3-1.1-0.4-1.2-0.4C104.1,60.3,102.9,60.3,102.9,60.7 M103.2,58.5c-0.3-0.2-0.5-0.6-0.8-0.7
		c0.3,0.4,0.6,1.1,0.6,1.5v1c0.1-0.1,0.6-0.3,0.8-0.3h0.6c0.2,0,0.7,0.1,0.8,0.3v-1.1c0,0,0.1-0.1,0.1-0.2c0-0.3,0.4-1.1,0.6-1.3
		c-0.2,0.1-0.3,0.2-0.5,0.3c-0.1,0.2-0.4,0.5-0.6,0.4c0,0.1,0,0.4,0,0.5c0,0.2,0.1,0.5,0.2,0.7c-0.1,0-0.3-0.1-0.5-0.1
		c-0.1,0-0.2,0-0.3,0c0.3-0.4,0.2-0.7,0.4-1.1c-0.6-0.4-0.3-1-0.5-1.5c0,0,0,0-0.1,0c-0.2,0.5,0,1.1-0.5,1.6c0.2,0.3,0.1,0.8,0.4,1
		c-0.1,0-0.3,0-0.5,0.1c-0.1,0-0.2,0.1-0.2,0.1c0,0,0,0,0,0c0.1-0.4,0.1-0.5,0.1-0.8c0,0,0-0.3,0-0.4
		C103.3,58.6,103.2,58.6,103.2,58.5 M103.8,66.5l1-1.3l-1.1-1.3l-1,1.3L103.8,66.5z M106.6,66.5l1-1.3l-1.1-1.3l-1,1.3L106.6,66.5z
		 M109,66.9l-1.1-1.3l-1,1.3l1.1,1.3L109,66.9z M109.4,66.5l1-1.3l-1.1-1.3l-1,1.3L109.4,66.5z M111.1,65.1l1.1,1.3l1-1.3l-1.1-1.3
		L111.1,65.1z M109.7,66.9l1.1,1.3l1-1.3l-1-1.3L109.7,66.9z M108.3,68.6l1.1,1.3l1-1.3l-1-1.3L108.3,68.6z M108,69.1l-1,1.2l1,1.4
		l1-1.3L108,69.1z M106.6,67.3l-1,1.3l1.1,1.3l1-1.3L106.6,67.3z M104.3,66.8l1.1,1.3l0.9-1.2l-1.1-1.3L104.3,66.8z M104.7,69.7
		c-0.1-0.1-0.2-0.3-0.3-0.4l0.6-0.8l-1.1-1.3l-0.5,0.7c-0.1-0.2-0.2-0.4-0.3-0.6l0.5-0.6l-0.8-1v-1.4l0.7-0.9l-0.6-0.8h0.7l0.3,0.4
		l0.3-0.4h0.7l-0.6,0.8l1.1,1.3l1-1.3l-0.6-0.8h0.7l0.3,0.4l0.3-0.4h0.7l-0.6,0.8l1.1,1.3l1-1.3l-0.6-0.8h0.7l0.3,0.4l0.3-0.4h0.6
		l-0.6,0.8l1.1,1.3l1-1.3l-0.6-0.8h0.7l0.3,0.4l0.3-0.4h0.7l-0.6,0.8l1.1,1.3l0.3-0.3V66l-0.3-0.4l-1,1.2l0.8,1
		c-0.1,0.2-0.2,0.4-0.3,0.5l-0.9-1.1l-1,1.3l0.9,1.1c-0.1,0.1-0.2,0.3-0.4,0.4l-0.9-1.1l-1,1.3l0.7,0.8c-0.2,0.1-0.3,0.2-0.5,0.3
		l-0.5-0.6l-1,1.2l0,0c0,0-0.1,0-0.1,0c-0.2,0-0.4-0.1-0.6-0.1l-1-1.3l-0.4,0.5c-0.1-0.1-0.2-0.2-0.4-0.3l0.4-0.5l-1.1-1.3
		L104.7,69.7z M102,56.4h12.5v5.7H102V56.4z M114.6,52.9c0,0,0,0.1,0,0.1c-0.3,0.1-0.5,0.5-0.6,0.7c-0.1,0-0.2,0.1-0.3,0.1
		c-0.1,0-0.5-0.2-0.5-0.3c0.2-0.2,0.3-0.5,0.4-0.6c0.1-0.1,0.1-0.3,0.2-0.4c0.1-0.2,0.1-0.3,0.2-0.5c0.1-0.2,0.1-0.4,0.2-0.6
		c0.1-0.4,0.2-1.2,0.2-1.3v-1.4c0,0,0-0.4-0.1-0.5c-0.1,0.1-0.1,0.2-0.1,0.3l0,1.6c-0.1,0.8-0.2,1.6-0.6,2.4
		c-0.1,0.3-0.2,0.7-0.6,0.9c-0.1,0.1-0.8,0.6-1,0.6c0,0-0.4-0.1-0.5-0.1c-0.1,0-0.2-0.2-0.2-0.3c-0.1-0.1-0.1-0.1-0.2-0.2
		c-0.3-0.4-0.4-0.8-0.5-1.1c-0.1-0.3-0.2-0.5-0.4-0.8c-0.1-0.2-0.4-0.5-0.6-0.6c0-0.1,0.2-0.1,0.3-0.1c1,0,1.2,1,2.1,1.1
		c0.1,0,0.2,0,0.3,0.1c0.1,0,0.1,0.1,0.2,0.1c0.1,0,0.1,0,0.1-0.1c0,0-0.1-0.2-0.2-0.2c-0.1-0.1-0.3-0.1-0.5-0.2c0,0-0.1,0-0.1,0
		c-0.1-0.1-0.2-0.1-0.3-0.2c-0.2-0.2-0.4-0.4-0.7-0.6c0,0,0-0.1,0.1-0.1c0.1,0.1,0.4,0.1,0.5,0.1c0,0,0.2,0,0.3,0
		c0.1-0.1,0.1-0.1,0.1-0.2c0-0.1,0-0.1-0.1-0.1c0,0-0.3,0.1-0.3,0.1c-0.1,0-0.2,0-0.3-0.1c-0.1-0.1-0.1-0.3-0.1-0.4
		c-0.1-0.2-0.4-0.5-0.4-0.7v-0.2l0.1-1c-0.1-0.2,0-0.4-0.1-0.6c-0.1-0.3-0.4-0.7-0.7-1c-0.1-0.1-0.1-0.3-0.2-0.5
		c-0.1-0.2-0.1-0.3-0.1-0.4c0-0.5,0.1-0.6,0.4-1.2c0.1-0.2,0.1-0.5,0.1-0.6c0-0.3-0.2-0.6-0.2-0.9c0-0.2,0-0.3,0-0.4
		c0,0.1,0.1,0.3,0.2,0.4c0.1,0.3,0.6,0.7,0.9,0.7c0.2,0,0.3,0,0.3,0c0.3,0,0.5-0.2,0.8-0.3c0.1,0,0.2-0.1,0.3-0.2
		c0.3-0.2,0.5-0.4,0.7-0.7c0.3,0.1,0.6,0.2,0.9,0.4c0,0.1,0,0.2,0,0.2c0,0-0.1,0.3-0.1,0.4c0,0.5-0.2,1-0.4,1.6
		c-0.1,0.3-0.3,0.7-0.5,1c0,0,0,0.1,0,0.1c0,0.1-0.1,0.2-0.1,0.2c0,0.1,0.1,0.1,0.1,0.1c0.1,0,0.1,0,0.2-0.1c0.2-0.3,0.4-0.6,0.6-1
		c0.1-0.3,0.3-0.5,0.4-0.8c0,0.3,0.1,0.8,0.1,0.9s0,0.3,0,0.5c0,0.2-0.1,0.3-0.1,0.5c0,0.1,0,0.2,0,0.3c0,0.1-0.1,0.3-0.1,0.4
		c-0.1,0.2-0.3,0.7-0.3,0.7c0,0.1,0.1,0.1,0.1,0.1c0,0,0.1,0,0.1,0c0.1-0.3,0.3-0.6,0.4-0.9c0.1-0.2,0.2-0.5,0.3-0.8
		c0.2,0,0.4,0.2,0.6,0.2c0.3,0.1,0.6,0.1,0.9,0.2c0.3,0.1,0.2,0.4,0.3,0.6c0,0,0,0,0,0.5c0,0.1-0.1,0.3-0.1,0.5
		c-0.1,0.2-0.1,0.4-0.2,0.6c-0.2,0.5-0.3,1-0.5,1.5c0,0,0,0.1,0,0.1c0,0.1,0,0.2-0.1,0.3c-0.1,0-0.3-0.2-0.4-0.2
		c-0.1,0-0.2,0-0.2,0.1c0,0,0.1,0.1,0.1,0.2c0,0,0.1,0.5,0.1,0.6c0,0,0,0.1,0,0.4c0,0.1-0.1,0.3-0.1,0.4
		C114.8,52.3,114.5,52.7,114.6,52.9 M115,52.7c0-0.2,0.3-0.6,0.3-1.4c0,0-0.1-0.3-0.1-0.5c0.1,0,0.2,0.1,0.2,0.2
		c0.1,0.2,0.1,0.4,0.2,0.6c0.1,0.1,0.2,0.3,0.3,0.4c-0.1,0.1-0.4,0.2-0.4,0.4c0,0.3,0.2,0.4,0.4,0.4c0.4,0,0.6-0.5,0.6-0.7
		c0,0,0-0.3-0.1-0.4c0,0-0.1-0.1-0.1-0.1c0.1,0,0.1,0,0.2,0s0.1,0,0.2,0c0,0,0.2-0.3,0.4-0.4c0.2-0.1,0.5-0.2,0.7-0.3v0.1
		c0,0-0.1,0.1-0.1,0.1c0,0.1,0.1,0.1,0.1,0.1c0.1,0,0.2-0.2,0.2-0.3c0-0.2-0.1-0.3-0.2-0.3c-0.1,0-0.8,0.3-0.8,0.3
		c0-0.1,0-0.2,0-0.3l0.1-1.5l0.2-1.4c0-0.1,0-0.3,0-0.4c0-0.2-0.2-0.8-0.2-1.1c0-0.7,0.9-1.3,1-1.9c0-0.1,0.1-0.2,0.1-0.2
		c0,0,0-0.1-0.1-0.1c-0.1,0.1-0.2,0.3-0.3,0.5c-0.2-0.4-0.3-0.4-0.3-0.7c0,0,0.1-0.3,0.1-0.4c0.1-0.1,0.6-0.7,0.8-0.7
		c0,0,0.3,0.1,0.5,0.2c-0.4,0.3-0.4,0.7-0.5,1.1c0,0.3-0.1,0.7-0.1,0.7v1.6l-0.1,1.1l-0.1,0.8c0,0,0,0,0,0.1c0,0,0,0.3,0,0.4
		c0,0.1,0,0.4,0,0.4c0,0-0.1,0.4-0.1,0.5v0.3c0,0,0,0.1,0.1,0.1c0.1,0,0.1-0.2,0.1-0.2c0-0.2,0.1-0.3,0.1-0.5c0-0.1,0-0.1,0-0.2
		c0-0.4,0.1-0.6,0.1-0.8c0-0.4,0-0.7,0-0.8c0,0,0,0,0-0.1l0.1-0.6v-2.3c0-0.2,0.2-0.9,0.3-1c0,0,0-0.1,0-0.1c0-0.1,0.2-0.2,0.2-0.2
		c0,0,0.2,0.1,0.3,0.1c0.3,0,0.6-0.2,0.6-0.5v-0.3c0.5-0.2,1-0.3,1.5-0.4c0.4-0.1,0.7-0.2,1.1-0.3c-0.1-0.1-0.2-0.1-0.3-0.1
		c0,0-0.3,0.1-0.5,0.1c-0.2,0-0.4,0.1-0.7,0.2c-0.4,0.1-0.7,0.1-1.1,0.2c0-0.1,0.1-0.2,0.2-0.3c0.1-0.1,0.3-0.2,0.5-0.3
		c0.3-0.2,0.6-0.4,0.9-0.4c0,0,0.1,0,0.1,0c0.1,0,0.3-0.1,0.4-0.1c0.3,0,1.3,0.9,1.5,1.1c0.1,0.1,0.3,0.1,0.4,0.1c0,0,0.1,0,0.1-0.1
		c0-0.1-0.3-0.1-0.3-0.2c-0.1-0.1-0.1-0.3-0.2-0.4c-0.2-0.3-0.5-0.5-0.8-0.8c0,0,0.1-0.1,0.2-0.1c0.5,0,0.7,0.1,0.7,0.1
		c0,0,0.1,0,0.2,0c0.1,0,0.3,0,0.4,0c1.3-0.4,2.3-2.1,2.3-3.2c0,0,0.1-0.1,0.1-0.1c0,0,0-0.2-0.1-0.2c0,0-0.2,0.1-0.2,0.1v0.3
		c0,0-0.2,0.7-0.4,1.1c-0.1,0.3-0.3,0.6-0.5,0.8c-0.2,0.2-0.4,0.3-0.7,0.5c-0.1,0.1-0.2,0.1-0.4,0.2c-0.3,0.1-0.7,0.2-1,0.2
		c-0.1,0-0.1,0-0.2,0h-0.3c0,0-0.1,0-0.2,0c0,0-0.2,0-0.4-0.1c0.3-0.1,0.8-0.4,1.1-0.8c0,0,0.1-0.1,0.1-0.2c0.2-0.3,0.3-0.6,0.3-0.8
		c0.1-0.3,0.1-0.7,0.2-1.1l0.1-1.2c0-0.3,0.1-0.6,0.1-0.8c0-0.2,0.2-0.6,0.2-0.7v-0.2l0,0c-0.2,0.2-0.2,0.4-0.3,0.6
		c-0.1,0.3-0.2,1.2-0.2,1.2v0.4c0,0,0,0.5-0.1,0.7c-0.1,0.5-0.4,0.9-0.6,1.4c-0.2,0.4-0.8,0.8-1.2,1.1c-0.1,0-0.2,0.1-0.3,0.1
		c-0.2,0-0.5-0.1-0.6-0.1c0.4-0.3,0.8-0.9,0.8-1.2c0-0.1,0-0.2,0-0.3h0.3c0.2,0,0.6-0.2,0.7-0.2c0,0,0.1,0,0.1,0
		c0.1,0,0.2-0.1,0.3-0.1c0,0,0.3-0.2,0.3-0.3c0-0.1-0.1-0.1-0.1-0.1c0,0-0.2,0.2-0.3,0.2c-0.1-0.1-0.1-0.3-0.2-0.4
		c-0.1-0.2-0.2-0.3-0.3-0.5c-0.1-0.4-0.4-1.1-0.4-1.5c0-0.6,0.4-1.1,0.7-1.8c0-0.1,0-0.2,0-0.2c0,0,0,0,0,0c0,0,0.2,0,0.2,0
		c0.3,0,0.8-0.3,1-0.6c0,0,0.2-0.2,0.2-0.3c0-0.1-0.1-0.1-0.1-0.1c-0.1,0-0.2,0.1-0.2,0.2c-0.1,0.2-0.6,0.5-0.9,0.5
		c0,0-0.3-0.1-0.3-0.1v-0.3c0-0.1,0.1-0.3,0.3-0.4v0.1c0,0.1-0.2,0.1-0.2,0.3c0,0.1,0.1,0.2,0.2,0.2c0,0,0.2-0.1,0.4-0.2
		c0.1-0.1,0.2-0.1,0.4-0.2c0.2-0.1,0.3-0.2,0.3-0.4c0-0.1-0.1-0.2-0.1-0.2c-0.2,0-0.1,0.3-0.2,0.4c-0.1,0.1-0.4,0.2-0.5,0.2
		c0-0.2-0.1-0.4-0.4-0.5c0.1-0.1,0.2-0.3,0.2-0.5c0.1-0.1,0.3-0.3,0.3-0.5c0,0,0-0.1,0-0.1c0.5,0.3,0.6,0.9,0.7,1.3
		c0,0.1,0.1,0.2,0.1,0.3c0.1,0.3,0.3,0.6,0.5,0.7c0.1,0.1,0.3,0.1,0.5,0.2c0,0,0,0.1,0.1,0.2c0.2,0.3,0.4,0.5,0.6,0.8
		c0.1,0.2,0.2,0.4,0.2,0.7c0,0.1,0.1,0.2,0.1,0.3c0,0.1,0,0.4,0,0.4l-0.1,0.7v0.3c0,0,0,0.6-0.1,0.9c0,0.3-0.1,0.8-0.1,0.8v0.8
		c0,0.4,0.3,0.6,0.3,0.7c0,0.2-0.3,0.5-0.3,0.6c0,0,0.2,0.5,0.2,0.8c0.1,0.3,0.1,0.6,0.1,0.8c0,0.3,0,0.4,0,0.7
		c0,0.2-0.1,0.3-0.1,0.5c0,0.2-0.1,0.3-0.2,0.5c-0.2,0.6-1.1,0.8-1.5,0.8c0,0-0.3,0-0.5,0c-0.1,0-0.2-0.1-0.3-0.1
		c-0.1,0-0.2-0.1-0.4-0.2c0,0-0.1,0-0.2,0c0,0-0.3,0.1-0.4,0.2c-0.2,0.1-0.5,0.1-0.7,0.1l-0.6,0c0,0-0.2,0-0.3,0
		c0-0.1-0.1-0.4-0.3-0.4h-0.1c0,0,0,0,0,0.1c0,0,0.2,0.1,0.2,0.3c0,0.1,0,0.1,0,0.2c0.1,0.2,0.2,0.1,0.4,0.2l3.3,0
		c0.5-0.1,1.2-0.1,1.6-0.7c0.1-0.2,0.3-0.4,0.4-0.6c0.2-0.3,0.3-0.7,0.4-1c0,0,0,0,0,0v-0.3c0,0,0.1-0.4,0.1-0.6l0.1-1.6v-2.7
		l-0.1-1.3v-0.4c0,0,0-0.3-0.1-0.6c0,0,0,0,0-0.1c-0.1-0.4-0.1-1.2-0.1-1.3c0,0,0-0.2,0-0.4c0-0.1,0.1-0.3,0.2-0.4
		c0.1-0.1,0.4-0.1,0.4-0.3c0-0.1-0.4-0.2-0.4-0.5c0-0.5,0.4-0.3,0.4-1.1V31c0,0,0.1-0.1,0-0.2v-2.4c0-0.1,0-0.1-0.1-0.2
		c0-0.2-0.3-0.2-0.4-0.3c-0.1,0-0.1-0.2-0.1-0.2c0-0.1,0.1-0.3,0.3-0.3c0,0,0.2,0.1,0.2,0.1c0,0,0.1,0,0.1-0.1
		c0-0.1-0.2-0.2-0.2-0.4c0-0.1,0.1-0.4,0.3-0.4c0.2,0,0.3,0.3,0.3,0.4c0,0-0.1,0.3-0.1,0.4c0,0.1,0.1,0.1,0.1,0.1
		c0,0,0.1-0.1,0.2-0.1c0.2,0,0.3,0.2,0.3,0.3c0,0.4-0.6,0.3-0.6,0.7v2c0,0.2,0.2,1.3,0.2,1.3c0,0.1,0.1,0.2,0.2,0.3
		c0.1,0.1,0.1,0.2,0.1,0.2v0.3c0,0-0.2,0.3-0.3,0.3c-0.1,0-0.2,0-0.2,0c0,0,0,0,0,0.1c0,0,0,0,0,0.1c0,0,0.1,0,0.1,0
		c0.1,0.1,0.2,0.1,0.2,0.2c0.1,0.2,0.2,0.4,0.2,0.6c0,0-0.1,0.6-0.1,0.9c-0.2,1.3-0.3,2.3-0.4,3.9l-0.1,2.1v1.3c0,0,0,0.2,0,0.3
		c0,0.7,0.2,1.4,0.4,2.2c0.3,0,0.3,0.3,0.3,0.5c0,0.2-0.1,0.5-0.4,0.5l-5,0l-2.6,0c-0.3,0-0.6-0.4-0.6-0.6c0-0.3,0.1-0.4,0.4-0.5
		c0,0,0,0,0.1,0c0-0.2-0.2-0.1-0.3-0.1c-0.3,0-0.6,0.4-0.6,0.6c0,0,0,0.1,0,0.1c0,0.3,0.1,0.5,0.4,0.7l-0.1,3.2c0,0-0.1,0-0.1,0
		c-0.4,0-0.4,0.4-0.4,0.6c0,0.3,0.1,0.4,0.4,0.6c0,0,0,0.1,0,0.3c0,0.5-0.2,1.2-0.3,1.7c-0.1,0.6-0.2,1.3-0.6,1.9
		c-0.1,0-0.2,0-0.3,0c-0.1,0-0.5-0.2-0.5-0.2c0,0,0.1-0.2,0.1-0.3c0-0.1,0.1-0.3,0.1-0.4c0.1-0.1,0.2-0.1,0.3-0.2
		c0,0-0.1-0.1-0.1-0.1c0,0,0.1-0.2,0.1-0.2c0.1-0.9,0.3-2.7,0.3-2.8v-0.3l0.1-1.1l0.1-2.7c0-0.1,0.1-0.3,0.1-0.3c0,0,0-0.1-0.1-0.2
		c-0.1,0-0.1,0-0.1,0.1c0,0.2-0.1,0.3-0.1,0.5c0,0.1,0,0.2,0,0.2c-0.1,0.3-0.1,0.5-0.1,0.8c0,0.1,0,0.2,0,0.2v1.1
		c0,0-0.1,0.3-0.1,0.4c0,0.8-0.3,1.9-0.2,2.8c0,0,0,0.1,0,0.2c0,0.3-0.1,0.6-0.2,0.9c-0.1,0.1-0.3,0.3-0.3,0.3c0,0,0,0.1,0,0.1
		c0.2,0,0.3,0,0.4,0c0,0,0,0.1,0,0.1c-0.3,0.1-0.7,0.3-1,0.5c-0.8,0.4-0.6,1-1.2,1c-0.2,0-0.3-0.1-0.4-0.2c0,0-0.1,0-0.1,0
		C115.7,53.8,115,53.2,115,52.7 M115.6,56.4h10.2c-2.7,3-6.2,5.4-10.2,6.7V56.4z M126.7,55.2h-6.2l-0.7-1.4c0.1-0.1,0.1-0.2,0.2-0.3
		l0.5,1.2c0,0,0,0,0,0h6.5C127,54.8,126.9,55.1,126.7,55.2 M127.1,54.4h-0.4c0,0-0.1,0-0.2,0h-5.9l0.1-4.3h7.9v2.3
		c0,0-0.5,0.9-0.8,1.4c-0.1,0.2-0.2,0.3-0.3,0.5C127.3,54.4,127.2,54.4,127.1,54.4 M120.9,48.8l0.1-3.2h7.6c0,0,0.1,0,0.1,0.1v3.1
		H120.9z M129.1,49.7h-8.7c-0.1,0-0.2-0.3-0.2-0.3c0-0.1,0.1-0.3,0.3-0.3h8.5c0,0,0.1,0.1,0.1,0.1c0,0.1,0.1,0.2,0.1,0.2
		C129.3,49.4,129.2,49.7,129.1,49.7 M126.1,33.2c0,0.1-0.1,0.1-0.2,0.1c-0.2,0-0.7-0.2-0.8-0.3c-0.2-0.2-0.4-0.5-0.3-0.7
		c0-0.1,0-0.1,0-0.2c0-0.1-0.1-0.2-0.1-0.3c-0.1-0.2-0.1-0.4-0.2-0.7c-0.1-0.2-0.3-0.3-0.5-0.4c-0.2-0.1-0.6-0.4-0.6-0.6
		c-0.1-0.3-0.2-0.7-0.5-0.8c-0.3-0.1-0.4-0.2-0.6-0.2c0,0-0.2,0-0.3,0.1c-0.1,0-0.1,0.1-0.3,0.2c0,0,0,0,0-0.1c0,0,0.1-0.1,0.1-0.1
		c0.1-0.1,0.3-0.1,0.5-0.2c0.1,0,0.2,0,0.2,0c0.3-0.1,0.7-0.1,1.1-0.1c0.8,0,1,0.3,1.7,1.2c0,0.1,0.1,0.1,0.2,0.2
		c0.2,0.3,0.3,0.3,0.3,0.6c0,0-0.1,0.4-0.1,0.4c0,0.4,0.2,0.5,0.4,0.9c0.1,0.1,0,0.3,0,0.4V33.2z M120.9,32.7c0-0.2-0.1-0.5-0.3-0.7
		c0.2-0.2,0.6-0.2,0.9-0.3c0.1,0.1,0.1,0.5,0.1,0.6c0,0,0,0.3-0.1,0.5c0,0.1-0.5,1.2-0.9,1.2c0,0-0.1,0-0.1-0.1c0,0,0.2-0.4,0.3-0.6
		C120.9,33,120.9,32.7,120.9,32.7 M125.8,28.5c0,0,0,0.1,0,0.3c0,0.1,0,0.3,0,0.4c0,0.1-0.1,0.2-0.1,0.3c-0.1,0.1,0,0.3-0.2,0.4
		c-0.1-0.1-0.2-0.1-0.2-0.2c-0.1-0.1-0.1-0.2-0.2-0.3c0-0.1-0.6-0.6-0.6-0.7c0,0,0-0.2,0-0.4c0-0.2,0.1-0.4,0.1-0.6c0,0,0,0,0,0
		c0-0.1,0.1-0.2,0.2-0.4c0-0.1,0.1-0.1,0.2-0.2c0,0,0.1-0.1,0.1-0.2c0-0.1-0.1-0.1-0.1-0.2h-0.2c0,0-0.6,0.2-0.6,0.4
		c0,0.1,0.1,0.1,0.1,0.1c0,0,0.2-0.1,0.3-0.1c-0.1,0.1-0.2,0.2-0.2,0.3c-0.1,0.3-0.3,0.6-0.3,0.9c0,0.2-0.2,0.4-0.4,0.4
		c-0.3,0-0.3,0-0.7,0c-0.2,0-0.3,0-0.5,0.1c-0.2,0.1-0.5,0.1-0.7,0.2c-0.1,0.1-0.3,0.1-0.4,0.1c-0.4,0-0.5-0.2-0.9-0.4
		c-0.2-0.1-0.4-0.2-0.6-0.3c0,0,0.1,0,0.1-0.1c0.1,0,0.2,0,0.3,0c0.4,0,0.3,0.2,0.6,0.2c0.2,0,0.2-0.2,0.4-0.3h0.1c0,0,0,0,0,0.1
		c0,0.2,0.5,0,0.5,0.3c0,0.1,0,0.1-0.1,0.1c-0.1,0-0.2-0.1-0.2-0.2h0c0,0.1-0.1,0.1-0.1,0.2c0,0.1,0.1,0.2,0.2,0.3
		c0.1,0,0.1,0,0.1,0c0.2,0,0.5-0.2,0.5-0.4c0,0,0-0.1,0-0.2c0-0.1-0.2-0.4-0.2-0.4c-0.1,0-0.1,0-0.2,0c0,0-0.2,0-0.2-0.1
		c0-0.2,0.3-0.2,0.3-0.3c0,0-0.1-0.3-0.1-0.4c0,0,0.1-0.7,0.2-0.7c0,0,0.1,0.1,0.2,0.1c0.1,0,0.1,0,0.1-0.1c0-0.2-0.3-0.3-0.4-0.3
		c-0.1,0-0.2,0.1-0.3,0.3c-0.1,0.2-0.2,0.3-0.2,0.5v0.3c0,0,0,0.3-0.1,0.4c0,0-0.1,0-0.1,0.1c0,0-0.1,0.1-0.1,0.2
		c-0.1,0.1-0.3,0.1-0.4,0.3c-0.1-0.1-0.3-0.2-0.4-0.2c0,0-0.9,0.1-0.9,0.4c0,0.1,0.1,0.2,0.2,0.2c0.2,0.1,0.3,0.1,0.5,0.2
		c0.3,0.2,0.6,0.4,0.8,0.6c0.3,0.3,0.2,0.7,0.5,1c0,0,0,0,0,0c0,0-0.1-0.3-0.1-0.3c0-0.1,0.2-0.5,0.3-0.6c0,0,0.1,0,0.2-0.1
		c0.1,0,0.1,0,0.2,0c0.4,0,0.8,0.2,0.8,0.6c0,0.1,0,0.1,0.1,0.2c0.1,0.1,0.2,0.3,0.3,0.5c0.1,0.1,0.4,0.2,0.4,0.4
		c0,0.2-0.1,0.3-0.2,0.5c0,0-0.1,0-0.1,0.1c-0.1,0.2-0.3,0.6-0.4,0.7c-0.1,0.1-0.3,0.1-0.3,0.1c-0.2,0-0.2-0.2-0.4-0.4
		c-0.1-0.2-0.3-0.3-0.4-0.5c-0.1-0.2,0-0.5-0.2-0.6c0,0,0,0.1-0.1,0.1c-0.1,0-0.1-0.1-0.2-0.2c-0.1,0-0.2-0.1-0.2-0.1h0c0,0,0,0,0,0
		c0,0,0.3,0.5,0.3,0.6v0.1c-0.3,0.1-0.7,0.2-1,0.4c0,0-0.1,0.1-0.1,0.1c0.1,0.1,0.4,0.6,0.4,0.8c0,0,0,0.2,0,0.3
		c-0.1,0.2-0.2,0.3-0.3,0.5c-0.1,0.1-0.1,0.2-0.2,0.2c0,0-0.1-0.1-0.1-0.1c0,0-0.1,0-0.1,0c0,0-0.1,0-0.1,0.1c0.1,0,0.2,0.2,0.2,0.2
		c0,0,0.1,0,0.1,0c0,0.1,0,0.2,0,0.2c0.1,0.1,0.2,0.1,0.3,0.1c0.1,0,0.2,0.2,0.2,0.3c0,0.1,0.1,0.1,0.2,0.2c0.2,0.3,0.4,0.7,0.4,1
		c0,0.1,0,0.1,0,0.2c0,0.1,0,0.3,0,0.4c0,0-0.1,0.4-0.1,0.4c0,0.3,0.2,0.4,0.3,0.7c0.1,0.1,0.1,0.4,0.1,0.4c0,0.1-0.1,0.4-0.1,0.4
		c0,0.1-0.1,0.2-0.2,0.2c-0.1,0.1-0.3,0.2-0.3,0.3c-0.1,0-0.5-0.1-0.5-0.1h-0.2c-0.3,0-0.2-0.4-0.6-0.4c-0.1,0-0.2,0.1-0.2,0.2
		c0,0.2,0.1,0.3,0.2,0.4c-0.4-0.2-0.4-0.7-0.7-0.7c0,0-0.1,0-0.2,0c0.2-0.5,0.8-0.7,1.1-0.9c0.1-0.1,0.1-0.3,0.1-0.4
		c0.1-0.1,0.2-0.3,0.3-0.4c0.1-0.1,0.1-0.4,0.1-0.4c0,0,0-0.1,0-0.1c0,0,0,0,0,0c-0.1,0-0.2,0.4-0.2,0.4c-0.1,0.1-0.2,0.2-0.3,0.4
		c-0.1,0.1,0,0.3-0.2,0.4c-0.4,0.3-0.9,0.4-1.1,0.8c0,0,0,0.1,0,0.2c-0.2,0.3-0.4,0.4-0.7,0.4c0,0-0.1,0-0.1,0c0,0-0.3-0.2-0.3-0.3
		c0-0.1,0-0.2,0.2-0.3c0,0,0-0.1,0-0.2c0,0,0-0.1,0.1-0.1h0.4c0,0,0,0,0.1,0c0.2,0,0.3-0.3,0.4-0.5c0.1-0.3,0.5-0.5,0.6-0.9
		c0-0.1,0-0.2,0-0.3c0.1-0.2,0.2-0.4,0.4-0.6c0,0,0,0-0.1,0c-0.2,0-0.4,0.4-0.5,0.5c0,0.1,0,0.3,0,0.4c0,0.2-0.3,0.4-0.4,0.5
		c-0.2,0.2-0.2,0.4-0.3,0.6c0,0.1-0.2,0.1-0.2,0.1H118c-0.1,0-0.3,0.2-0.3,0.3c0,0,0,0.1,0,0.1c-0.1,0-0.2,0.2-0.1,0.3
		c0,0,0,0-0.1,0c-0.1,0-0.2-0.1-0.2-0.2c0-0.2,0.1-0.2,0.2-0.4c0,0-0.1,0-0.1,0c-0.1-0.1-0.1-0.1-0.1-0.1c0-0.2,0.3-0.2,0.3-0.2
		c0.1,0,0.2-0.1,0.3-0.1c0.1-0.1,0.2-0.2,0.2-0.3c0-0.1,0.1-0.2,0.1-0.3c0.1-0.2,0.4-0.3,0.4-0.5c0-0.2,0-0.3,0-0.4
		c0-0.2,0.1-0.5,0.3-0.7c0.1,0,0.1,0,0.2-0.1c0.2-0.1,0.6-0.6,0.6-0.8c0-0.1,0-0.2-0.1-0.2c0,0-0.1,0-0.1,0
		c-0.1,0.4-0.2,0.6-0.5,0.6c0,0-0.2,0-0.3,0c-0.2-0.1-0.5-0.4-0.5-0.6c0,0,0.1-0.1,0.1-0.2c0,0,0-0.1-0.1-0.1
		c-0.1,0.1,0,0.2-0.2,0.2c-0.7,0-1.1-1.2-1.1-1.6c0-0.2,0.1-0.6,0.1-0.7c0.1,0,0.2,0.1,0.2,0.1c0.2,0.1,0.3,0.1,0.5,0.2
		c-0.1,0.2-0.2,0.4-0.2,0.6c0,0.3,0,0.5,0.4,0.5c0.2,0,0.2,0,0.3-0.1c0.1,0,0.1-0.2,0.2-0.2c0,0,0.1,0,0.1,0c0-0.1-0.1-0.1-0.1-0.1
		c-0.2,0-0.4,0.2-0.6,0.2c-0.2,0-0.2-0.2-0.2-0.3c0-0.3,0.2-0.6,0.3-0.8c-0.3-0.2-0.7-0.2-1-0.5c0.1-0.2,0.3-0.5,0.5-0.7
		c0.3,0.2,0.5,0.7,0.8,1c0.2-0.1,0.4-0.1,0.6-0.2c0.3,0,0.3,0,0.3,0c0.2,0,0.4,0,0.6,0.1c0.1,0,0.2,0.2,0.2,0.2
		c0.1,0,0.1-0.1,0.2-0.2c0,0,0.5-0.8,0.5-0.9c0-0.2-0.2-0.2-0.3-0.4c-0.1-0.1-0.2-0.1-0.3-0.1c-0.3-0.1-0.5-0.3-0.8-0.3
		c0,0-0.1-0.1-0.1-0.2c0,0-0.1-0.5-0.1-0.7c0,0,0-0.3,0-0.3c0-0.3,0.2-0.9,0.2-1c0.2-0.4,0.5-0.9,0.9-1.2c0.5-0.4,1-0.7,1.5-0.7
		c0.1,0,0.2,0,0.2,0c0.1,0,0.2,0,0.3,0c0,0,0.2,0,0.2,0c0.2,0,0.9,0.2,1,0.2c0.3,0.1,0.7,0.2,1,0.5c0.5,0.4,0.7,0.8,0.9,1.2
		C125.7,27.6,125.8,28.2,125.8,28.5 M119.3,30c0,0,0.3,0,0.5,0.1c0.2,0,0.3,0.2,0.5,0.2c0.1,0,0.4,0.2,0.4,0.3
		c0,0.1-0.5,0.8-0.5,0.8c-0.3-0.1-0.5-0.2-0.7-0.2c-0.2,0-0.2,0-0.3,0c-0.2,0-0.4,0.1-0.7,0.1l-0.6-0.9
		C118.3,30.1,118.9,30,119.3,30 M120.2,38.9c0-0.1-0.2-0.2-0.2-0.2c-0.1-0.1-0.1-0.2-0.2-0.3c0,0,0,0,0.1,0c0.1,0,0.1,0.2,0.5,0.4
		c0.1,0.1,0.3,0,0.5,0c0.2,0,0.4,0.2,0.6,0.3c0,0,0,0,0,0c-0.3,0.3-0.7,0.4-1,0.4c-0.1,0-0.2,0-0.3,0c-0.6,0-1-0.9-1.1-1.3
		c0,0,0,0,0.1,0c0.2,0,0.2,0.5,0.7,0.7c0.1,0,0.2,0.1,0.2,0.1C120.1,39.1,120.2,39,120.2,38.9 M119.8,42.1c0,0,0,0.3,0,0.3
		c0,0.2-0.1,0.5-0.3,0.5c-0.3,0-0.8-0.5-1.1-0.5c0,0-0.2,0.1-0.3,0.1c-0.1,0-0.3-0.1-0.3-0.2c0-0.1,0.2-0.2,0.2-0.2
		c0.1,0,0.1,0.1,0.2,0.1c0,0,0.3-0.1,0.3-0.1h0.2c0,0,0.2,0,0.2,0c0.1,0,0.2-0.1,0.2-0.2c0-0.2-0.1-0.5-0.1-0.8l0-0.6
		c0-0.3-0.2-0.3-0.2-0.5c0-0.1,0.3-0.5,0.4-0.5c0,0,0.2,0.2,0.3,0.2c0.1,0.1,0.3,0.1,0.5,0.1l0.4,0c-0.1,0.4-0.6,0.4-0.6,0.7
		c0,0,0.1,0.5,0.1,0.5C120.1,41.4,119.8,42,119.8,42.1 M117.5,39.5c0,0.2-0.8,0.3-0.8,0.3h-0.4c-0.1,0-0.1,0.1-0.1,0.1
		c0,0.1,0.3,0.1,0.3,0.1c0.3,0,0.6-0.1,0.9-0.1c0.1,0,0.2-0.1,0.2-0.2c0,0.2-0.3,0.6-0.5,0.8c-0.1,0.1-0.2,0-0.3,0.1
		c0,0.1,0,0.2,0,0.3v0.3c0,0,0,0.1,0,0.2c-0.2,0.1-0.2,0.3-0.4,0.4c-0.1,0-0.2,0-0.2,0.1c0,0.1,0.2,0.1,0.2,0.1
		c0.2,0,0.5-0.2,0.4-0.4h0.1c0,0,0.1,0.1,0.1,0.1c0,0.2-0.2,0.2-0.3,0.4c0,0,0,0-0.1,0c0,0,0.1,0.1,0.2,0.1c0.1,0,0.7-0.2,0.7-0.4
		c0-0.1-0.2-0.2-0.2-0.3c0-0.1,0.1-0.2,0.1-0.2c0.1,0,0.1,0.1,0.2,0.2c0.1,0.1,0.3,0.1,0.4,0.1c0.2,0,0.3,0,0.5-0.2
		c0,0,0.1-0.1,0.1-0.1c0,0-0.1-0.6-0.1-0.6s0.1-0.4,0.1-0.5c0-0.2-0.2-0.3-0.2-0.5c0-0.2,0.4-0.6,0.5-0.7c0.1-0.1,0.1-0.2,0.2-0.2
		c0.1,0.2,0.3,0.4,0.3,0.5c0,0-0.2,0.2-0.2,0.2c-0.1,0.1-0.2,0.3-0.3,0.4c0,0-0.1,0.1-0.1,0.1c0,0.1,0.2,0.4,0.2,0.6
		c0,0,0,0.4,0,0.5s0.1,0.7,0.1,0.7c0,0.1-0.1,0.3-0.3,0.3c-0.2,0-0.3,0-0.3,0s-0.3-0.1-0.3-0.1c0,0-0.3,0.1-0.3,0.1
		c0,0-0.2,0-0.3-0.1c0,0-0.1,0.1-0.1,0.1c-0.1,0.2-0.3,0.4-0.5,0.5c-0.1,0-0.2,0-0.3,0.1l-1.2-0.1v-0.1c0-0.2,0.2-0.7,0.3-0.8
		c0.1-0.1,0.3-0.2,0.5-0.3c0-0.1,0-0.2,0-0.2c0,0,0-0.2,0-0.2c0-0.1,0-0.2,0-0.3c0-0.2-0.2-0.2-0.4-0.3c-0.1-0.1-0.3-0.3-0.4-0.4
		c0-0.1-0.1-0.3-0.1-0.3c0,0,0-0.2,0.1-0.2c0.1-0.1,0.2-0.2,0.4-0.2c0.2,0,0.4-0.1,0.6-0.1C116.6,39.1,117.5,39.2,117.5,39.5
		 M114,39.5v-0.7c0-0.4-0.4-1-0.7-1.4h0.1c0,0,0.2,0,0.3,0c0.3,0.1,0.6,0.5,0.7,0.8c0.1,0.2,0.2,0.6,0.2,0.9v0.8l-0.1,0.5
		c0,0.3,0,0.4,0,0.5c-0.2-0.1-0.5-0.4-0.8-0.5c0,0,0,0,0-0.1c0,0,0.1-0.2,0.2-0.3C113.9,40,114,39.6,114,39.5 M115.4,36.6
		C115.4,36.6,115.4,36.7,115.4,36.6c-0.1,0.1-0.2,0.1-0.3,0.2c-0.1,0.1-0.1,0.2-0.1,0.3c0,0.1,0,0.1,0,0.2c-0.1,0.1-0.2,0.1-0.4,0.1
		c-0.1,0-0.2,0-0.3-0.1c-0.1,0-0.2-0.1-0.3-0.2c0,0,0-0.1,0-0.1c0,0,0-0.4,0-0.4c0-0.1-0.1-0.2-0.2-0.2c-0.2,0-0.1,0.1-0.5,0.1
		c-0.2-0.2,0-0.4-0.2-0.5c0,0,0,0-0.1,0c0,0.1,0,0.3,0,0.3c0,0.2-0.1,0.5,0.2,0.5c0,0,0.4-0.2,0.4-0.2h0.1c0,0.3-0.1,0.5-0.1,0.7
		c-0.3-0.1-0.5-0.2-0.8-0.3c-0.1,0-0.3-0.2-0.3-0.2c-0.1,0-0.1,0.1-0.1,0.1c0,0,0.1,0.1,0.2,0.2c0,0,0.1,0,0.1,0
		c0.1,0.1,0.2,0.2,0.3,0.3c0.4,0.5,0.7,0.9,0.7,1.4c0,0,0,0,0,0.5c0,0.2-0.1,0.5-0.2,0.8c-0.2-0.2-0.2-0.5-0.3-0.7
		c-0.1-0.2-0.2-0.3-0.2-0.5c-0.1-0.2-0.2-0.4-0.3-0.5c-0.1-0.2-0.2-0.4-0.3-0.6c0,0-0.3-0.4-0.4-0.4c0,0-0.1,0-0.1,0
		c0.5,0.6,0.9,1.4,1.1,2c0.1,0.3,0.2,0.9,0.2,0.9c0,0-0.2,0.3-0.2,0.5c0,0.1,0.1,0.1,0.1,0.1c0.2,0,0.2-0.3,0.3-0.3
		c0.1,0,0.2,0.2,0.3,0.2c0.2,0,0.4,0.3,0.6,0.4c0.2,0.1,0.4,0.2,0.6,0.3c0.2,0,0.4,0,0.6,0c-0.1,0.1-0.2,0.1-0.2,0.2
		c0,0.1-0.3,0.8-0.3,1v0.4c0,0,0,0,0,0c0,0,0.2,0.4,0.3,0.4c0.1,0,0.4-0.3,0.4-0.4c0,0,0-0.1,0-0.1c0,0,0-0.1,0-0.1h0.2
		c0,0-0.1,0-0.1,0.1v0.3c0,0.3-0.4,0.4-0.5,0.4c-0.2,0-0.4-0.2-0.5-0.5c-0.1-0.2-0.5-0.5-0.7-0.6c-0.3-0.2-0.6-0.3-0.9-0.5
		c-0.4-0.2-0.8-0.3-1.2-0.5c-0.1-0.1-0.2-0.2-0.2-0.3c-0.1-0.1-0.1-0.3-0.1-0.4c-0.3-0.7-0.6-1.6-1.1-2l0,0c0.1,0.3,0.3,0.5,0.4,0.8
		c0.2,0.4,0.3,0.7,0.4,1.1c0.1,0.3,0.1,0.8,0.5,1.1c-0.1,0.2-0.6,0.4-0.8,0.4c-0.2,0-0.3-0.1-0.5-0.4c0,0,0,0-0.1,0
		c-0.1,0-0.2,0.1-0.2,0.2c0,0.1,0.2,0.2,0.2,0.3c0,0,0,0.1,0.1,0.1c0.2,0.2,0.3,0.2,0.5,0.2c0,0,0.2,0,0.3-0.1
		c0.2-0.1,0.5-0.6,0.6-0.6c0,0,0.2,0.1,0.4,0.1c-0.4,0.7-1,1.1-1.6,1.1c-0.4,0-0.7-0.2-0.9-0.8c0,0,0-0.4,0-0.4
		c0.1-0.3,0.3-0.6,0.3-0.6c0-0.1-0.3-0.8-0.3-0.9c-0.1-0.3-0.1-0.6-0.2-0.8v-1.4c0-0.2,0.1-0.4,0.1-0.6c0-0.1,0.3-0.4,0.4-0.4
		c0,0,0.1-0.1,0.1-0.1c0,0,1.3-0.5,1.3-0.8c0-0.1-0.2-0.1-0.3-0.1c0,0,0,0-0.1-0.1c0.1-0.1,0.2-0.3,0.2-0.4c0,0,0-0.2-0.1-0.3
		c-0.1-0.3-0.4-0.3-0.5-0.4c-0.2-0.1-0.4-0.4-0.4-0.6c0-0.2,0.2-0.5,0.3-0.7c0.4-0.7,1.1-0.9,1.7-0.9c0.1,0,0.5,0,0.5,0.2
		c0,0.2-0.6,0.3-0.6,0.3c0,0,0,0,0,0c0,0,0,0,0,0h0.2c0,0,0.2,0,0.3-0.1c0.2-0.1,0.4-0.3,0.4-0.5c0,0,0-0.1,0.1-0.1
		c0.1,0,0.2,0.2,0.2,0.4c0,0,0,0.2-0.1,0.2c0,0.1-0.1,0.1-0.1,0.2c0,0.1,0.5,0.5,0.5,0.6c0,0,0,0.1,0,0.1c-0.1,0-0.1,0-0.2,0
		c-0.1,0.1-0.2,0.3-0.2,0.3c0,0.5,0.8,0.5,0.8,0.7c0,0.1-0.2,0.2-0.2,0.3c0,0,0,0.1,0.1,0.1c0.1,0,0.2-0.2,0.3-0.3
		c0.2,0.1,0.2,0.3,0.3,0.5c0,0.1,0.1,0.2,0.1,0.3C115.2,36.4,115.4,36.5,115.4,36.6 M114.5,35c-0.2,0-0.6-0.2-0.6-0.4
		c0,0,0.1,0,0.1,0s0.1-0.1,0.1-0.1C114.3,34.6,114.5,35,114.5,35 M109.7,23.3C109.7,23.4,109.7,23.4,109.7,23.3
		c0.5,0.5,1,1.1,1.5,1.6l-2-0.1c0,0-0.1,0-0.1,0c-0.3,0.6-0.7,1.2-1,1.9c-0.3-0.5-0.5-1.1-0.7-1.7c0,0,0,0-0.1,0l-1.8,0.3
		c0,0,0,0,0-0.1l0.9-1.8l-1.2-1.6c0,0,0.1-0.1,0.1-0.1l1.9,0.3c0,0,0.1,0,0.1,0c0.2-0.4,0.5-1.3,0.5-1.4c0,0,0-0.1,0-0.1
		c0.1-0.2,0.1-0.3,0.2-0.5c0,0,0,0,0.1,0c0.3,0.6,0.6,1.2,0.9,1.7c0,0.1,0.1,0.1,0.1,0.2l1.8-0.3L109.7,23.3z M105.2,30.5
		c0.2,0.2,0.4,0.3,0.6,0.5v0.2c0,0.1-0.4,0.4-0.5,0.4c0,0,0,0.1-0.1,0.1c0,0-0.1,0.1-0.1,0.1s-0.3-0.1-0.3-0.1c0,0-0.1,0-0.1,0
		c-0.3,0-0.3-0.4-0.4-0.6c-0.1,0.1-0.1,0.3-0.1,0.4c-0.1,0.3-0.1,0.2-0.1,0.4c0,0.1,0,0.2,0.1,0.4c-0.1,0.1-0.5,0.4-0.6,0.4
		c-0.2,0-0.5-0.1-0.8-0.2c0.1-0.2,0.1-0.2,0.1-0.3c0-0.1,0-0.3-0.1-0.3c0,0-0.1,0-0.1,0c0,0-0.6-0.2-0.6-0.4c0-0.1,0.3-0.5,0.3-0.8
		c0-0.3-0.2-0.7-0.2-0.9c0,0,0-0.2,0.1-0.3c0-0.1,0.1-0.1,0.2-0.1c0.3-0.2,1.1-0.3,1.5-0.3c0,0,0.5,0.1,0.7,0.1
		c0.4,0.3,0.4,0.8,0.6,1.2C105.1,30.3,105.1,30.4,105.2,30.5 M105,27.2c-0.2,0.3-0.6,1-0.6,1.3c0,0,0,0.1,0.1,0.2c0,0,0,0-0.1,0
		c0,0-0.5-0.1-0.7-0.1c-0.5,0-1.2,0.2-1.7,0.5c-0.2-0.6-0.9-1-1.1-1.3c0,0,0.2-0.1,0.3-0.1c0.2,0,0.6,0.4,0.8,0.4c0,0,0.2,0,0.3-0.1
		c0,0,0,0,0,0.1c0,0-0.2,0.2-0.2,0.3c0,0.2,0.2,0.3,0.4,0.3c0.3,0,0.4-0.2,0.4-0.4c0-0.3-0.1-0.4-0.4-0.7c0-0.1,0.2-0.2,0.3-0.2
		c0-0.3,0-0.5,0.1-0.8c0,0,0-0.1,0-0.1c0,0,0.1-0.1,0.1-0.1c0.1,0,0.3,0.4,0.3,0.4c0,0.1,0,0.2,0.1,0.3c0.1,0.1,0.3,0.1,0.5,0.2
		c-0.1,0.1-0.2,0.1-0.2,0.2c-0.1,0.2-0.2,0.3-0.2,0.5c0,0.2,0.2,0.4,0.3,0.4c0.3,0,0.4-0.6,0.4-0.7c0-0.1,0-0.2,0.1-0.3
		C104.3,27.3,104.8,27.1,105,27.2C105,27.1,105,27.2,105,27.2 M106.2,52.9c-0.1,0.1-0.2,0.2-0.3,0.3c-0.2,0.1-0.5,0.4-0.8,0.6
		c-0.1,0-0.1,0.2-0.2,0.2c-0.1,0.1-0.3,0.3-0.4,0.4c-0.1,0.1-0.8,0.2-0.9,0.2c-0.1,0-0.3-0.1-0.3-0.1c0,0,0-0.1,0.1-0.1h0.2
		c0,0,0.1-0.1,0.2-0.1c0.1-0.1,0.1-0.2,0.2-0.3c0,0,0.1,0,0.1,0c0.1,0,0.2-0.1,0.2-0.1c0.2-0.2,0.4-0.5,0.5-0.8
		c0.1-0.2,0.3-0.3,0.4-0.5c0.1-0.2,0.1-0.4,0.2-0.6c0.3-0.1,0.5,0.2,0.8,0.2c0.1,0,0.2-0.1,0.3-0.1c0.1,0.3,0.3,0.9,0.3,0.9
		c0,0,0,0.1-0.1,0.2c-0.1,0-0.3-0.2-0.4-0.2C106.4,52.9,106.3,52.9,106.2,52.9 M109.3,51.2c0.1,0,0.4,0.3,0.4,0.5
		c0.1,0.2,0.2,0.3,0.3,0.4c0.1,0.3,0.2,0.7,0.4,1c0.1,0.2,0.3,0.4,0.5,0.7c-0.3,0-0.6-0.1-0.9-0.1c-0.3,0-0.4,0-0.4,0
		c-0.5,0-1,0.1-1.5,0.2c-0.4,0.1-0.8,0.3-1.2,0.3c-0.3,0-0.5-0.1-0.5-0.4c0,0,0-0.2,0.1-0.2c0.2,0.3,0.3,0.5,0.6,0.5
		c0.3,0,0.4-0.3,0.4-0.5c0,0,0-0.1,0-0.3c0-0.1-0.1-0.3-0.1-0.5c0-0.1-0.1-0.2-0.2-0.3c0-0.1-0.1-0.1-0.1-0.2
		c-0.1-0.3-0.3-0.6-0.5-0.9l1.2,0c0.1,0,0.9-0.2,0.9-0.2C108.7,51,109.1,51.1,109.3,51.2 M110.3,31.2
		C110.3,31.3,110.2,31.3,110.3,31.2c0,0.2-0.2,0.3-0.3,0.3c-0.5,0.2-1.2,0.7-1.4,1.3c-0.1,0.2-0.4,0.4-0.5,0.6
		c-0.1,0.2-0.1,0.5-0.1,0.7l0.1,1.7c0,0.4-0.1,0.7-0.1,1.1c-0.2,0.8-1,1.6-1.7,1.6c-0.1,0-0.4-0.1-0.5-0.3c0.2,0,0.4-0.1,0.5-0.1
		c0.1-0.1,0.3-0.1,0.4-0.2c0.3-0.2,0.5-0.4,0.6-0.6c0,0,0-0.1,0.1-0.2c0.2-0.3,0.3-0.6,0.4-0.9c0.1-0.3,0.1-0.9,0.1-0.9v-2.9
		c0-0.3,0.2-1.1,0.3-1.3c0.1-0.1,0.2-0.2,0.3-0.2c0.4-0.2,0.7-0.4,1.1-0.6c0.1,0.3,0.1,1,0.5,1c0.2,0,0.3,0,0.3-0.3c0,0,0-0.2,0-0.3
		c0,0,0-0.1,0.1-0.1c0,0.1,0.1,0.2,0.1,0.3V31.2z M110.3,28.7c0,0-0.1-0.5-0.1-0.6c0-0.1,0.1-0.3,0.1-0.3c0.1,0,0.1,0.2,0.1,0.3
		c0,0.1,0.1,0.2,0.1,0.3c0,0.1,0.3,0.5,0.3,0.6c0,0,0,0.2,0,0.2c-0.1,0.2,0,0.4-0.1,0.6c-0.2,0.3-0.6,0.6-0.8,0.9
		c-0.2-0.1-0.2-0.4-0.2-0.6c0,0,0.1-0.6,0.1-0.6c0-0.2-0.1-0.4-0.3-0.6c0,0,0,0,0.1,0c0.4,0,0.3,0.1,0.5,0.4c0,0,0,0,0,0
		c0,0-0.1-0.3-0.1-0.3c0,0,0-0.1,0.1-0.2L110.3,28.7C110.3,28.8,110.3,28.8,110.3,28.7 M101.1,38.7c0,0.2-0.1,0.4-0.1,0.6
		c0,0.2-0.1,0.6-0.3,0.8c0,0,0,0,0-0.1c0-0.1-0.3-0.2-0.3-0.5c0,0,0-0.4,0.1-0.5c0-0.1,0.1-0.1,0.2-0.1c0.2-0.1,0.4-0.4,0.4-0.5
		c0-0.2-0.1-0.5-0.4-0.5v-0.1c0,0,0,0,0-0.1c0-0.2,0.2-0.5,0.4-0.6C101,37.2,101.1,37.3,101.1,38.7 M101.2,36.5
		c-0.1,0.1-0.4,0.2-0.5,0.4c-0.1,0.1-0.1,0.2-0.2,0.3c0,0.1-0.1,0.4-0.1,0.4V38c0.2,0.1,0.4,0.1,0.4,0.3c0,0,0,0.1,0,0.1
		c0,0.1-0.1,0.2-0.2,0.3c0,0-0.1,0-0.1,0c-0.1,0.1-0.2,0.1-0.3,0.1c0,0,0,0.1,0,0.2c0,0.3,0,0.5,0,0.6c0,0.2,0,0.3,0.2,0.5
		c-0.2,0-0.7,0.1-0.7,0.1c-0.1,0-0.4-0.1-0.4-0.2c0.1-0.1,0.3-0.2,0.4-0.4c0.1-0.1,0.1-0.2,0.1-0.3c0-0.2,0.1-0.5,0.1-0.6
		c0-0.1-0.2-0.1-0.2-0.2c-0.1-0.1-0.1-0.2-0.1-0.3c0,0,0-0.2,0.1-0.3c0-0.1,0.3-0.1,0.3-0.1c0,0,0.1,0,0.2,0.1
		c0-0.3,0.1-0.6,0.1-0.9c0,0,0-0.3-0.1-0.3c0,0,0,0,0,0c0-0.1-0.1-0.3-0.2-0.4c0.1-0.1,0.2-0.2,0.3-0.3c0.1-0.1,0.2-0.2,0.3-0.3
		c0.1-0.2,0.2-0.4,0.3-0.6h0.1c0,0,0,0.1,0,0.6C100.9,36,101,36.3,101.2,36.5 M101.3,34.8L101.3,34.8c-0.1,0.1-0.1,0.1-0.1,0.2
		C101.3,35,101.2,34.9,101.3,34.8L101.3,34.8l0-0.1c0,0-0.1,0.1-0.1,0.1c-0.1,0-0.2-0.1-0.2-0.2c0-0.1,0-0.1,0.1-0.2
		c0,0,0-0.1-0.1-0.1h0.1c0,0,0.2,0.1,0.2,0.2c0,0,0,0.1,0,0.2C101.4,34.7,101.3,34.8,101.3,34.8 M100.5,33.5c0.3-0.2,0.7-0.2,1-0.3
		c0.1,0,0.4-0.1,0.4-0.1c0,0,0.1,0.1,0.2,0.1c0.2,0.1,0.4,0.1,0.6,0.1c0.5,0,1.1-0.4,1.5-0.4c0,0,0.1,0,0.1,0v0.1
		c0,0-0.1,0.1-0.1,0.2c-0.3,0.4-0.6,0.5-0.9,0.5c-0.1,0-0.4-0.1-0.4-0.1c0,0-0.1-0.1-0.2-0.1c-0.1,0-0.2,0.1-0.2,0.2
		c0,0.2,0.3,0.2,0.3,0.2c0.1,0,0.1,0.1,0.2,0.1c0.1,0,0.3,0,0.4,0c0.5,0,1.4-0.5,1.4-1.1c0-0.2-0.1-0.3-0.3-0.3
		c-0.3,0-1.3,0.5-1.5,0.5c0,0-0.1,0-0.4,0c-0.1,0-0.6-0.3-0.6-0.4c0,0,0.1-0.2,0.2-0.2c0,0,0.4,0.2,0.6,0.3c0.2,0.1,0.3,0.1,0.5,0.1
		c0,0,0.3-0.1,0.5-0.1c0,0,0.1,0,0.1-0.1c0.2-0.1,0.4-0.2,0.6-0.2c0,0,0.1,0,0.2,0c0.1,0,0.2,0.3,0.5,0.5c0.1,0.1,0.3,0,0.4,0
		c0.1,0,0.3,0,0.4,0c0.1,0,0.3-0.2,0.3-0.2c0.1,0,0.1,0.2,0.1,0.2c0,0,0,0.1,0,0.1c0,0.2-0.3,0.4-0.4,0.6c0,0,0,0,0.1,0
		c0.1,0,0.4-0.3,0.4-0.3c0.1-0.1,0.2-0.4,0.2-0.4c0,0-0.1-0.4-0.1-0.4c0,0,0-0.1,0-0.2c0-0.2,0.2-0.4,0.4-0.6
		c0.2-0.2,0.3-0.3,0.6-0.5c0.1,0,0.1,0,0.2,0c-0.1,0.2-0.2,0.8-0.2,0.9c0,0,0,0.4,0.1,0.7l0,2.1c0,0.4-0.1,0.8-0.1,1.2
		c0,0.2-0.1,0.4-0.2,0.6c0,0.1-0.1,0.2-0.1,0.2c-0.2,0.4-0.7,0.8-1.1,0.9c0.5-0.5,0.6-1,0.7-1.5h0.1c0,0,0,0,0,0c0,0,0-0.1-0.1-0.1
		c-0.2,0-0.3,0.7-0.4,0.7c-0.1,0.2-0.4,0.6-0.6,0.6c0,0-0.1,0-0.1,0.1h-0.1c-0.1-0.2-0.1-0.4-0.1-0.6c0-0.8,0-0.9,0-1c0,0,0,0,0,0
		c-0.1,0-0.2,0.4-0.2,0.5c0,0.4,0,0.4,0,0.7c0.1,0.7,0.4,1.4,0.7,2c0.1,0.1,0.4,1.3,0.4,1.7c0,0,0,0.2,0.1,0.2c0,0.1,0,0.3,0,0.4
		c0,0.1,0,0.2,0,0.2l0.3,3.4l0.2,1.9v1.3c0,0,0,0.2,0.1,0.6c0,0,0,0,0,0.7l-0.1,1.1c-0.3,0-0.4,0-0.4,0c0,0-0.2,0-0.3,0
		c-0.1,0-0.2,0.2-0.2,0.3c0,0,0.1,0.2,0.1,0.3c-0.1,0-0.3-0.1-0.4-0.1c-0.3,0-0.5,0.3-0.6,0.7c0,0.2-0.4,0.5-0.4,0.5
		c-0.1,0-0.3-0.3-0.5-0.3c-0.2,0-0.5,0.4-0.6,0.4c0,0-0.1,0-0.1-0.1l0.3-1.6c0-0.4,0.1-1,0.1-1v-1.8c0-0.2-0.1-0.8-0.1-1
		c0,0,0-0.1,0-0.3c-0.1-0.9-0.2-1.7-0.4-2.6c0,0,0,0,0-0.1c0,0-0.1,0.1-0.1,0.1c0,0.5,0.2,1.1,0.2,1.4v0.3l0.1,0.9v2.5l-0.1,1.5
		c0,0.1,0,0.3-0.1,0.4c-0.1,0.3-0.2,0.6-0.2,0.9c-0.1,0-0.2,0.1-0.2,0.1c-0.1,0.1-0.4,0.3-0.5,0.3c-0.1,0-0.3-0.1-0.3-0.1
		c0,0,0-0.1-0.1-0.1c0,0,0.1-0.1,0.1-0.1c0.1-0.3,0.1-0.6,0.1-0.8l0.2-1.8V47l-0.5-4.4c0-0.2,0-0.4,0-0.4c0,0,0-0.2,0-0.3
		c0,0,0,0-0.1-0.1h-0.1c-0.1,0.9-0.1,1-0.1,1.1c0.2,1.3,0.1,0.9,0.2,2.8l0.1,0.5l0.1,1.2v1.7l-0.1,1.7c0,0,0,0.1,0,0.1v0.5
		c0,0.3-0.1,0.8-0.1,0.9c0,0.1-0.1,0.1-0.1,0.1c0,0-0.2-0.1-0.3-0.1c-0.1,0-0.2,0-0.3-0.1c-0.1,0.3-0.2,0.3-0.2,0.6
		c0,0,0.1,0.6,0.1,0.7c0,0.1,0,0.4-0.2,0.4h-0.3c0,0-0.2,0-0.3,0c-0.1,0-0.2,0-0.3,0.1c-0.1,0-0.2,0.1-0.3,0.2
		c-0.2,0.2-0.6,0.7-0.7,0.7h-1c0,0-0.2-0.1-0.3-0.1c0-0.1,0.1-0.2,0.1-0.2c0.5-0.2,1-0.2,1.4-0.8c0.3-0.4,0.6-0.7,0.9-1.1
		c0,0,0,0,0-0.1c0,0,0-0.4,0-0.4c0-0.1-0.1-0.1-0.1-0.1c0,0-0.2,0-0.2,0c-0.1,0-0.3-0.1-0.3-0.2c0,0,0.1-0.7,0.2-1
		c0-0.1,0-0.2,0-0.3c0-0.1,0-0.1,0-0.2c0-0.1,0-0.1,0-0.2c0-0.1,0-0.1,0-0.2c0-0.2,0-0.3,0-0.5l-0.1-3.4l0-0.9c0,0,0-0.2,0-0.3
		c0.1-0.2,0.2-0.4,0.3-0.6c0.1-0.2,0.1-0.4,0.2-0.6c0.1-0.2,0.3-0.9,0.3-1c0,0,0.1-0.4,0.2-0.6c0.1-0.4,0.2-0.8,0.3-1.2
		c0.1,0,0.2-0.1,0.3-0.1c0.1,0,0.2-0.2,0.2-0.3c0-0.2-0.2-0.2-0.2-0.3c0,0,0.1-0.2,0.1-0.2c0.1-0.2,0.1-0.5,0.1-0.7
		c0-0.1,0-0.3,0.1-0.4v-0.6c0,0,0-0.1,0-0.1c0,0,0-0.1,0-0.1v-0.4c0-0.2-0.1-0.5-0.1-0.8c0.1-0.1,0.2-0.1,0.4-0.2c0,0,0-0.1,0-0.1
		c0-0.1-0.3-0.1-0.4-0.7c0-0.3,0-0.3,0-0.3c0,0,0-0.2,0-0.3c0.3-0.1,0.4-0.3,0.4-0.5c0-0.3-0.3-0.6-0.6-0.6c-0.2,0-0.6,0.1-0.6,0.4
		c0,0.2,0.1,0.4,0.1,0.5c0,0,0,0.1-0.1,0.2c-0.3,0.8-0.9,0.9-0.9,1.1c0,0.1,0.3,0.3,0.4,0.5c0,0.1,0,0.2,0,0.3c0,0,0,0.4-0.1,0.6
		c-0.2-0.1-0.7,0.2-0.7,0.5c0,0.2,0,0.3,0.1,0.5c0,0.1,0.1,0.1,0.1,0.1c0,0,0,0.3-0.1,0.5c0,0.1-0.2,0.2-0.3,0.3
		c-0.1,0.1-0.3,0.1-0.3,0.3c0,0,0.1,0.1,0.2,0.2c0.1,0.1,0.4,0.2,0.5,0.2c0,0,0.2,0,0.6,0c0,0.1-0.1,0.2-0.2,0.2c0,0,0,0,0,0
		c0.1,0.1,0.2,0,0.3,0c0,0,0.3-0.1,0.4-0.1h0.3l0,0c0,0,0,0,0,0.1c-0.2,0.1-0.5,0.1-0.7,0.3c-0.1,0.1-0.3,0.3-0.4,0.3
		c0,0-0.1-0.1-0.2-0.1c-0.2,0-0.3,0-0.5,0c0,0-0.1,0-0.1-0.1c-0.1-0.1-0.1-0.2-0.2-0.3c-0.1-0.1-0.1-0.4-0.2-0.5
		c-0.1-0.2-0.3-0.1-0.4-0.2c0.2-0.2,0.2-0.6,0.2-0.9l-0.1-1.1c0-0.3,0-0.3,0.2-0.6c0,0,0-0.1,0-0.1c0.1-0.3,0.2-0.5,0.3-0.8
		c0.2-0.5,0.5-1,0.7-1.5c0,0,0-0.1,0-0.1c0.1-0.1,0.2-0.2,0.2-0.3c0.1-0.2,0.3-0.5,0.5-0.8C100.4,33.7,100.5,33.6,100.5,33.5
		 M97.2,38c0,0.5-1,0.6-1.1,0.6l-1.3,0l0.2,1.2v0.3c0,0,0.1,0.4,0.1,0.4v0.2l0.3,3.2l0.1,1.8c0,0,0,0.1,0.1,0.1v2.4c0,0,0,0,0,0.1
		v1.7c0,0.2-0.1,0.6-0.2,0.7c0,0.1-0.1,0.2-0.1,0.2c-0.1,0.5-0.8,0.9-1.2,1.1c-0.1,0-0.1,0.1-0.2,0.1c-0.2,0-0.5,0.1-0.5,0.1h-0.1
		c0-0.1,0-0.3,0-0.4c0.1,0,0.2-0.1,0.3-0.1c0.6,0,1.7-1.2,1.7-1.9c0-0.4-0.1-0.7-0.4-1.1c-0.4-0.5-0.7-0.8-0.7-1.2
		c0-0.3,0.1-0.4,0.5-0.6c0.4-0.2,0.4-0.6,0.4-0.9c0,0,0-0.1,0-0.2c-0.1-0.5-0.7-0.7-1.1-0.8c-0.1,0-0.1-0.3-0.1-0.3
		c0,0,0.1-0.3,0.2-0.4c0.1-0.6,0.2-0.4,0.2-0.9c0,0,0.1-0.5,0.1-0.5v-1.5L94.3,40L94,38.5c0-0.2,0.1-0.4,0.2-0.5
		c0.1-0.1,0.4-0.1,0.5-0.1c0.3-0.1,0.8-0.4,0.9-0.8V36c0-0.1-0.1-0.3-0.2-0.4c0,0,0,0,0-0.1c0,0,0,0,0-0.1c0,0,0,0,0-0.1
		c0,0,0,0,0,0c0,0,0,0,0,0c0,0,0,0,0,0v-1.4c0,0,0,0,0,0h0c0,0,0,0,0,0v1.3c0,0.1-0.1,0.3-0.2,0.4c0,0-0.1,0-0.1,0.1h-0.1v-2.3
		c0-0.1,0.1-0.6,0.3-0.6c0,0,0.1,0,0.2,0.1c0.1,0,0.2,0,0.2,0c0.2,0,0.2,0,0.3,0c0,0,0.5,0,0.5-0.2c0-0.1-0.1-0.1-0.1-0.1
		c0,0-0.3,0.1-0.4,0.1c-0.1,0-0.5-0.1-0.5-0.2c0-0.1,0.3-0.3,0.3-0.7c0-0.1,0-0.1,0-0.2c0,0,0,0,0,0c0,0-0.1,0.3-0.1,0.4
		c0,0.1-0.2,0.2-0.3,0.4c0,0-0.1,0.1-0.1,0.1v-0.1c0.2-0.1,0.3-0.4,0.4-0.5v-0.4c0,0,0,0-0.1,0c-0.2,0-0.3-0.3-0.3-0.5
		c0-0.3,0.2-0.6,0.6-0.6c0,0,0.2,0.1,0.3,0.1c0,0-0.1,0-0.3,0c-0.2,0-0.5,0.2-0.5,0.4c0,0.3,0.3,0.3,0.4,0.3c0.1,0,0.2,0,0.2-0.2
		c0-0.1-0.2-0.1-0.2-0.3c0-0.2,0.2-0.2,0.2-0.2c0.2,0,0.3,0.2,0.3,0.3c0,0.3-0.3,0.2-0.3,0.4c0,0,0,0.1,0,0.2s0,0.2,0,0.2
		c0,0.3,0.2,0.5,0.4,0.7c0.1,0.1,0.2,0.1,0.3,0.2c0.1,0.1,0.2,0.3,0.2,0.3v2.5c0,0,0,0-0.1,0c-0.1,0-0.3-0.2-0.4-0.3c0-1,0-1,0-1.1
		c0,0,0-0.1,0-0.1c0,0,0-0.1,0-0.4c0-0.1,0.1-0.1,0.1-0.2c0-0.1-0.1-0.1-0.1-0.1c-0.1,0-0.1,0.1-0.1,0.1c0,0,0.1,0.1,0.1,0.2v1.8
		c0,0.1-0.2,0.3-0.2,0.4V37c0,0.1,0,0.3,0.1,0.4c0-0.1-0.1-0.1-0.1-0.2l0,0.1c0.1,0.2,0.3,0.6,0.5,0.7c0,0-0.1,0-0.1,0.1
		c0,0.1,0.1,0.1,0.1,0.1c0,0,0.3,0,0.3-0.2c0-0.1-0.1-0.2-0.1-0.2c0,0-0.1-0.1-0.1-0.1c0,0,0,0-0.1,0c-0.2-0.1-0.3-0.2-0.4-0.3
		c0.1,0.2,0.3,0.3,0.5,0.3c0,0,0.1,0,0.1,0C96.9,37.8,97.2,37.8,97.2,38 M88.1,44.7c-0.2,0-0.3-0.2-0.3-0.3c0-0.1,0.1-0.2,0.1-0.3
		c0-0.1,0.1-0.2,0.1-0.4c0-0.1,0-0.2,0.1-0.4c0.1,0.3,0.2,0.6,0.2,1C88.3,44.5,88.3,44.7,88.1,44.7 M87.4,50.2
		c-0.2,0-0.2-0.2-0.2-0.3c0-0.2,0.2-0.5,0.3-0.8c0.1,0,0.2,0.5,0.2,0.7C87.7,50,87.6,50.2,87.4,50.2 M88.2,48.7
		c-0.1,0-0.2-0.2-0.2-0.2c0,0,0-0.1,0-0.3c0-0.2,0.1-0.4,0.2-0.6c0-0.1,0.1-0.2,0.1-0.3c0.1,0.3,0.1,0.5,0.2,0.7c0,0.2,0,0.2,0,0.3
		C88.5,48.6,88.3,48.7,88.2,48.7 M96,28.2c0,0.1-0.1,0.2-0.2,0.2c-0.3,0.1-0.7,0.4-0.9,0.8c-0.1,0.1-0.1,0.4-0.3,0.3
		c-0.1,0-0.1-0.1-0.1-0.1c-0.5-0.3-0.8-0.6-1.6-0.5c-0.4,0.1-0.8,0.1-1.1,0.5c-0.3,0.2-0.3,0.5-0.4,0.7c0,0.1,0,0.2,0,0.4
		c0,0,0,0,0,0.1v0.2c0,0.4-1.4,0.6-1.4,1.1c0,0.1,0.6,0.3,0.7,0.3c0,0,0,0.1,0,0.1c0.3,0.3,0.6,0.7,0.7,1c0,0,0,0,0,0.1
		c0.3,0.7,0.7,1.4,1.2,2.1c0.1,0.1,0.2,0.3,0.3,0.4c0.2,0.3,0.7,0.9,0.7,0.9c0,0-0.1,0.2-0.1,0.3c0,0.2-0.1,0.4-0.3,0.6
		c-0.1,0.1-0.2,0.1-0.3,0.1c-0.2,0-0.5,0.1-0.8,0.1l-0.8,0c-0.4-0.1-0.8,0-1.1-0.4c-0.1-0.1,0-0.2,0-0.3c0-0.2-0.1-0.4-0.2-0.6
		c-0.1-0.2-0.2-0.4-0.3-0.6c0-0.1-0.2-0.2-0.2-0.3c0-0.1,0.1-0.1,0.2-0.2c0.1-0.2,0.3-0.4,0.4-0.6c0,0,0.1-0.1,0.2-0.1
		c0,0,0.1,0,0.1,0.1c0,0,0,0,0.1,0c0.1,0,0.1-0.1,0.1-0.1c0-0.1-0.1-0.1-0.1-0.1c-0.3,0-0.8,0.7-0.9,0.8c-0.5,0.5-1,1-1.5,1.5
		c0,0-0.1,0.1-0.1,0.2c0,0,0,0.1,0,0.1c0,0.3,0.4,1.3,0.4,1.4c0,0.1,0.1,0.3,0.1,0.4c0,0.2,0,0.5,0.1,0.7c0,0.2,0.1,0.4,0.1,0.5
		c0,0.1-0.1,0.1-0.2,0.2c-0.1,0-0.2,0.1-0.2,0.2l0,0c0.1,0,0.3-0.1,0.3-0.1c0,0,0.4,0,0.6,0.1c0.1,0,0.2,0.1,0.2,0.1
		c0.1,0.1,0.3,0,0.4,0.2V41h-0.2c0,0-0.3-0.1-0.4-0.1c0,0-0.2,0.1-0.2,0.1c0,0.1,0.7,0.9,0.8,1c0,0-0.1,0.1-0.1,0.1
		c0,0-0.3,0-0.5-0.1c-0.2-0.1-0.4-0.4-0.6-0.6c-0.1-0.2-0.3-0.2-0.5-0.4c-0.1-0.1-0.2-0.2-0.3-0.4c-0.4-0.5-0.5-1.4-0.7-1.9
		c0,0,0-0.1-0.1-0.1c0-0.1,0-0.1,0-0.2c-0.1-0.3-0.3-1-0.3-1.1V37c0,0,0,0,0,0v-0.5c0,0,0,0,0,0c0-0.2,0.3-0.5,0.5-0.7
		c0.4-0.4,0.8-0.9,1.3-1.3c0.4-0.3,0.8-0.6,1.2-0.9c0.2-0.1,0.5-0.2,0.7-0.3c0.1,0,0.2,0,0.3,0c0,0,0.2,0,0.3,0
		c-0.1-0.2-0.3-0.2-0.4-0.2c0,0-0.2,0-0.3,0c-0.2,0-0.6,0.2-0.8,0.3c-0.1,0-0.2,0.1-0.2,0.2c-0.9,0.5-1.8,1.6-2.7,2.5
		c0,0-0.1,0.1-0.1,0.2c0,0-0.1,0.5-0.1,0.6v0.3c0,0.3,0.2,0.8,0.3,1c0.1,0.4,0.1,0.9,0.2,1.4c0,0.3,0.2,0.5,0.3,0.7
		c0.1,0.2,0.1,0.4,0.1,0.6c0.1,0.4,0.3,0.7,0.5,1.1c0,0.1,0,0.2,0,0.2c0,0.4-0.2,0.5-0.6,0.8C87.2,43,87.1,43,87,43
		c-0.2,0.1-0.3,0.2-0.5,0.3c-0.2,0.2-0.3,0.6-0.3,0.9c0,0,0.1,0.4,0.1,0.5c0,0.2,0.2,0.5,0.4,0.7c0,0,0.1,0.1,0.2,0.1
		c0.1,0.1,0.2,0.1,0.3,0.2c0.3,0,0.7,0.1,1,0.2c0.2,0.1,0.2,0.3,0.2,0.4c0,0.4-0.7,1.3-0.9,1.5c-0.2,0.3-0.6,0.6-0.8,0.9
		c-0.2,0.3-0.2,0.7-0.2,1c0,0.2,0.1,0.5,0.2,0.8c0.1,0.1,0.1,0.2,0.2,0.3c0.2,0.3,0.5,0.5,0.8,0.6c0.1,0.1,0.8,0.2,0.9,0.2h0.3
		c0,0,0.1,0,0.1,0c0,0.1-0.1,0.2-0.1,0.3c-0.1,0-0.1,0-0.2,0c-0.5,0-1.9-0.4-2-1c0-0.1-0.1-0.2-0.2-0.3c-0.1-0.3-0.2-0.7-0.2-1
		c0,0,0-0.1,0-0.5c0-0.3,0.1-0.6,0.1-0.9c0-0.1,0.1-0.1,0.1-0.2c0,0,0.2-0.9,0.2-1c0,0-0.1-0.6-0.1-0.7c0.1,0,0.1-0.1,0.2-0.1
		c0.4,0,0.6,0.1,0.6,0.5c0,0.4-0.2,0.9-0.4,1.3c0.4-0.2,0.7-0.9,0.7-1.3c0,0,0-0.1,0-0.2c0-0.4-0.5-0.5-0.8-0.5
		c-0.3,0-0.4,0.1-0.8,0.2c0,0-0.1,0-0.1,0c-0.1,0-0.1,0-0.2,0c0,0-0.1,0-0.2,0c0,0-0.2-0.4-0.2-0.5c0-0.5,0.2-1,0.3-1.5
		c0.1-0.4,0.1-0.7,0.2-1.1c0-0.3,0-0.7,0-0.9c0-0.7,0.1,0,0-1.5L85.8,37c0,0,0.1-0.4,0.1-0.6c0.1-0.2,0.3-0.5,0.5-0.6
		c0.2-0.1,0.4-0.2,0.6-0.3c0.2-0.1,0.3-0.4,0.4-0.6c0.1-0.3,0.2-0.7,0.4-0.9c0.2-0.2,0.5-0.4,0.7-0.6c0.3-0.2,0.6-0.4,0.9-0.6
		c0,0-0.1-0.1-0.1-0.2c0,0,0-0.1,0-0.2c0-0.1,0-0.3,0.3-0.4c0,0-0.1-0.1-0.1-0.2c0-0.3,0.4-0.6,0.7-0.7c0.1-0.1,0.8-0.2,0.8-0.5
		v-0.3c0,0,0-0.1,0-0.1c0.1-0.4,0.6-1.2,1-1.3c0,0,0.1,0,0.1,0v-0.3c0,0-0.1-0.5-0.2-0.7c-0.1-0.2-0.2-0.4-0.3-0.7H92
		c0.2,0,0.5,0.5,0.6,0.6c0.1,0.1,0.3,0.2,0.3,0.3c0,0.1-0.2,0.2-0.2,0.4c0,0.1,0,0.3,0.1,0.3c0.1,0,0.3,0.1,0.3,0.1
		c0.2,0,0.4-0.2,0.4-0.4c0,0-0.2-0.5-0.2-0.5c0,0,0.4-0.6,0.6-0.8c0,0,0.1-0.1,0.1-0.1c0,0,0.1,0,0.1,0c0,0.1,0.1,0.3,0.1,0.4
		c0.1,0.2,0.3,0.6,0.3,0.6c0,0.1-0.5,0.3-0.5,0.6c0,0.2,0.1,0.4,0.3,0.4c0.1,0,0.3,0,0.4-0.2c0.1-0.1,0-0.3,0.2-0.4
		c0.1,0,0.4,0.1,0.4,0.1C95.4,28.3,96,28.2,96,28.2C96,28.2,96,28.2,96,28.2 M88.9,50.5c0,0.3,0,0.4,0,0.4c0,0-0.1,0-0.3,0
		c-0.2-0.1-0.2-0.1-0.2-0.3c0-0.3,0.2-0.9,0.3-1.1C88.8,49.9,88.9,50.2,88.9,50.5 M88.8,45.9c0,0,0.2-0.4,0.3-0.5
		c0-0.1,0.1-0.2,0.1-0.3c0.1,0.1,0.1,0.2,0.1,0.3c0,0.2,0.1,0.4,0.1,0.5c0,0.2,0,0.4-0.3,0.4c0,0-0.1,0-0.1,0
		c-0.1,0-0.1-0.1-0.2-0.1C88.8,46.1,88.8,46,88.8,45.9 M90.8,41.2C91.2,41,91,41,91.3,41c0.2,0,0.4,0.1,0.6,0.2
		c0.1,0.1,0.3,0.1,0.4,0.1c0.1,0,0.2,0.1,0.3,0.1c0.1,0,0.3,0,0.3,0c0,0,0.5-0.1,0.6-0.1c0.1,0,0.3,0,0.3,0.1c0,0-0.1,0.2-0.2,0.3
		c-0.4,0.2-0.8,0.4-1.2,0.6c-0.1,0.1-0.3,0.1-0.5,0.2c-0.1,0-0.3,0.1-0.3,0.1c0,0-0.1,0-0.2,0c-0.7-0.2-1.5-0.9-1.8-1.4
		c0,0-0.1,0-0.1,0v-0.1h0.2c0,0,0.4,0.2,0.4,0.2C90.2,41.4,90.6,41.2,90.8,41.2 M88.8,37.4c-0.1,0-0.2-0.2-0.2-0.3
		c0-0.1,0.2-0.4,0.2-0.5c0.1,0.1,0.2,0.3,0.2,0.5C89,37.1,89,37.4,88.8,37.4 M89.3,38.4c0,0.2,0.1,0.6,0.1,0.6
		c0,0.2-0.1,0.4-0.3,0.4c-0.1,0-0.2-0.3-0.2-0.3C88.9,38.8,89.2,38.6,89.3,38.4 M91.2,38.6c0,0.2,0.3,0.1,0.3,0.2l1.1,0
		c0.1,0,0.4,0.1,0.5,0.2c0.1,0.1,0.3,0.3,0.3,0.4c0,0.1,0.4,1.4,0.4,1.6v0.1c-0.1,0-0.2,0-0.2,0l-0.8,0.1c-0.6,0-0.8-0.4-1.4-0.4
		c-0.5,0-0.9,0.4-1.2,0.4c0,0-0.1,0-0.2,0c-0.1-0.5-0.7-0.6-0.9-0.7c0.1-0.4,0.3-0.9,0.6-1.3c0.1-0.1,0.1-0.2,0.2-0.3
		c0.1-0.1,0.3-0.3,0.3-0.4c0-0.2-0.3-0.2-0.3-0.5c0-0.1,0.1-0.3,0.3-0.3c-0.1,0.5,1.3,0.6,1.6,0.6c0.4,0,1.2-0.1,1.5-0.2
		c0,0,0,0,0.1,0v0.3c-0.1,0.2-0.3,0.2-0.5,0.2l-1.4,0C91.3,38.5,91.2,38.5,91.2,38.6 M94.4,37.7c0,0.1-0.2,0.2-0.3,0.3
		c-0.1,0.1-0.2,0.3-0.2,0.4c-0.2,0-0.2-0.4-0.2-0.5c0-0.3,0-0.6,0.2-0.9C94,37.3,94.2,37.5,94.4,37.7 M95,37.6
		c-0.1,0-0.2,0.1-0.2,0.1c0,0-0.2-0.1-0.3-0.2c-0.8-0.7-1.4-1.6-1.9-2.3c-0.2-0.3-0.4-0.7-0.6-1c0.2,0.2,0.3,0.5,0.6,0.7
		c0.3,0.4,0.6,0.9,1,1.3c0.3,0.4,0.7,0.8,1,1.1C94.7,37.3,94.8,37.4,95,37.6 M94.4,33.9c0,0.1,0.1,0.1,0.1,0.2v1.1l0.1,0.5v0.2
		l0.1,0.7v0.2c0,0.1,0.1,0.3,0.1,0.4c-0.1-0.1-0.7-0.6-0.7-0.8c0-0.4,0.2-0.3,0.2-1c0-0.3-0.2-1.2-0.3-1.3c0,0,0,0,0,0
		c0,0,0,0.1,0,0.1c0,0.6,0.1,0.3,0.1,0.7c0,0.4,0,0.6-0.2,1.1c-0.1-0.1-0.2-0.1-0.2-0.2c-0.3-0.4-0.6-0.8-0.9-1.2
		c-0.1-0.1-0.2-0.2-0.3-0.3c-0.4-0.5-0.6-1-0.9-1.5c0.4,0.3,1.1,0.6,1.6,0.6c0.2,0,0.4,0,0.6-0.3C93.9,33.3,94.4,33.5,94.4,33.9
		 M91.7,32.5c0.1,0,0.7,0.4,0.8,0.4h0.3c0.2,0,0.5-0.2,0.6-0.2c0.1,0,0.1,0.3,0.1,0.3c-0.1,0-0.1,0.1-0.2,0.1c-0.1,0-0.2,0-0.3,0
		c0,0-0.3,0-0.4,0c-0.3-0.1-0.6-0.2-1-0.4c-0.2-0.1-0.5-0.3-0.7-0.5c0,0-0.1-0.1-0.1-0.1l0.3,0c0,0.1,0.1,0.1,0.1,0.2
		C91.4,32.4,91.6,32.4,91.7,32.5 M92.3,31.2v-0.8c0.1-0.2,0.2-0.4,0.3-0.6c0.4-0.4,0.6-0.4,0.9-0.4c0.2,0,0.3,0,0.4,0.1
		c0.1,0.1,0.3,0.1,0.4,0.2c0,0,0.1,0.1,0.1,0.2c0,0-0.1,0.3-0.2,0.5c0,0,0,0,0,0.1h-0.1c0,0-0.2-0.1-0.2-0.1c-0.1,0-0.2,0-0.2,0.1
		c0,0.1,0.1,0.1,0.1,0.1c0,0.1,0.1,0.2,0.2,0.1v0.5c0,0,0,0.1-0.1,0.2c-0.1,0.1-0.2,0.2-0.3,0.3c-0.1,0.1-0.1,0.2-0.2,0.3
		c-0.1,0.1-0.2,0.1-0.3,0.1c0,0-0.1,0-0.1,0c-0.3,0-0.6-0.4-0.7-0.7c0,0,0,0,0,0s-0.1,0-0.1,0.1c0,0,0,0.1,0.1,0.2
		c0,0.1,0.1,0.2,0.1,0.3c0,0.1,0.4,0.4,0.4,0.4h0.3v0.1c0,0,0,0.2,0,0.2c-0.1,0-0.3,0.1-0.4,0.1c-0.4,0-0.5-0.1-1-0.4
		c-0.1-0.1-0.1-0.2-0.1-0.2c0-0.2,0.1-0.1,0.2-0.2C92.2,31.7,92.2,31.4,92.3,31.2 M94,49.4c0.1,0.2,0.4,0.5,0.4,0.7c0,0,0,0.1,0,0.2
		c0,0.1-0.2,0.2-0.3,0.2c-0.1,0-0.2-0.1-0.2-0.2V50C93.9,50,94,49.6,94,49.4 M88.7,54c0-0.2,0.1-0.2,0.2-0.4
		c0.2-0.5,0.3-1.1,0.3-1.6c0-0.3,0.1-0.6,0.1-0.6c0,0,0,0,0-0.1v-0.5c0,0,0-0.1,0-0.1c0-0.3-0.1-0.6-0.1-1c0-0.2,0-0.3,0-0.3
		c0-0.3,0.3-0.9,0.4-1.2c0.2-0.3,0.3-0.6,0.5-0.9c0.1-0.1,0.1-0.3,0.1-0.4c0-0.1,0-0.2,0-0.2c-0.1-0.2-0.1-0.4-0.2-0.7
		c-0.1-0.8-0.3-2.5-0.3-2.6v-0.3c0,0-0.1-0.4-0.1-0.6c0-0.2,0-0.2,0-0.3c0.1-0.1,0.3,0,0.5,0c0,0,0.1-0.1,0.1-0.1c0,0,0.6,0.5,1,0.7
		C91,43,91.2,43,91.3,43c0.5,0,0.9-0.3,1.4-0.5c0,0,0.1,0.1,0.1,0.2c0.2,0.6,0.5,1.2,0.7,1.9c0.1,0.2,0,0.4,0.1,0.6
		c0.1,0.4,0.2,0.8,0.4,1.2c0,0.1,0,0.3,0,0.3c0,0.3-0.2,0.6-0.3,0.9c-0.1,0.3-0.1,0.7-0.1,1l-0.5,2.6c0,0.3-0.1,1,0,1.5
		c0,0.1,0.1,0.3,0.1,0.3v0.3c0,0.5,0.9,1.1,1.2,1.3c0,0,0.1,0,0.1,0c0.3,0.2,0.5,0.2,0.7,0.4c0.1,0.1,0.3,0.1,0.5,0.2
		c-0.1,0.1-0.3,0.1-0.4,0.1l-1.8-0.2c-0.2,0-0.4,0.1-0.6,0.1c0,0-0.5,0.2-0.6,0.2c0,0-0.1-0.1-0.2-0.1c-0.2-0.1-0.3-0.4-0.3-0.5
		c0,0,0.1-0.3,0.1-0.4c0.1-0.3,0.1-0.9,0.1-1v-0.8c0,0-0.1-0.7-0.1-1c0-0.2-0.1-0.4-0.2-0.6c0-0.1,0-0.3-0.1-0.4
		c-0.1-0.1-0.1-0.3-0.1-0.5c0-0.8,0.2-1.5,0.5-2.2c0.1-0.1,0.1-0.3,0.1-0.4c0-0.1,0.1-0.3,0.1-0.3c0,0,0-0.1,0-0.3
		c-0.1-0.3-0.1-0.5-0.3-0.8c-0.3-0.4-0.7-0.8-1.1-1.1c-0.3-0.4-0.7-0.8-0.8-1.2c0-0.1,0-0.3,0-0.4c0,0-0.1-0.2-0.2-0.2
		c0,0-0.1,0-0.1,0.1c0,0,0.1,0.1,0.1,0.1c0,0.2,0,0.4,0.1,0.6c0.2,0.6,0.9,1.3,1.4,1.9c0.1,0.1,0.2,0.5,0.2,0.7c0,0,0,0.3-0.1,0.5
		c-0.2,0.4-0.4,0.9-0.5,1.3c-0.1,0.4-0.3,0.7-0.4,1.1c-0.2,0.5-0.3,1.1-0.5,1.6c-0.1,0.2,0,0.5-0.1,0.8C90.1,52.2,90,52.9,90,53
		c0,0,0,0.2,0.1,0.2c0.1,0.1,0.2,0.3,0.4,0.4c0.2,0.2,0.4,0.5,0.6,0.6c0.2,0.1,0.4,0.1,0.6,0.2c0,0.1,0,0.2,0,0.3
		c-0.1,0-0.3,0.1-0.3,0.1c-0.2,0-0.6-0.1-0.8-0.2c-0.2-0.1-0.5-0.2-0.7-0.2c0,0-0.1,0-0.2,0h-0.4c-0.1,0-0.4-0.1-0.5-0.1
		C88.7,54.2,88.7,54.1,88.7,54 M91.5,51.5c-0.1,0-0.3-0.1-0.3-0.2c0,0,0.1-0.3,0.2-0.5c0.1,0.2,0.3,0.6,0.3,0.6
		C91.7,51.4,91.5,51.5,91.5,51.5 M91.8,51.7c0,0.2,0.1,0.1,0,0.6l-1.5-0.2c0-0.1,0-0.1,0-0.3c0-0.1,0-0.2,0.1-0.2
		c0,0,0.2,0.1,0.2,0.1h0.3c0,0,0.2,0.1,0.3,0.1c0.1,0,0.2,0,0.3,0C91.6,51.8,91.7,51.8,91.8,51.7 M90.8,56.4H101v6.7
		C97,61.8,93.5,59.5,90.8,56.4 M108.3,72.5c1.7,0,6-3.1,6-6.5v-0.9c10.9-2.7,19.1-12.6,19.1-24.3c0-9.3-5.1-17.4-12.6-21.7v4.2
		c0.2,0.1,0.3,0.3,0.3,0.5c0,0.3-0.2,0.6-0.6,0.6c-0.3,0-0.6-0.3-0.6-0.6c0-0.2,0-0.5,0.3-0.6v-5.2c-1-1.1-2.1-2.2-3.1-3.2
		c0,0,0,0-0.1,0l-3.2,3.5v3.4c0.1-0.2,0.2-0.4,0.3-0.6c0.1-0.1,0.6-0.7,0.6-0.8c0,0,0-0.3-0.1-0.4c-0.1,0.2-0.2,0.4-0.4,0.4
		c-0.2,0-0.1-0.2-0.1-0.3c0-0.2,0.1-0.5,0.2-0.7c-0.3-0.2-0.4-0.3-0.4-0.5c0-0.2,0.1-0.4,0.3-0.4c0.2,0,0.3,0.1,0.3,0.3
		c0,0,0,0.1,0,0.1c0.1-0.1,0.3-0.2,0.3-0.2c0.1,0,0.3,0.1,0.3,0.3c0,0.2-0.1,0.4-0.4,0.6v0.2c0,0,0,0.3,0.1,0.4
		c0.3-0.5,0.9-0.8,0.9-1.2c0,0,0-0.2,0-0.3c-0.1,0-0.2,0.2-0.3,0.2c-0.3,0-0.3-0.2-0.3-0.4c0-0.2,0-0.4,0.2-0.4
		c-0.2-0.2-0.3-0.3-0.3-0.5c0-0.2,0-0.5,0.3-0.5c0.1,0,0.3,0,0.3,0.3c0,0.2,0,0.3,0,0.4c0.1-0.1,0.2-0.1,0.2-0.1
		c0.2,0,0.3,0.1,0.3,0.3c0,0.2,0,0.3-0.3,0.5c0,0,0,0,0,0.1c0,0.2,0.1,0.4,0.1,0.5c0.2-0.1,0.5-0.3,0.6-0.3c0-0.2,0.1-0.4,0.1-0.5
		v-0.4c0,0,0,0,0,0c-0.1,0-0.1,0-0.2,0c-0.3,0-0.3-0.2-0.3-0.4c0-0.2,0.1-0.5,0.4-0.5c-0.1-0.3-0.2-0.4-0.2-0.6c0-0.2,0-0.5,0.4-0.5
		c0.4,0,0.4,0.3,0.4,0.5c0,0.3-0.1,0.3-0.2,0.6c0.3,0,0.4,0.3,0.4,0.5c0,0.2,0,0.4-0.3,0.4c0,0-0.1,0-0.2,0l0,0.5
		c0,0.1,0,0.3,0.1,0.3c0.1,0.1,0.4,0.2,0.6,0.4c0.1-0.2,0.1-0.4,0.2-0.6c-0.2-0.1-0.2-0.3-0.2-0.4c0,0,0-0.1,0-0.2
		c0-0.1,0.1-0.1,0.1-0.1c0,0,0.1,0,0.1,0c0,0,0.1,0,0.1,0c0.1,0,0.1,0.1,0.2,0.1c0,0-0.1-0.1,0-0.4c0-0.2,0.1-0.3,0.3-0.3
		c0.3,0,0.3,0.3,0.3,0.5c0,0.2-0.1,0.3-0.3,0.5c0.2,0.1,0.2,0.3,0.2,0.4c0,0.2-0.1,0.4-0.3,0.4c-0.1,0-0.3-0.2-0.3-0.2
		c-0.1,0.2-0.1,0.5-0.1,0.5c0,0.1,0,0.1,0.1,0.2c0.3,0.2,0.5,0.5,0.7,0.8c0,0,0.1-0.1,0.1-0.1v-0.2c-0.2-0.1-0.2-0.3-0.2-0.5
		c0-0.1,0-0.3,0.3-0.3c0.1,0,0.2,0.1,0.3,0.2c0-0.3,0.1-0.5,0.3-0.5c0.2,0,0.4,0.1,0.4,0.4c0,0.2-0.3,0.4-0.4,0.5
		c0.2,0.1,0.2,0.3,0.2,0.5c0,0.2,0,0.4-0.3,0.4c-0.2,0-0.3-0.2-0.4-0.3c0,0.1-0.1,0.3-0.1,0.4s0,0.1,0,0.1c0.3,0.4,0.5,0.8,0.7,1.1
		c0.1,0.1,0.1,0.3,0.1,0.5c0,0.1,0,0.1,0,0.2c0,0,0,0.1-0.1,0.1c-0.5-1-1.2-2.2-2.4-3c-0.2-0.1-0.4-0.3-0.6-0.3
		c-0.4,0-1.3,1-1.5,1.3c-0.1,0.1-0.1,0.2-0.1,0.2c-0.3,0.5-0.8,1.2-1.1,2c-0.1,0.2-0.2,0.6-0.2,0.6c0,0,0,0,0,0.1
		c0,0-0.1,0.1-0.1,0.1c0.1,0.1,0.1,0.3,0.1,0.4c0,0.3-0.2,0.6-0.6,0.6c-0.3,0-0.6-0.3-0.6-0.6c0,0,0-0.1,0-0.1
		c0-0.1,0.1-0.2,0.1-0.2c0,0-0.3-0.7-0.5-1.1c-0.3-0.6-0.6-1.1-1-1.7c-0.3-0.5-0.7-1.1-1.1-1.5c-0.3-0.3-0.7-0.7-1-1
		c-0.3-0.3-0.9-0.7-1.3-0.7c-0.2,0-0.5,0.2-0.6,0.2c-0.6,0.3-1.3,1.1-1.8,1.6c-0.3,0.3-0.5,0.6-0.7,0.9c-0.1,0.2-0.2,0.4-0.3,0.5
		c-0.1,0.1-0.2,0.3-0.3,0.5c-0.2,0.4-0.4,0.8-0.6,1.2c-0.2,0.4-0.5,1.1-0.5,1.2c0,0,0.1,0.3,0.1,0.3c0,0.3-0.2,0.6-0.6,0.6
		c-0.3,0-0.6-0.3-0.6-0.6c0-0.2,0.1-0.5,0.3-0.6v-5.1l-3.3-3.4c-0.2,0.1-0.5,0.5-0.7,0.7c-0.8,0.9-2.4,2.6-2.4,2.6v3.9
		c0.1-0.3,0.4-0.7,0.6-1c0-0.1,0.1-0.1,0.1-0.1c0.1-0.1,0.1-0.1,0.1-0.3c0,0-0.1-0.3-0.1-0.5c-0.1,0.2-0.2,0.4-0.4,0.4
		c-0.2,0-0.1-0.2-0.1-0.3c0-0.2,0.1-0.5,0.2-0.7c-0.3-0.2-0.4-0.3-0.4-0.5c0-0.2,0.1-0.4,0.3-0.4c0.2,0,0.3,0.2,0.3,0.3
		c0,0,0,0.1,0,0.1c0.2-0.2,0.2-0.2,0.3-0.2c0.2,0,0.3,0.1,0.3,0.3c0,0.2-0.1,0.4-0.4,0.6v0.2c0,0,0.1,0.3,0.1,0.4
		c0.3-0.3,0.7-0.7,0.8-0.9c0-0.1,0-0.2,0-0.2c0,0,0-0.2,0-0.3c-0.1,0.1-0.2,0.2-0.3,0.2c-0.3,0-0.3-0.2-0.3-0.4c0-0.1,0-0.3,0.2-0.4
		c-0.2-0.2-0.3-0.3-0.3-0.5c0-0.2,0-0.5,0.3-0.5c0.1,0,0.3,0,0.3,0.3c0,0.3,0,0.3,0,0.4c0.1-0.1,0.1-0.1,0.1-0.1
		c0.3,0,0.4,0.1,0.4,0.4c0,0.2-0.1,0.3-0.3,0.5c0,0,0,0.1,0,0.1c0,0.2,0.1,0.4,0.1,0.5c0.2-0.1,0.5-0.3,0.6-0.3
		c0-0.2,0.1-0.4,0.1-0.5v-0.4c0,0,0,0,0,0c-0.1,0-0.1,0-0.2,0c-0.3,0-0.3-0.2-0.3-0.4c0-0.2,0.1-0.5,0.4-0.5
		c-0.1-0.3-0.2-0.3-0.2-0.6c0-0.3,0-0.5,0.4-0.5c0.4,0,0.4,0.3,0.4,0.5c0,0,0,0.2,0,0.3c0,0.1-0.1,0.2-0.1,0.3
		c0.3,0,0.4,0.3,0.4,0.5c0,0.2,0,0.4-0.3,0.4c0,0-0.1,0-0.2,0l0,0.5c0,0.1,0,0.2,0.1,0.3c0.2,0.1,0.4,0.2,0.6,0.3
		c0.1-0.2,0.1-0.4,0.2-0.6c-0.2-0.1-0.2-0.3-0.2-0.4c0-0.2,0.1-0.3,0.3-0.3c0,0,0.1,0,0.1,0c0.1,0,0.1,0.1,0.2,0.1c0,0,0-0.1,0-0.4
		c0-0.1,0.2-0.3,0.3-0.3c0.3,0,0.3,0.3,0.3,0.5c0,0.1,0,0.2-0.1,0.3c-0.1,0.1-0.1,0.1-0.2,0.2c0.2,0.1,0.2,0.3,0.2,0.4
		c0,0.2-0.1,0.4-0.3,0.4c-0.1,0-0.3-0.2-0.3-0.2c-0.1,0.2-0.1,0.5-0.1,0.6c0,0,0,0.1,0.1,0.1c0.3,0.2,0.5,0.5,0.7,0.8
		c0,0,0.1-0.1,0.1-0.1v-0.3c-0.2-0.1-0.2-0.3-0.2-0.5c0-0.1,0-0.3,0.3-0.3c0.1,0,0.2,0.1,0.3,0.2V19c0-0.2,0.2-0.2,0.3-0.2
		c0.2,0,0.4,0.1,0.4,0.4c0,0.2-0.3,0.4-0.4,0.5c0.2,0.1,0.2,0.3,0.2,0.5c0,0.2,0,0.4-0.3,0.4c-0.2,0-0.3-0.2-0.4-0.3
		c0,0.1-0.1,0.3-0.1,0.4c0,0,0,0.1,0,0.1c0.3,0.4,0.5,0.8,0.7,1.1c0.1,0.1,0.1,0.3,0.1,0.5c0,0,0,0.1,0,0.2c0,0,0,0.1-0.1,0.1
		c-0.1-0.2-0.2-0.5-0.3-0.7c-0.2-0.3-0.4-0.6-0.6-0.8c-0.2-0.3-1.6-1.8-2.1-1.8c-0.6,0-1.9,1.8-1.9,1.9c-0.3,0.6-0.8,1.3-0.9,2
		c0,0.1-0.1,0.2-0.1,0.3c0,0.1,0.2,0.2,0.2,0.5c0,0.3-0.2,0.6-0.6,0.6c-0.3,0-0.6-0.3-0.6-0.6c0-0.1,0.2-0.4,0.2-0.4v-4
		c-7.2,4.4-12,12.3-12,21.4c0,11.8,8.1,21.6,19.1,24.3V66C102.3,69.4,106.6,72.5,108.3,72.5 M119.9,65l1,1.8l-0.1,0.2l0.9,0.2
		l0.2-0.8l-0.4-0.1l-0.9-1.6l0-0.5l-0.8,0l-0.4,0.8L119.9,65z M121.6,64.1l1.1,1.7l0,0.2l0.9,0.2l0.1-0.8l-0.4-0.1l-1-1.5l0-0.5
		l-0.8,0.1l-0.3,0.9L121.6,64.1z M126,65.2C126,65.2,126,65.2,126,65.2c0.1,0.1,0,0.2,0,0.2v0.1c0,0,0,0,0.1,0
		c0.1,0,0.2-0.1,0.2-0.2c0.1-0.2,0.1-0.6,0.1-0.6c0-0.2-0.3-0.2-0.5-0.2c-0.2-0.1-0.4-0.1-0.6-0.1c-0.2-0.1-0.6-0.1-0.9-0.3l-1-1.3
		c0.1,0,0.2-0.1,0.2-0.1c0.1,0,0.3-0.1,0.4-0.2c0,0,0-0.1,0.1-0.1c0,0,0.1,0,0.1,0l1.2,1.4h0.3v0.5c0.1-0.2,0.3-0.5,0.3-0.6
		c0,0,0.1-0.3,0.1-0.3c0-0.1-1.3-1.5-1.3-1.7c-0.1-0.3,0-0.4,0-0.4c0,0,0,0-0.1,0l-1.4,0.5c0,0,0,0,0,0v0.4c0,0-0.5,1-0.5,1
		s0.8,1.1,1.2,1.6c0,0,0.1,0.1,0.2,0.2c0.1,0,0.1,0,0.2,0L126,65.2z M127.2,61.9c-0.4-0.4-0.9-0.8-1.3-1.3c0-0.1,0-0.1,0.1-0.2
		c0-0.1,0-0.2,0.1-0.2c0.1-0.1,0.4-0.1,0.4-0.1c0.1,0,0.8,0.7,0.9,0.9c0.2,0.2,0.5,0.5,0.5,0.6s0,0,0,0.1c0,0,0,0,0,0.1h0.9
		c0-0.3,0-0.6,0.1-0.9c-0.1,0-0.1,0-0.1,0c0,0-0.1,0.1-0.3,0c-0.2-0.1-0.3-0.3-0.5-0.4c-0.3-0.3-0.7-0.6-0.9-0.9
		c-0.1-0.1-0.1-0.3-0.1-0.5c-0.4,0.2-0.9,0.5-1.3,0.7c0,0.2,0,0.4-0.1,0.6c0,0.1-0.1,0.1-0.1,0.1c-0.2,0.1-0.4,0.1-0.6,0.2
		c0,0.3-0.1,0.6-0.1,0.9c0.2,0,0.4-0.1,0.5-0.1c0,0,0,0,0.1,0c0.5,0.4,0.9,0.9,1.3,1.3c0,0,0,0.2,0,0.2c0.5,0,0.7,0,0.9,0
		c0-0.4,0.1-0.7,0-0.9c0,0-0.3,0-0.3,0C127.4,62,127.3,62,127.2,61.9 M128.8,56.6l3,2c0,0,0,0,0,0c-0.2,0-0.4,0.1-0.6,0.1l0,0.6
		c0,0.1,0,0.2,0.1,0.2l0.9-0.2v-0.2c0,0-0.1-0.2-0.1-0.2c0,0,0-0.1,0-0.2c0-0.1,0-0.2,0-0.3c0,0,0-0.4,0-0.5
		c-0.6-0.4-1.2-0.8-1.8-1.2c-0.4-0.2-0.7-0.5-1-0.7c-0.1,0-0.1-0.1-0.2-0.2c0-0.1-0.1-0.2-0.1-0.2c0,0,0-0.1-0.1-0.2c0,0,0,0,0,0
		h-0.1c-0.1,0-0.1,0.1-0.2,0.1V56.6z M131.5,52.7l1.2,0.7c0.3-0.1,0.5-0.3,0.8-0.4v-0.1c0,0-0.2-0.5-0.2-0.5c0,0,0.2-0.3,0.3-0.3
		c0.1,0,0.8,0.3,0.8,0.4v0.2c-0.2,0-0.5,0.2-0.6,0.2c-0.1,0-0.3-0.2-0.4-0.2l0.2,1.4c0.1-0.1,0.2-0.4,0.5-0.5c0.2,0,0.3-0.1,0.5-0.2
		c0.1,0,0.3-0.1,0.3-0.1c0,0,0-0.1,0-0.3c0-0.1,0-0.2,0-0.2c0,0,0,0,0,0c0,0,0-0.3,0-0.6c0-0.1,0-0.3,0-0.4
		c-0.4-0.2-1.3-0.6-1.4-0.6c0,0-0.6,0.6-0.7,0.7l0.2,0.4c-0.1,0.1-0.2,0.1-0.3,0.2l-0.6-0.4c0.2-0.2,1-0.8,1-0.9
		c0,0-0.1-0.6-0.2-0.9c-0.1,0-0.2,0-0.3-0.1v0.2c0,0,0,0.1,0,0.2c-0.4,0.3-0.7,0.6-1.1,0.9V52.7z M133.3,55c-0.3,0.1-0.7,0.2-1,0.2
		v0.1c0,0,0.1,0.1,0.1,0.1c0,0.2,0.1,0.6,0.2,0.7c0,0,0,0,0,0c0.2-0.1,0.4-0.1,0.5-0.1c0.1,0,0.2,0,0.3-0.1c0,0,0,0,0,0
		c0,0,0.1,0,0.2,0v-0.1l0,0C133.5,55.6,133.5,55.2,133.3,55 M137.9,38.5L137.9,38.5c-0.1-0.1-0.3-0.2-0.5-0.3
		c-0.2-0.1-0.4-0.4-0.5-0.4c0,0-0.4,0.3-0.5,0.3c-0.1,0-0.1,0-0.2,0c-0.3,0-0.7,0-1.2,0.1c-0.4,0-0.8,0.1-1.2,0.1c0,0,0,0-0.1,0
		c0,0-0.2-0.2-0.3-0.2h-0.1c0.1,0.3,0.4,0.5,0.6,0.8l1.2-0.1c0.1,0,0.3,0,0.3,0c0.1,0,0.1,0,0.2,0c0,0,0,0,0,0c0,0,0,0,0.1,0
		c0,0,0.2-0.1,0.2-0.1c0,0,0,0,0,0c0,0,0.3,0,0.5,0c0.2,0,0.7-0.2,0.8-0.2c0,0,0.2,0.1,0.2,0.1c-0.1,0.1-0.3,0.3-0.3,0.3
		c0,0,0,0.1,0,0.1c0.2,0.1,0.6,0.4,0.7,0.4c0.1,0,0.5-0.5,0.6-0.5v-0.1L137.9,38.5z M137.4,36.8c-0.2-0.1-0.4-0.2-0.5-0.2
		c0.1-0.2,0.3-0.5,0.4-0.7l-0.9-0.5h-0.1c-0.1,0.2-0.1,0.3-0.2,0.4c-0.6,0.1-1.2,0.2-1.8,0.4c-0.1-0.1-0.3-0.3-0.4-0.3h-0.1
		l-0.1,1.3c0,0.1,0.3,0.3,0.4,0.3c0.1,0,0.2,0.1,0.2,0.1c0,0,0,0,0,0c0-0.1,0-0.2,0-0.4c0,0,0,0,0-0.1c0-0.1,0-0.3,0.1-0.5
		c0.2,0,0.5-0.1,0.7-0.1c0.2,0,0.4-0.1,0.7-0.1c0.2,0,0.3,0.2,0.4,0.2c-0.2,0.1-0.5,0.4-0.5,0.4c0,0,0.4,0.5,0.5,0.6l1-0.7V36.8z
		 M135.2,31.1c0.1,0.1,0.1,0.1,0.1,0.2c0,0-0.1,0.3-0.2,0.4c-0.1,0.1-0.2,0.1-0.3,0.1l-1.4,0.5c-0.1,0-0.1,0-0.1,0v-0.7
		c0.2-0.1,0.4-0.2,0.5-0.3l1.3-0.5c0.1,0,0.2,0.1,0.3,0.1c0.1,0,0.1,0,0.1-0.1c0.1-0.2,0.1-0.4,0.2-0.6c0,0,0,0,0-0.1
		c0,0,0.1-0.1,0.1-0.1V30c-0.3,0-0.6-0.1-0.9-0.1c-0.1,0.1-0.1,0.3-0.1,0.4l-1.8,0.7c-0.1,0-0.3-0.1-0.3-0.1c0,0,0,0-0.1,0v1.4
		c0.2,0.1,0.4,0.2,0.5,0.3c0.2,0.1,0.7,0.3,0.7,0.3c0,0,0.1,0,0.2-0.1l1.4-0.4c0.1,0,0.2,0.2,0.3,0.2c0,0,0,0,0.1,0l0.5-1.4
		c-0.2,0-0.4-0.1-0.6-0.1C135.5,31.1,135.3,31,135.2,31.1L135.2,31.1z M133.2,26.1c0,0,0.1,0,0-0.1c0-0.2,0.1-0.5,0.1-0.6
		c0,0,0-0.1,0-0.2l-0.8-0.1c0.1,0.2,0,0.2,0,0.2c0,0,0,0.2,0,0.2c-0.1,0-0.2,0.1-0.2,0.2l-1.7,0.9c-0.1,0-0.2-0.1-0.2-0.1
		c0,0-0.1,0-0.2,0v0.1c0,0,0.1,0.4,0.1,0.5c0,0,0,0,0,0c0,0.1,0,0.1,0,0.3c0.3,0.1,0.7,0.2,0.8,0.2h0.1v0c0,0,0-0.1,0-0.2
		c0,0,0-0.2,0-0.3c0.4-0.2,0.8-0.5,1.2-0.7c0.1-0.1,0.3-0.2,0.4-0.2c0,0,0.4,0.1,0.6,0.2c0,0,0,0,0,0c0,0-0.1,0.4-0.1,0.4
		c0,0.1,0,0.2-0.1,0.2c-0.1,0-0.2,0-0.2,0c-0.1,0.1-0.3,0.2-0.4,0.3c-0.4,0.2-1.1,0.6-1.1,0.6c0,0-0.2,0-0.3,0c0,0-0.1,0-0.1,0
		c0,0,0,0-0.1,0v0.2c0,0,0.1,0.1,0.1,0.2c0,0.2,0,0.4,0,0.6c0.3,0.1,0.5,0.3,0.8,0.4h0.1c0-0.3,0-0.4,0-0.7c0.1-0.1,0.3-0.2,0.4-0.3
		c0.2-0.1,0.4-0.2,0.6-0.3c0.1-0.1,0.3-0.2,0.4-0.2c0.3,0,0.4,0,0.5,0c0-0.1,0-0.2,0-0.2c0.1-0.4,0.2-0.9,0.3-1.3
		c-0.1,0-0.2-0.1-0.3-0.1c-0.1,0-0.3-0.1-0.4-0.1C133.5,26.2,133.2,26.2,133.2,26.1 M131.5,23.8C131.5,23.9,131.5,23.9,131.5,23.8
		c0,0.1,0,0.2,0,0.2c-0.5,0.5-1,0.8-1.6,1.3c-0.2-0.1-0.4-0.1-0.4-0.4c0,0,0-0.2-0.1-0.3l1.8-1.4c0,0,0,0,0.1,0h0.1
		c0-0.2,0.1-0.4,0.1-0.6c0,0,0,0,0-0.1c0,0,0-0.1,0-0.2c-0.3,0-0.6-0.1-0.9-0.1c0,0.1,0,0.2,0,0.3c0,0,0,0.1,0,0.2
		c-0.6,0.5-1.1,0.9-1.7,1.3c0,0-0.1,0-0.2,0h-0.5V24l0.5,1.1c0,0,0,0.1,0.1,0.2c0.1,0,0.1,0,0.2,0c0,0,0.1,0,0.1,0
		c0.1,0,0.3,0,0.4,0.1c0,0,0,0.1,0,0.1c0,0,0,0,0,0c0,0.3,0.1,0.5,0.1,0.8c0.1,0,0.1,0,0.1,0c0.3,0.1,0.5,0.1,0.8,0.1v-0.1
		c0,0,0-0.1-0.1-0.1c0,0,0-0.2-0.1-0.2l1.2-1c0.2-0.1,0.7-0.5,0.7-0.5c0,0,0,0,0.1,0c0,0,0,0,0.1,0c0-0.3,0.1-0.6,0.1-0.9
		c-0.3,0-0.8-0.1-0.8-0.1c0,0-0.1,0-0.1,0C131.5,23.7,131.5,23.8,131.5,23.8 M128.9,21.4l0.8-0.1c0,0,0,0,0,0c0,0,0-0.1,0-0.2
		c0,0,0,0,0,0c0-0.2,0-0.4-0.1-0.6c-0.3,0-0.6,0.1-0.9,0.1c0,0,0,0.1,0,0.1c0,0,0.1,0.4,0.1,0.5C128.8,21.1,128.8,21.3,128.9,21.4
		C128.9,21.4,128.9,21.4,128.9,21.4 M126.2,20c0,0.1,0.1,0.2,0.1,0.3c0,0-0.4,0.3-0.5,0.5c-0.2-0.4-0.3-0.8-0.5-1.2
		c-0.2,0-0.4,0-0.5-0.1c-0.1,0-0.3-0.1-0.3-0.1c0,0-0.2,0.2-0.2,0.2v0.1c0,0,0,0,0.1,0c0,0,0.1,0,0.2,0c0.2,0.4,0.4,0.9,0.6,1.3
		c0.4,0.1,1.1,0.3,1.1,0.3c0.1,0,0.6-0.5,0.8-0.6c0.1-0.1,0.2-0.2,0.3-0.3c0,0,0-0.1,0-0.1l-0.2-0.8h-0.4c0,0,0,0,0,0
		c0,0-0.2,0-0.2,0c-0.1-0.1-0.2-0.3-0.2-0.3c0,0,0.5-0.7,0.6-0.7c0.1,0,0.2,0.1,0.2,0.1c0,0.3,0,0.5,0,0.5c0,0-0.2,0.2-0.3,0.3v0.1
		c0.1,0,0.3,0,0.4,0c0.3,0.1,0.7,0.1,1.1,0.2c-0.1-0.2-0.4-0.4-0.4-0.5V19c0,0,0,0,0,0c0,0,0-0.5,0-0.6l-1.6-0.4l-1,1.1
		c0.1,0.3,0.3,0.6,0.4,0.8c0.1,0,0.2,0,0.3,0C126.2,20,126.2,20,126.2,20 M125.1,17.4c0-0.1-0.1-0.3-0.1-0.3c0,0,0,0,0-0.1
		c-0.1,0-0.1-0.1-0.1-0.1c0,0,0-0.2-0.1-0.3h-0.1c0,0-0.6,0.1-0.8,0.1l0.2,0.9h0.1C124.4,17.5,124.9,17.4,125.1,17.4 M128,22.4
		c0,0,0-0.1,0-0.1c0,0,0-0.1,0-0.2h-0.2c0,0,0,0,0,0c-0.2,0-0.5,0-0.7,0.1c0,0.1,0,0.2,0,0.2c0,0.2,0,0.3,0,0.5c0,0,0,0,0,0
		c0,0-0.1,0.2,0.1,0.2c0,0,0.3-0.1,0.3-0.1c0,0,0.2,0,0.2,0c0.1,0,0.2,0,0.2,0c0,0,0,0,0.1,0v-0.2c0,0,0-0.2,0-0.3
		C128,22.5,128,22.5,128,22.4 M134.3,28.3c-0.1,0.2-0.1,0.4-0.2,0.5l-1.9,0.8c0,0-0.1,0-0.5,0v0.8l0.8,0.4c0,0,0,0,0,0v-0.5l2.1-1
		c0.1,0,0.1,0.1,0.3,0.1c0.1-0.3,0.3-0.7,0.3-0.8v-0.1C134.9,28.5,134.6,28.4,134.3,28.3 M136.2,33.5c0,0,0.1,0,0.1,0c0,0,0,0,0,0.1
		c0,0,0.1,0,0.1,0c0,0,0,0.1,0,0.1c0,0-0.1,0-0.1,0.1c0,0-0.1,0-0.1,0c0,0,0,0,0,0c0,0,0,0,0,0c-0.3,0.2-0.8,0.4-0.8,0.4
		c0,0-0.1,0-0.1-0.1c-0.1-0.1-0.2-0.2-0.3-0.3c0,0,0,0-0.1-0.1c0.1,0,0.1,0,0.2,0c0,0,0,0,0,0c0,0,0,0,0.1,0c0,0,0.5-0.2,0.6-0.2
		c0,0,0,0,0,0c0,0,0.1,0,0.1,0c0,0,0,0,0,0C135.8,33.6,136.1,33.5,136.2,33.5 M136.3,33.3c-0.2-0.2-0.3-0.4-0.4-0.4
		c0,0-0.1,0-0.2,0.1l-1.8,0.5c-0.1,0-0.2-0.1-0.2-0.1c0,0-0.3,0.1-0.3,0.2c0,0-0.1,0.9-0.1,1.4c0,0,0,0,0,0c0,0.1,0.6,0.4,0.7,0.5
		h0.1v-1.2c0,0,0-0.1,0-0.1c0.1,0,0.3-0.1,0.4-0.1c0.1,0,0.9,1,1,1c0.3,0,0.3,0,0.3,0s0,0,0,0c0.1,0,0.7-0.5,0.7-0.5
		c0.1-0.1,0.6-0.4,0.6-0.5c0,0,0-0.1,0-0.1C137.1,33.7,136.3,33.3,136.3,33.3 M134.3,39.5l-0.3,0.7l0.6,0.7h0.1
		c0.1-0.2,0.1-0.3,0.2-0.5c0.1,0,0.2,0,0.2,0c0,0,0.4,0,0.6,0c0,0,0,0,0.1,0h1.4c0,0,0.2,0.2,0.2,0.2c0.1,0,0.6-0.6,0.6-0.7
		c-0.2-0.2-0.6-0.6-0.6-0.6c0,0,0,0-0.1,0c-0.1,0-0.2,0.3-0.5,0.3l-1.5,0c-0.1,0-0.2,0-0.2,0c0,0-0.1,0-0.2,0
		C134.7,39.7,134.5,39.6,134.3,39.5 M137.3,42.2h1.2l-0.6-0.7c-0.3,0.1-0.4,0-0.5,0c0,0,0-0.1,0-0.1c-0.2-0.1-0.5-0.1-0.7-0.2
		c0,0.1,0,0.3-0.1,0.3h-1.5l-0.5-0.5h-0.1l-0.5,1.1c0.2,0.2,0.4,0.4,0.6,0.6h0.1c0.1-0.2,0.2-0.4,0.4-0.6h1.5l0,0
		c0,0.1,0,0.3-0.1,0.4c0,0.1,0,0.2,0,0.3c0.1,0,0.2,0.1,0.3,0.1c0.1,0.1,0.3,0.1,0.4,0.1c0,0,0,0,0.1,0c0,0,0-0.1,0-0.1
		C137.2,42.8,137.3,42.6,137.3,42.2C137.3,42.3,137.3,42.2,137.3,42.2 M137.7,45.2c0.1-0.1,0.2-0.1,0.3-0.1V45
		c-0.4-0.3-0.5-0.6-0.9-1c0,0,0,0-0.1,0c0,0.1,0,0.3-0.1,0.4c-0.2,0.3-0.4,0.6-0.7,0.9l-1.7-0.3v-0.1c0.1-0.2,0.1-0.4,0.2-0.6h1.8
		c0,0,0.1,0,0.1,0c0,0,0.1,0,0.1,0v-0.1c-0.1-0.2-0.4-0.5-0.4-0.5c0,0-0.1-0.1-0.1-0.2l-1.3,0c-0.1,0-0.1,0-0.2-0.1
		c-0.1-0.1-0.3-0.3-0.4-0.3c-0.1,0-0.3,0.5-0.4,0.6c-0.1,0.2-0.2,0.4-0.3,0.6l0.4,0.5l-0.7,0.7c0.2,0.3,0.4,0.6,0.7,0.8
		c0.1-0.1,0.3-0.4,0.3-0.4c0-0.1,0-0.1,0.1-0.2l1.8,0.4c0.1-0.1,0.2-0.2,0.4-0.3C137.2,45.6,137.4,45.3,137.7,45.2 M136.7,48
		c0.3,0.1,0.6,0.2,0.9,0.3v-0.1c-0.2-0.3-0.4-0.6-0.6-0.8c-0.1-0.1-0.3-0.1-0.4-0.1c0-0.1,0.1-0.2,0.1-0.2s0,0,0-0.1
		c-0.2-0.1-0.6-0.3-0.7-0.3c0,0-0.1,0-0.1,0.1c0,0.1,0,0.1-0.1,0.2c0,0,0,0,0,0c0,0-0.4-0.1-0.5-0.1c-0.3-0.1-0.7-0.2-1.1-0.3
		c-0.1-0.1-0.2-0.3-0.3-0.4h-0.1l-0.6,1.3c0.1,0.2,0.3,0.4,0.4,0.6h0.1c0.2-0.2,0.3-0.5,0.5-0.7c0.4,0.1,0.9,0.2,1.4,0.3
		c0,0,0,0,0.1,0c-0.1,0.2-0.3,0.7-0.3,0.7c0,0,0.7,0.5,0.7,0.5h0.1c0-0.1,0.1-0.2,0.1-0.3c0-0.2,0.1-0.3,0.2-0.5
		c0-0.1,0.1-0.3,0.2-0.3C136.5,48,136.7,48,136.7,48 M135.5,50.6c0.3-0.1,0.5-0.2,0.8-0.4v-0.1c-0.1-0.1-0.2-0.3-0.2-0.3
		c0,0-0.1-0.3-0.2-0.4h-0.1c-0.1,0.1-0.3,0.1-0.4,0.2l-1.4-0.5c-0.1,0-0.2,0-0.3-0.1c-0.1-0.1-0.2-0.3-0.4-0.5h-0.1l-0.8,1.1
		c0.1,0.2,0.2,0.4,0.3,0.6c0,0,0,0,0.1,0l0.6-0.6l1.2,0.5c0,0,0,0,0,0c0.2,0.1,0.4,0.1,0.6,0.2C135.5,50.4,135.5,50.5,135.5,50.6
		 M131.5,54.5c0-0.2-0.1-0.4-0.1-0.6l-1,0.2v0.1c0,0,0.1,0.2,0.1,0.3c0,0.2,0.1,0.4,0.1,0.5c0.3-0.1,0.7-0.2,1-0.2v-0.1
		C131.6,54.8,131.6,54.6,131.5,54.5C131.5,54.6,131.5,54.6,131.5,54.5 M130.9,60.6L130.9,60.6L130.9,60.6c0.1-0.1,0-0.3,0-0.3
		c0-0.2,0-0.4-0.1-0.6c0-0.1-0.3-0.2-0.3-0.3c0,0,0.1,0,0.1-0.1c0,0-0.4-0.6-0.4-0.6c0,0-0.2,0.2-0.3,0.2c0,0-0.8-0.6-1.3-1
		c0-0.2,0-0.4-0.1-0.6h-0.1c-0.4,0.2-1.1,0.5-1.1,0.6c0,0,0.1,0.5,0.1,0.7c0,0,0,0,0,0.1c0.2-0.1,0.5-0.1,0.7-0.2l1.2,1
		c-0.2,0.2-0.6,0.5-0.6,0.6c0,0,0.3,0.6,0.4,0.6c0,0,0.5-0.5,0.8-0.7L130.9,60.6z M119.6,68.3l0.3-0.9l-1-0.2l-0.3,0.9L119.6,68.3z
		 M118.5,66.4l0.3-0.9l-0.9-0.3l-0.3,0.9L118.5,66.4z M122.7,18.7c0,0.2,0,0.4,0.1,0.7c0.3,0,0.6-0.1,0.9-0.1v-0.1
		c0,0-0.1-0.5-0.1-0.8h-0.1c0,0-0.1,0-0.1,0c-0.2,0-0.4,0.1-0.6,0.1v0.1C122.7,18.7,122.7,18.7,122.7,18.7 M120.4,16.2
		c0.5,0,0.9-0.4,0.9-0.9c0-0.5-0.3-0.9-0.9-0.9c-0.3,0-0.8,0.2-0.8,0.6c0,0.1-0.1,0.2-0.1,0.3c0,0,0,0.1,0,0.2
		C119.7,16,119.9,16.2,120.4,16.2 M117,14.4c0.5,0,0.9-0.4,0.9-0.9c0-0.5-0.4-0.9-0.9-0.9c0,0-0.2,0.1-0.4,0.1
		c-0.3,0.1-0.5,0.5-0.5,0.9C116.1,14,116.5,14.4,117,14.4 M109.3,13.2c0,0,0,0.1,0,0.1h-0.6c0.2,0.5,0.5,0.9,0.7,1.4c0,0,0,0,0.1,0
		c0-0.2,0.1-0.4,0.1-0.6c0-0.1,0.1-0.2,0.1-0.2c0,0-0.2-0.2-0.2-0.3c-0.1-0.1-0.1-0.2-0.1-0.3h1.2c0,0.2-0.2,0.4-0.3,0.5
		c0.2,0.1,0.3,0.4,0.3,0.6c0,0.1,0,0.4-0.2,0.4c-0.3,0-0.3-0.5-0.4-0.7c-0.1,0-0.1,0.1-0.1,0.1c-0.1,0.2-0.1,0.5-0.1,0.5
		c0,0,0,0.1,0,0.4c0,0.1,0,0.1,0,0.2c0.2,0.5,0.5,1,0.7,1.5c0,0,0.1,0,0.1,0.1c0-0.2,0.1-0.5,0.2-0.6c0,0,0.1-0.1,0.1-0.2
		c0,0-0.4-0.4-0.4-0.9c0-0.1,0-0.3,0.2-0.3c0.3,0,0.3,0.3,0.3,0.5c0-0.3,0.1-0.6,0.4-0.6c0.2,0,0.3,0.2,0.3,0.4
		c0,0.2-0.1,0.6-0.4,0.7c0.3,0.1,0.3,0.4,0.3,0.6c0,0.1,0,0.5-0.2,0.5c-0.3,0-0.3-0.5-0.4-0.7c0,0,0,0,0,0c-0.1,0.2-0.2,0.5-0.2,0.7
		c0,0,0,0.4,0,0.6c0.2,0.5,0.5,1,0.8,1.5h0.1c0-0.2,0-0.4,0.1-0.5c0-0.1,0.2-0.3,0.2-0.3c0,0-0.2-0.2-0.2-0.3
		c-0.1-0.2-0.2-0.3-0.2-0.5c0-0.1,0-0.3,0.2-0.3c0.2,0,0.3,0.4,0.3,0.5c0-0.2,0.1-0.6,0.4-0.6c0.2,0,0.3,0.2,0.3,0.4
		c0,0.2,0,0.6-0.4,0.8c0.3,0.1,0.3,0.4,0.3,0.6c0,0.1,0,0.5-0.2,0.5c-0.3,0-0.3-0.5-0.3-0.6c0,0-0.1-0.1-0.1-0.1
		c0,0-0.2,0.4-0.2,0.4v0.8c0.2,0.3,0.4,0.7,0.5,1c0.1,0.2,0.4,0.8,0.4,0.8c0,0,0,0,0,0v-8.3h-2.4c0.1-0.2-0.1-0.5-0.3-0.5
		c-0.2,0-0.3,0.1-0.4,0.3c-0.1-0.2-0.1-0.2-0.3-0.2C109.4,12.9,109.3,13.1,109.3,13.2 M105.6,13v0.3h-2.4v8.4l1.1-2.1v-0.6
		c0,0-0.1-0.3-0.1-0.4c0,0-0.1-0.1-0.1-0.1c0,0.1,0,0.3,0,0.4c0,0.1-0.1,0.4-0.3,0.4c-0.3,0-0.2-0.3-0.2-0.5c0-0.2,0-0.5,0.3-0.6
		c-0.2-0.1-0.4-0.4-0.4-0.7c0,0,0-0.2,0-0.3c0-0.1,0.1-0.2,0.2-0.2c0,0,0.1,0,0.2,0c0.3,0,0.4,0.2,0.4,0.5c0-0.2,0.1-0.4,0.3-0.4
		c0.2,0,0.2,0.2,0.2,0.4c0,0.2-0.2,0.6-0.4,0.8c0,0,0,0,0,0c0,0,0.1,0.2,0.2,0.3c0.1,0.2,0.1,0.4,0.1,0.5c0.3-0.5,0.6-1.1,0.9-1.7
		c0,0,0-0.1,0-0.1c0-0.2,0-0.2,0-0.2c0-0.3,0-0.5-0.1-0.8c0,0-0.1-0.1-0.1-0.1c0,0.1,0,0.7-0.4,0.7c-0.2,0-0.2-0.3-0.2-0.5
		c0-0.1,0-0.6,0.3-0.6c-0.2-0.2-0.4-0.4-0.4-0.7c0-0.1,0.1-0.5,0.3-0.5c0.3,0,0.4,0.3,0.4,0.6c0-0.2,0-0.5,0.3-0.5
		c0.2,0,0.2,0.2,0.2,0.3c0,0.5-0.4,0.8-0.4,0.8c0,0,0.1,0.2,0.2,0.3c0.1,0.2,0.1,0.3,0.1,0.5l0.8-1.6v-0.7c0,0-0.1-0.3-0.1-0.4
		c0,0-0.1-0.1-0.1-0.1c-0.1,0.1,0,0.7-0.4,0.7c-0.3,0-0.2-0.3-0.2-0.4c0-0.2,0-0.5,0.3-0.6c-0.2,0-0.3-0.3-0.3-0.4c0,0,0,0,0,0h1.2
		v0.1c-0.1,0.2-0.4,0.5-0.4,0.5c0,0,0.1,0.2,0.2,0.3c0.1,0.1,0.1,0.4,0.1,0.5c0,0,0,0,0,0l0.7-1.4c-0.6,0-0.6,0-0.6,0
		c0-0.2,0-0.4-0.3-0.4c-0.1,0-0.2,0.1-0.3,0.3c0-0.2-0.2-0.3-0.3-0.3C105.9,12.8,105.6,12.9,105.6,13 M102.7,13.4
		c0.5,0,0.9-0.4,0.9-0.9c0-0.5-0.3-0.9-0.9-0.9c-0.3,0-0.8,0.2-0.9,0.6c0,0.1-0.1,0.2-0.1,0.3c0,0,0,0.1,0,0.2
		C101.9,13.1,102.2,13.4,102.7,13.4 M106.8,16.1c-0.2,0.3-0.7,1.3-0.7,1.4c0,0,0,0.1,0.1,0.1c0.1,0,1.7-1.2,1.8-1.3
		c0.6,0.4,1.7,1.3,1.8,1.3c0.1,0,0.1-0.1,0.1-0.1c0,0-0.3-0.6-0.4-0.9c-0.5-0.9-0.9-1.9-1.4-2.8c0-0.1-0.1-0.1-0.1-0.1
		c0,0-0.1,0-0.1,0.1C107.6,14.6,107.2,15.4,106.8,16.1 M107.2,11.5c0,0.1-0.1,0.2-0.1,0.3s0,0.1,0,0.2c0.1,0.5,0.4,0.7,0.9,0.7
		c0.5,0,0.9-0.4,0.9-0.9c0-0.5-0.3-0.9-0.9-0.9C107.7,10.9,107.3,11,107.2,11.5 M112.4,11.8c-0.1,0.1-0.2,0.3-0.2,0.5
		c0,0,0.1,0.4,0.2,0.5c0.2,0.3,0.5,0.4,0.8,0.4c0.5,0,0.9-0.4,0.9-0.9c0-0.5-0.3-0.9-0.9-0.9C113,11.4,112.5,11.5,112.4,11.8
		 M99,14.4c0.5,0,0.9-0.4,0.9-0.9c0-0.5-0.4-0.9-0.9-0.9c-0.5,0-0.9,0.4-0.9,0.9C98.1,13.9,98.5,14.4,99,14.4 M95.8,16
		c0.5,0,0.9-0.4,0.9-0.9c0-0.5-0.4-0.9-0.9-0.9c-0.6,0-0.9,0.6-0.9,1c0,0,0,0.1,0,0.2C95,15.9,95.4,16,95.8,16 M90.4,17.4
		c0,0,0.1-0.2,0.1-0.3c0,0,0.1,0,0.6,0c0.1,0.1,0.2,0.3,0.3,0.4l0.3-1.5c-0.2,0.1-0.4,0.3-0.5,0.3h-1L89.8,18l1.1,1.1
		c0.3-0.1,0.6-0.2,0.9-0.4c0-0.2,0-0.4,0-0.5c0.1,0,0.3,0,0.3,0c0,0,0.4,0.4,0.5,0.6l0,0c-0.2,0.1-0.4,0.1-0.7,0.2
		c-0.2,0.1-0.7,0.2-0.7,0.3c0,0-0.1,0.6-0.2,0.8c0.1,0.1,0.2,0.1,0.3,0.2c0-0.1,0-0.2,0.1-0.3c0.3-0.2,0.7-0.3,1-0.3
		c0.1,0,0.4,0,0.4-0.2c0.2-0.3,0.5-1.1,0.5-1.1c0,0-0.9-1.2-0.9-1.2c0,0-0.6,0.1-0.9,0.2c0,0.1,0,0.1,0,0.2c0,0,0,0.3,0,0.4
		c-0.1,0.1-0.3,0.2-0.4,0.2c-0.1,0-0.2-0.2-0.3-0.2C90.7,17.7,90.4,17.5,90.4,17.4 M89.8,22.1l-3-2.6c0.5,0,0.6,0,0.7,0c0,0,0,0,0,0
		v-0.9h-0.1c0,0-0.4,0-0.6,0.1c-0.4,0.2-0.4,0.4-0.4,0.7c0,0,0,0.7,0,0.8c0,0,0,0.1,0,0.1c0.3,0.2,0.6,0.5,0.9,0.8
		c0.8,0.7,1.6,1.4,2.4,2.1c0,0,0,0,0,0V22.1z M85,21.7c0,0,0.1,0.5,0.1,0.5c0,0,0,0.1,0,0.1c-0.3,0.1-0.5,0.2-0.8,0.3
		c0,0,0,0.1,0,0.1c0.1,0.3,0.2,0.6,0.3,0.9c0,0,0,0.1,0.1,0.1c0.1-0.1,0.3-0.2,0.3-0.2c0,0,1.1,0.6,1.5,1c0.1,0.1,0.1,0.4,0.2,0.6
		l0.8-0.4v-0.1l-0.2-0.8c-0.1,0-0.3,0.1-0.4,0.1s-0.1,0-0.1-0.1c-0.3-0.2-1.4-0.9-1.4-1c0,0,0-0.3,0-0.4c0,0,0-0.1,0-0.1
		c0.2-0.1,0.6-0.4,0.6-0.4c0,0,0,0.3,0.1,0.3c0.4,0.3,1,0.5,1.3,0.9c0.1,0.1,0.1,0.3,0.1,0.5l1-0.5l-0.1-0.8
		c-0.2,0.1-0.4,0.2-0.5,0.2c0,0-1.1-0.6-1.5-1.1c-0.2-0.2-0.1-0.4-0.2-0.6c-0.4,0.2-0.7,0.4-1,0.5C85.2,21.5,85,21.6,85,21.7
		 M81,28.4l0.2,0.8c-0.2,0.2-0.6,0.4-0.6,0.5c0,0.1,0.2,0.8,0.3,0.9c0.2-0.1,0.5-0.2,0.6-0.2c0,0,1.1,0.4,1.6,0.6
		c0.1,0.1,0.1,0.3,0.2,0.3l0.7-0.5c-0.1-0.3-0.3-0.5-0.4-0.7c-0.1,0.1-0.3,0.2-0.4,0.2c0,0-1.1-0.4-1.6-0.7
		c-0.1-0.1-0.1-0.3-0.1-0.5c0,0,0,0,0,0v0l0.6-0.3c0,0.1,0.1,0.1,0.1,0.2c0.5,0.2,1,0.4,1.5,0.6c0.1,0.1,0.1,0.2,0.2,0.3l0.7-0.6
		l-0.3-0.8L83.8,29c-0.3-0.1-0.6-0.2-0.8-0.3c-0.2-0.1-0.4-0.1-0.5-0.2c-0.2-0.2-0.2-0.4-0.3-0.6h-0.1L81,28.4z M85.9,59.1v-0.5
		l1.6-1.3c0,0,0,0,0,0l0.2,0.7c-0.2,0.2-0.4,0.4-0.6,0.6c-0.3,0.3-0.6,0.6-0.9,0.8c-0.1,0.1-0.2,0-0.3,0.1v1H86l0.8-0.2
		c0.1-0.2,0-0.2,0-0.3c0-0.1,0.8-0.7,1-0.9c0.1-0.1,0.2-0.1,0.2-0.2c0.3-0.3,0.3-0.4,0.7-0.4c0,0,0,0,0.1,0
		c-0.2-0.5-0.3-0.9-0.5-1.4c-0.5-0.1-1.3-0.1-1.4-0.1c-0.2,0-1.4,1-1.5,1c0,0-0.2-0.1-0.2-0.1H85v1.5l1.1-0.1
		C86,59.1,86,59.1,85.9,59.1 M86.8,60.9c0,0.1,0,0.8,0,0.8c0,0,0,0,0,0h1v-0.4c0,0,0-0.1,0-0.1c0.6-0.5,1-1.1,1.6-1.5
		c0.1-0.1,0.3-0.1,0.5-0.2c-0.1-0.3-0.2-0.5-0.3-0.7l-1-0.1c0.1,0.2,0.1,0.3,0.2,0.5c-0.6,0.5-1.2,1.1-1.7,1.6
		C87,61,86.9,60.9,86.8,60.9 M89.8,63.2c0.5-0.5,1-1.2,1.6-1.8c0.1-0.1,0.2-0.1,0.3-0.1l-1-1.2l-1,0.1l0.7,0.8c0,0.1,0,0.3-0.1,0.4
		c-0.4,0.5-0.8,0.9-1.2,1.4v-0.9c-0.5,0-0.9-0.1-1,0v1.2h1.5C89.7,63.1,89.7,63.2,89.8,63.2 M92.1,64.4l-1.1,0.2l0.2,1h0.1l1-0.2
		v-0.1L92.1,64.4z M84.9,57.5c0.5-0.5,1.1-0.8,1.6-1.1c0.2,0,0.4,0,0.5-0.1c0-0.3-0.1-0.5-0.1-0.8c-0.3-0.1-0.6-0.2-0.9-0.3
		c0,0,0,0,0,0c0,0,0.1,0.3,0.1,0.4l-1.8,1.2c-0.1,0.1-0.1,0-0.2,0c0,0,0,0-0.1,0c0,0.3-0.1,0.6-0.1,0.8c0.3,0.1,0.6,0.1,0.9,0.1
		C84.9,57.8,84.8,57.6,84.9,57.5 M83.4,56.2c0.3-0.1,0.5-0.1,0.7-0.2c0-0.1-0.1-0.2-0.1-0.3l1.5-0.8c0.2,0.1,0.4,0.1,0.7,0.2
		L86,53.8l-0.9-0.2c0,0.1,0,0.4,0,0.6c0,0,0,0.1,0,0.1c-0.4,0.3-1,0.6-1.4,0.8c-0.1-0.3-0.3-0.5-0.4-0.8c-0.3,0.1-0.5,0.1-0.7,0.2
		v0.1l0.4,0.9L82,56.1c0,0,0,0,0,0c0.2,0.1,0.5,0.1,0.7,0.2c0.1,0,0.1,0.1,0.2,0.1c0,0,0.3-0.2,0.4-0.2
		C83.3,56.2,83.4,56.2,83.4,56.2 M81,53.6c0.5,0,1,0.2,1.4,0.4c0-0.1-0.2-0.4-0.2-0.5c0,0,0.1-0.4,0.1-0.5c0,0,0-0.3,0-0.4
		c0.6-0.2,1.2-0.4,1.7-0.6l0.3,0.6l-1.8,1l0.8,0.3l1.3-0.7c0.2,0,0.4,0.1,0.7,0.1l-0.1-1.1c0-0.1,0-0.1,0-0.2
		c-0.2-0.1-0.5-0.1-0.7-0.2l0.2-0.9c0,0,0,0,0-0.1c-0.4-0.1-0.7-0.2-1-0.3c0,0.2,0,0.2,0,0.6c-0.6,0.2-1.3,0.5-1.9,0.7
		c-0.1,0.2-0.1,0.4-0.2,0.6C81.3,52.9,81.2,53.3,81,53.6 M80.9,51.2h0.2c0,0,0.4-0.1,0.6-0.1c0-0.1-0.1-0.2-0.1-0.3l1.6-0.6l0.6,0.3
		c0,0,0,0,0,0l0.1-1.1c0,0,0-0.1,0-0.1c-0.3-0.1-0.5-0.2-0.8-0.3c-0.1,0.2-0.1,0.5-0.2,0.7c0,0,0,0,0,0c-0.5,0.2-1,0.4-1.5,0.6
		c-0.1-0.3-0.2-0.6-0.3-0.8c-0.3,0-0.4,0-0.6,0c0,0-0.1,0-0.1,0.1l0.3,0.9v0.1l-1.2,0.4c0.3,0.1,0.6,0.3,0.9,0.4l0.5-0.2
		C80.9,51.1,80.9,51.2,80.9,51.2 M83,48.4c0-0.2,0.1-0.5,0.1-0.8l-0.8-0.5c0,0.2-0.1,0.3-0.1,0.5c-0.7,0.2-2,0.6-2.1,0.6
		s-0.2-0.1-0.3-0.1l-0.4,0.8l0.8,0.4c0.1-0.1,0.1-0.2,0.2-0.4c0,0,0,0,0.1-0.1c0.6-0.2,1.8-0.5,1.9-0.5S82.9,48.4,83,48.4
		C83,48.4,83,48.4,83,48.4 M78.7,46.1l1.2,1.1c0.5-0.2,1-0.3,1.5-0.5c0-0.1,0-0.2,0-0.3c0-0.3,0.1-0.5,0.1-0.6c0,0,0-0.1,0-0.1
		c-0.2-0.1-0.5-0.3-0.5-0.3c0,0,0.1-0.3,0.2-0.3c0.2-0.1,0.7-0.1,0.7-0.1s0,0,0,0l-0.2,1.3c0,0.1,0.2,0.2,0.4,0.3
		c0.1,0.1,0.3,0.3,0.4,0.3c0,0,0.2-0.1,0.3-0.1c-0.1-0.1-0.2-0.1-0.2-0.2l0.2-1.4c-0.1-0.2-0.3-0.3-0.4-0.5
		c-0.1-0.2-0.4-0.4-0.4-0.4c0,0-1,0.2-1.4,0.3c-0.1,0.3-0.2,0.6-0.3,0.9c0.2,0.1,0.6,0.3,0.6,0.4c0,0.1-0.1,0.3-0.1,0.4
		c-0.3,0.1-0.9,0.3-0.9,0.3c0,0-0.2-0.2-0.2-0.2c0,0,0.2-0.6,0.4-0.6c0.3,0,0.3,0,0.4,0l-1.2-1c0,0.2,0.1,0.5,0.1,0.5
		C79.2,45.3,78.8,45.8,78.7,46.1 M81.7,43.1l0.6-0.8l-0.8-0.6l-0.6,0.8c0,0,0,0,0,0L81.7,43.1z M78.5,42.9l0.9,0.6l0.6-0.8l-0.9-0.6
		L78.5,42.9z M78.2,39.3c0.2,0.2,0.8,0.8,1,1.2l2.3,0c0.1,0.1,0.3,0.1,0.4,0.2c0-0.5,0.2-1,0.3-1.5l-0.7-0.7c0,0.1-0.1,0.2-0.1,0.3
		c0,0-0.1,0.5-0.1,0.8c-0.1,0.1-0.3,0.2-0.4,0.2h-1.9c0.2-0.2,0.5-0.4,0.7-0.6c-0.2-0.3-0.4-0.5-0.6-0.7L78.2,39.3z M79.2,37.2
		c0.1-0.1,0.5-0.7,0.7-0.7l1.9,0.2c0,0.1-0.3,0.6-0.3,0.6l-2-0.2C79.5,37.2,79.4,37.2,79.2,37.2 M78.5,36.8l1,1.4
		c0.3-0.1,0.8-0.3,0.8-0.3l0.7,0.1c0,0,0.3,0,0.5,0c0.2,0.1,0.3,0.2,0.4,0.3l0.6-1.2l-0.8-1.3c-0.2,0.1-0.2,0.1-0.4,0.1
		c0,0-0.4,0-0.8-0.1c-0.2,0-0.5,0-0.7-0.1c-0.2,0-0.3-0.2-0.5-0.2v0.3C79.4,36,78.6,36.7,78.5,36.8 M82,34.6l-3.4-0.8v0.1
		c0,0,0.1,0.5,0.2,0.7c1,0.2,1.9,0.4,2.9,0.6c0.1,0,0.2,0,0.3,0.1c0.1,0.2,0.2,0.4,0.2,0.5l0.6-0.9c-0.1-0.2-0.3-0.5-0.5-0.7
		C82.1,34.3,82.1,34.5,82,34.6 M80.2,32.5l0.8-0.6l1.9,0.6c-0.1,0.1-0.3,0.4-0.4,0.5l-1.9-0.5H80.2z M80.6,31.2
		c-0.3,0.3-0.7,0.5-1,0.7l0.7,1.5c0.3-0.1,0.8-0.1,0.8-0.1s0.8,0.2,1.2,0.4c0.2,0.1,0.3,0.3,0.4,0.4l0.8-1.1l-0.5-1.4
		c-0.1,0-0.3,0.1-0.3,0.1c0,0-0.3-0.1-0.5-0.2c-0.5-0.2-0.9-0.1-1.4-0.6C80.6,31,80.6,31.1,80.6,31.2 M82.8,26.2l-0.8,0.3
		c0.1,0.3,0.2,0.6,0.4,0.8c0.1-0.1,0.4-0.2,0.4-0.2c0,0,1.1,0.5,1.7,0.8c0.1,0.1,0.2,0.3,0.3,0.4l0.7-0.5c-0.1-0.3-0.1-0.6-0.2-0.9
		c-0.1,0.1-0.4,0.3-0.4,0.3c0,0-0.2-0.1-0.4-0.2c-0.5-0.2-1-0.4-1.5-0.7C82.8,26.4,82.8,26.3,82.8,26.2 M83.4,24.7
		c0.4,0.1,0.9,0.2,1.3,0.3c0,0,0,0.1,0,0.1c0,0,0,0.3,0,0.5c-0.4-0.2-0.9-0.4-1.3-0.6C83.4,25,83.4,24.9,83.4,24.7L83.4,24.7z
		 M83,24.2l0.3,1.1c0,0.1,0,0.3,0,0.3c0,0,0,0,0,0.1c0.4,0.2,0.8,0.4,1.2,0.6c0.2,0.1,0.5,0.2,0.7,0.4c0.1,0.1,0,0.1,0,0.2
		c0.1,0.1,0.2,0.1,0.3,0.1l1.1-1l-0.4-0.9L85.5,26c-0.1-0.1-0.2-0.1-0.3-0.2v-1.3c0-0.1-0.3-0.3-0.3-0.3l-1.4-0.1
		C83.2,24.1,83.2,24.1,83,24.2C83,24.2,83,24.2,83,24.2 M89,18.5h-0.9v0.9h0.5c0.5,0.5,1,0.9,1.4,1.4c0.1,0.1,0.1,0.3,0.1,0.5h0.1
		c0.2-0.1,0.5-0.1,0.7-0.2c0.1,0,0.1-0.1,0.1-0.1c0,0,0.1-0.7,0.1-0.8c0,0,0,0,0,0c-0.2,0.1-0.4,0.2-0.5,0.2c0,0-0.6-0.6-0.9-0.9
		c-0.1-0.1-0.6-0.6-0.6-0.7V18.5z M93.7,63.4l-0.2-1l-1.1,0.2v0.1l0.2,0.9h0.1L93.7,63.4z M100.5,66.2c0.1-0.2,0.5-0.2,0.7-0.4
		c-0.1-0.1-0.1-0.2-0.2-0.2l-0.9,0.4h-0.3l-1.3,3.3c-0.1-0.2-0.2-0.5-0.2-0.7c-0.3,0-0.6,0.1-0.8,0.1c0.1,0.3,0.1,0.6,0.2,0.9
		c0.2,0.1,0.5,0.2,0.5,0.2c0,0,0.3-0.1,0.5-0.1c0.1,0,0.3-0.1,0.4-0.1c0,0,0.2,0,0.2-0.1C99.7,68.5,100,67.2,100.5,66.2 M101.6,68.5
		l-1,0.5c0.2,0.3,0.4,0.7,0.5,1c0.3-0.2,0.7-0.4,1-0.5L101.6,68.5z M96.3,68.3l1.4-0.4c0,0,0.1,0,0.1,0c0.3-0.7,0.6-1.4,0.9-2.1
		c0.1-0.1,0.2-0.2,0.3-0.2l-1.3-0.8l-0.9,0.4c0.3,0.2,0.9,0.5,0.9,0.6c0,0,0,0.3,0,0.3L97,67.7c-0.1-0.3-0.1-0.6-0.3-0.9l-0.9,0.3
		c0.1,0.2,0.1,0.3,0.1,0.5C96.1,67.8,96.1,68.1,96.3,68.3 M95.4,65.6l-0.6,1.3c-0.1,0-0.2,0-0.3,0c0.1-0.2,0.1-0.5,0.1-0.7
		c0,0,0-0.6,0.2-0.6H95.4z M95.6,66.9c0.1-0.3,0.3-0.6,0.4-0.9c0.2-0.3,0.3-0.7,0.5-0.9c0.1-0.1,0.2,0,0.2-0.1
		c0-0.1,0.1-0.3,0.1-0.3c0-0.1-0.8-0.9-1.1-1.1l-0.9,0.3l1,0.9c-0.1,0.2-0.2,0.3-0.3,0.5h-1.4c-0.2,0.3-0.3,0.3-0.3,0.5l-0.1,1.3
		c0.1,0.1,0.1,0.2,0.2,0.3l1.1-0.3C95.4,67,95.4,67,95.6,66.9C95.5,67,95.6,66.9,95.6,66.9 M140.1,40.7c0-17.5-14.2-31.8-31.8-31.8
		C90.8,9,76.5,23.2,76.5,40.7c0,17,13.3,30.9,30.1,31.7c-0.3-0.2-0.6-0.4-1-0.6C89.6,70.6,77,57.1,77,40.7c0-17.3,14-31.3,31.3-31.3
		c17.3,0,31.3,14,31.3,31.3c0,16.4-12.6,29.8-28.6,31.1c-0.3,0.2-0.7,0.4-1,0.6C126.7,71.6,140.1,57.7,140.1,40.7 M140.7,40.7
		c0,17.9-14.5,32.4-32.4,32.4S75.9,58.7,75.9,40.7c0-17.9,14.5-32.4,32.4-32.4S140.7,22.8,140.7,40.7 M141.1,40.7
		c0-18.1-14.7-32.8-32.8-32.8c-18.1,0-32.8,14.7-32.8,32.8s14.7,32.8,32.8,32.8C126.4,73.5,141.1,58.9,141.1,40.7"/>
	<path class="st0" d="M44.6,62.2c-1.1,0-1.6,0.9-1.6,2.7s0.5,2.7,1.6,2.7c1.1,0,1.6-0.9,1.6-2.7S45.7,62.2,44.6,62.2"/>
	<path class="st0" d="M51.2,62.2c-1.1,0-1.6,0.9-1.6,2.7s0.5,2.7,1.6,2.7c1.1,0,1.6-0.9,1.6-2.7S52.3,62.2,51.2,62.2"/>
	<path class="st0" d="M13.2,62.2c-1.1,0-1.6,0.9-1.6,2.7s0.5,2.7,1.6,2.7s1.6-0.9,1.6-2.7S14.4,62.2,13.2,62.2"/>
	<path class="st0" d="M34.8,62.2c-1.1,0-1.6,0.9-1.6,2.7s0.5,2.7,1.6,2.7c1.1,0,1.6-0.9,1.6-2.7S35.9,62.2,34.8,62.2"/>
	<path class="st0" d="M42.4,48.1c-0.8,0-1.4,0.6-1.5,2.2h2.9C43.8,48.8,43.3,48.1,42.4,48.1"/>
	<path class="st0" d="M64.7,62.1c-0.8,0-1.4,0.6-1.5,2.2h2.9C66.1,62.8,65.6,62.1,64.7,62.1"/>
	<path class="st0" d="M6.4,73.3h65.3V8.1H6.4V73.3z M55.6,44.4h1.3v1.4h-1.3V44.4z M56.9,54.4h-1.2v-7.1h1.2V54.4z M13.2,68.5
		c-1.9,0-2.9-1.4-2.9-3.7c0-2.2,1-3.7,2.9-3.7s2.9,1.4,2.9,3.7C16.1,67.1,15.1,68.5,13.2,68.5 M20.7,58.9c-0.1-0.1-0.4-0.2-0.7-0.2
		c-0.7,0-0.9,0.4-0.9,1.1v1.5h1.3v1h-1.3v6.2H18v-6.2h-1.1v-1H18v-1.6c0-1.2,0.5-1.9,1.8-1.9c0.3,0,0.7,0,0.9,0.1V58.9z M22.3,50.8
		c0,1-0.1,1.5-0.4,2.2c-0.4,0.8-1.3,1.5-2.7,1.5S17,53.8,16.6,53c-0.3-0.7-0.4-1.2-0.4-2.2v-6.2h1.2V51c0,1.5,0.7,2.5,1.8,2.5
		c1.2,0,1.8-1,1.8-2.5v-6.4h1.2V50.8z M24.2,47.3h1.1l0,1.1h0c0.4-0.8,1-1.2,1.8-1.2c1.2,0,2.1,0.7,2.1,2.3v5h-1.2v-4.6
		c0-1.1-0.4-1.6-1.2-1.6c-0.9,0-1.5,0.6-1.5,1.9v4.3h-1.2v-5.6C24.2,48.3,24.2,47.8,24.2,47.3 M30.7,60.1c-0.5-0.3-1.1-0.5-1.8-0.5
		c-1.6,0-3.1,1.3-3.1,3.7c0,2.5,1,4.2,3.1,4.2c0.6,0,1.2-0.2,1.8-0.5v1.2c-0.6,0.2-1.2,0.3-1.8,0.3c-3.1,0-4.4-2.4-4.4-5
		c0-3.1,1.8-5,4.3-5c0.7,0,1.4,0.1,1.8,0.4V60.1z M31,44.4h1.3v1.4H31V44.4z M31.1,47.3h1.2v7.1h-1.2V47.3z M34.8,68.5
		c-1.9,0-2.9-1.4-2.9-3.7c0-2.2,1-3.7,2.9-3.7c1.9,0,2.9,1.4,2.9,3.7C37.6,67.1,36.6,68.5,34.8,68.5 M36.9,54.4h-1.4l-2.2-7.1h1.3
		l1.6,6h0l1.6-6h1.2L36.9,54.4z M40.3,68.4h-1.2V57.9h1.2V68.4z M39.7,50.9c0-2.2,1-3.7,2.8-3.7c1.6,0,2.5,1.3,2.5,3.4v0.6h-4
		c0,1.7,0.6,2.4,1.9,2.4c0.6,0,1.2-0.3,1.6-0.6l0.1,1.1c-0.6,0.3-1.3,0.4-2,0.4C40.7,54.5,39.7,53.1,39.7,50.9 M44.6,68.5
		c-1.9,0-2.9-1.4-2.9-3.7c0-2.2,1-3.7,2.9-3.7c1.9,0,2.9,1.4,2.9,3.7C47.5,67.1,46.5,68.5,44.6,68.5 M47.4,50.7v3.8h-1.2v-5.6
		c0-0.5,0-1-0.1-1.5h1.1l0,1.1h0c0.4-0.9,1-1.2,2-1.2v1.2c-0.1,0-0.3,0-0.4,0C48.1,48.3,47.4,49.1,47.4,50.7 M54,62.6v6.2
		c0,2-1.5,2.8-3.1,2.8c-0.6,0-1.6-0.2-2.1-0.4l0.1-1.2c0.5,0.3,1.3,0.6,2,0.6c1.4,0,2-0.9,2-2.1v-1.1h0c-0.5,0.8-1.1,1.2-1.9,1.2
		c-1.5,0-2.5-1.2-2.5-3.7c0-2.5,1-3.7,2.6-3.7c0.7,0,1.4,0.4,1.8,1.1h0l0-1H54C54,61.7,54,62.2,54,62.6 M52,54.5
		c-0.7,0-1.4-0.2-1.9-0.4l0.1-1.1c0.5,0.3,1.1,0.5,1.7,0.5c0.9,0,1.4-0.5,1.4-1c0-0.5-0.3-0.8-0.9-1.1l-0.8-0.4
		c-1-0.5-1.4-0.9-1.4-1.8c0-1.2,0.9-2.1,2.3-2.1c0.6,0,1.1,0.1,1.5,0.3l-0.1,1c-0.4-0.2-0.9-0.3-1.4-0.3c-0.8,0-1.2,0.4-1.2,1
		c0,0.6,0.4,0.9,1.2,1.2l0.4,0.2c0.9,0.3,1.4,0.9,1.4,1.8C54.3,53.6,53.6,54.5,52,54.5 M60.6,68.4h-1.2v-4.6c0-1.1-0.4-1.6-1.2-1.6
		c-0.9,0-1.5,0.6-1.5,1.9v4.3h-1.2v-5.6c0-0.5,0-1-0.1-1.5h1.1l0,1.1h0c0.4-0.8,1-1.2,1.8-1.2c1.2,0,2.1,0.7,2.1,2.3V68.4z
		 M61.8,48.3h-1.5v4.2c0,0.8,0.2,1.1,0.7,1.1c0.3,0,0.5-0.1,0.7-0.2v1c-0.3,0.1-0.7,0.2-1,0.2c-1.1,0-1.7-0.4-1.7-1.7v-4.6h-1.1v-1
		h1.1v-1.5l1.2-0.4v1.8h1.5V48.3z M67.2,65.2h-4c0,1.7,0.6,2.4,1.9,2.4c0.6,0,1.2-0.3,1.6-0.6l0.1,1.1c-0.6,0.3-1.3,0.4-2,0.4
		c-1.9,0-2.9-1.4-2.9-3.7c0-2.2,1-3.7,2.8-3.7c1.6,0,2.5,1.3,2.5,3.4V65.2z M65.1,55.9c-0.4,1.2-0.9,1.7-1.8,1.7
		c-0.3,0-0.6,0-0.8-0.1l0.1-1.1c0.2,0.1,0.4,0.1,0.6,0.1c0.3,0,0.6-0.2,0.8-0.9l0.3-1.1L62,47.3h1.2l1.6,5.8h0l1.5-5.8h1.2
		L65.1,55.9z"/>
</g>
</svg>
